%TF.GenerationSoftware,KiCad,Pcbnew,(6.0.7-1)-1*%
%TF.CreationDate,2022-08-06T17:31:22-07:00*%
%TF.ProjectId,sweepv2,73776565-7076-4322-9e6b-696361645f70,rev?*%
%TF.SameCoordinates,Original*%
%TF.FileFunction,Legend,Top*%
%TF.FilePolarity,Positive*%
%FSLAX46Y46*%
G04 Gerber Fmt 4.6, Leading zero omitted, Abs format (unit mm)*
G04 Created by KiCad (PCBNEW (6.0.7-1)-1) date 2022-08-06 17:31:22*
%MOMM*%
%LPD*%
G01*
G04 APERTURE LIST*
%ADD10C,0.120000*%
%ADD11C,0.125000*%
%ADD12C,0.150000*%
%ADD13C,0.100000*%
%ADD14C,1.524000*%
%ADD15C,1.397000*%
%ADD16C,0.800000*%
%ADD17O,2.000000X1.600000*%
%ADD18C,0.990600*%
%ADD19C,1.701800*%
%ADD20C,3.429000*%
%ADD21C,2.282000*%
%ADD22C,0.500000*%
%ADD23R,0.900000X1.700000*%
%ADD24C,1.000000*%
G04 APERTURE END LIST*
D10*
%TO.C,U1*%
X227681571Y-48953285D02*
X227681571Y-48203285D01*
X227931571Y-48739000D01*
X228181571Y-48203285D01*
X228181571Y-48953285D01*
X228538714Y-48953285D02*
X228538714Y-48453285D01*
X228538714Y-48203285D02*
X228503000Y-48239000D01*
X228538714Y-48274714D01*
X228574428Y-48239000D01*
X228538714Y-48203285D01*
X228538714Y-48274714D01*
X229217285Y-48917571D02*
X229145857Y-48953285D01*
X229003000Y-48953285D01*
X228931571Y-48917571D01*
X228895857Y-48881857D01*
X228860142Y-48810428D01*
X228860142Y-48596142D01*
X228895857Y-48524714D01*
X228931571Y-48489000D01*
X229003000Y-48453285D01*
X229145857Y-48453285D01*
X229217285Y-48489000D01*
X229538714Y-48953285D02*
X229538714Y-48453285D01*
X229538714Y-48596142D02*
X229574428Y-48524714D01*
X229610142Y-48489000D01*
X229681571Y-48453285D01*
X229753000Y-48453285D01*
X230110142Y-48953285D02*
X230038714Y-48917571D01*
X230003000Y-48881857D01*
X229967285Y-48810428D01*
X229967285Y-48596142D01*
X230003000Y-48524714D01*
X230038714Y-48489000D01*
X230110142Y-48453285D01*
X230217285Y-48453285D01*
X230288714Y-48489000D01*
X230324428Y-48524714D01*
X230360142Y-48596142D01*
X230360142Y-48810428D01*
X230324428Y-48881857D01*
X230288714Y-48917571D01*
X230217285Y-48953285D01*
X230110142Y-48953285D01*
X230681571Y-48203285D02*
X230681571Y-48810428D01*
X230717285Y-48881857D01*
X230753000Y-48917571D01*
X230824428Y-48953285D01*
X230967285Y-48953285D01*
X231038714Y-48917571D01*
X231074428Y-48881857D01*
X231110142Y-48810428D01*
X231110142Y-48203285D01*
X231431571Y-48917571D02*
X231538714Y-48953285D01*
X231717285Y-48953285D01*
X231788714Y-48917571D01*
X231824428Y-48881857D01*
X231860142Y-48810428D01*
X231860142Y-48739000D01*
X231824428Y-48667571D01*
X231788714Y-48631857D01*
X231717285Y-48596142D01*
X231574428Y-48560428D01*
X231503000Y-48524714D01*
X231467285Y-48489000D01*
X231431571Y-48417571D01*
X231431571Y-48346142D01*
X231467285Y-48274714D01*
X231503000Y-48239000D01*
X231574428Y-48203285D01*
X231753000Y-48203285D01*
X231860142Y-48239000D01*
X232431571Y-48560428D02*
X232538714Y-48596142D01*
X232574428Y-48631857D01*
X232610142Y-48703285D01*
X232610142Y-48810428D01*
X232574428Y-48881857D01*
X232538714Y-48917571D01*
X232467285Y-48953285D01*
X232181571Y-48953285D01*
X232181571Y-48203285D01*
X232431571Y-48203285D01*
X232503000Y-48239000D01*
X232538714Y-48274714D01*
X232574428Y-48346142D01*
X232574428Y-48417571D01*
X232538714Y-48489000D01*
X232503000Y-48524714D01*
X232431571Y-48560428D01*
X232181571Y-48560428D01*
D11*
X235677047Y-57809000D02*
X235629428Y-57773285D01*
X235558000Y-57773285D01*
X235486571Y-57809000D01*
X235438952Y-57880428D01*
X235415142Y-57951857D01*
X235391333Y-58094714D01*
X235391333Y-58201857D01*
X235415142Y-58344714D01*
X235438952Y-58416142D01*
X235486571Y-58487571D01*
X235558000Y-58523285D01*
X235605619Y-58523285D01*
X235677047Y-58487571D01*
X235700857Y-58451857D01*
X235700857Y-58201857D01*
X235605619Y-58201857D01*
X235915142Y-58523285D02*
X235915142Y-57773285D01*
X236200857Y-58523285D01*
X236200857Y-57773285D01*
X236438952Y-58523285D02*
X236438952Y-57773285D01*
X236558000Y-57773285D01*
X236629428Y-57809000D01*
X236677047Y-57880428D01*
X236700857Y-57951857D01*
X236724666Y-58094714D01*
X236724666Y-58201857D01*
X236700857Y-58344714D01*
X236677047Y-58416142D01*
X236629428Y-58487571D01*
X236558000Y-58523285D01*
X236438952Y-58523285D01*
D12*
D11*
X224027047Y-55279000D02*
X223979428Y-55243285D01*
X223908000Y-55243285D01*
X223836571Y-55279000D01*
X223788952Y-55350428D01*
X223765142Y-55421857D01*
X223741333Y-55564714D01*
X223741333Y-55671857D01*
X223765142Y-55814714D01*
X223788952Y-55886142D01*
X223836571Y-55957571D01*
X223908000Y-55993285D01*
X223955619Y-55993285D01*
X224027047Y-55957571D01*
X224050857Y-55921857D01*
X224050857Y-55671857D01*
X223955619Y-55671857D01*
X224265142Y-55993285D02*
X224265142Y-55243285D01*
X224550857Y-55993285D01*
X224550857Y-55243285D01*
X224788952Y-55993285D02*
X224788952Y-55243285D01*
X224908000Y-55243285D01*
X224979428Y-55279000D01*
X225027047Y-55350428D01*
X225050857Y-55421857D01*
X225074666Y-55564714D01*
X225074666Y-55671857D01*
X225050857Y-55814714D01*
X225027047Y-55886142D01*
X224979428Y-55957571D01*
X224908000Y-55993285D01*
X224788952Y-55993285D01*
X235657047Y-60389000D02*
X235609428Y-60353285D01*
X235538000Y-60353285D01*
X235466571Y-60389000D01*
X235418952Y-60460428D01*
X235395142Y-60531857D01*
X235371333Y-60674714D01*
X235371333Y-60781857D01*
X235395142Y-60924714D01*
X235418952Y-60996142D01*
X235466571Y-61067571D01*
X235538000Y-61103285D01*
X235585619Y-61103285D01*
X235657047Y-61067571D01*
X235680857Y-61031857D01*
X235680857Y-60781857D01*
X235585619Y-60781857D01*
X235895142Y-61103285D02*
X235895142Y-60353285D01*
X236180857Y-61103285D01*
X236180857Y-60353285D01*
X236418952Y-61103285D02*
X236418952Y-60353285D01*
X236538000Y-60353285D01*
X236609428Y-60389000D01*
X236657047Y-60460428D01*
X236680857Y-60531857D01*
X236704666Y-60674714D01*
X236704666Y-60781857D01*
X236680857Y-60924714D01*
X236657047Y-60996142D01*
X236609428Y-61067571D01*
X236538000Y-61103285D01*
X236418952Y-61103285D01*
X224162761Y-53383285D02*
X223996095Y-53026142D01*
X223877047Y-53383285D02*
X223877047Y-52633285D01*
X224067523Y-52633285D01*
X224115142Y-52669000D01*
X224138952Y-52704714D01*
X224162761Y-52776142D01*
X224162761Y-52883285D01*
X224138952Y-52954714D01*
X224115142Y-52990428D01*
X224067523Y-53026142D01*
X223877047Y-53026142D01*
X224353238Y-53169000D02*
X224591333Y-53169000D01*
X224305619Y-53383285D02*
X224472285Y-52633285D01*
X224638952Y-53383285D01*
X224758000Y-52633285D02*
X224877047Y-53383285D01*
X224972285Y-52847571D01*
X225067523Y-53383285D01*
X225186571Y-52633285D01*
D12*
%TO.C,B+*%
X237425895Y-50741942D02*
X237542009Y-50780647D01*
X237580714Y-50819352D01*
X237619419Y-50896761D01*
X237619419Y-51012876D01*
X237580714Y-51090285D01*
X237542009Y-51128990D01*
X237464600Y-51167695D01*
X237154961Y-51167695D01*
X237154961Y-50354895D01*
X237425895Y-50354895D01*
X237503304Y-50393600D01*
X237542009Y-50432304D01*
X237580714Y-50509714D01*
X237580714Y-50587123D01*
X237542009Y-50664533D01*
X237503304Y-50703238D01*
X237425895Y-50741942D01*
X237154961Y-50741942D01*
X237967761Y-50858057D02*
X238587038Y-50858057D01*
X238277400Y-51167695D02*
X238277400Y-50548419D01*
%TO.C,B-*%
X221804895Y-50741942D02*
X221921009Y-50780647D01*
X221959714Y-50819352D01*
X221998419Y-50896761D01*
X221998419Y-51012876D01*
X221959714Y-51090285D01*
X221921009Y-51128990D01*
X221843600Y-51167695D01*
X221533961Y-51167695D01*
X221533961Y-50354895D01*
X221804895Y-50354895D01*
X221882304Y-50393600D01*
X221921009Y-50432304D01*
X221959714Y-50509714D01*
X221959714Y-50587123D01*
X221921009Y-50664533D01*
X221882304Y-50703238D01*
X221804895Y-50741942D01*
X221533961Y-50741942D01*
X222346761Y-50858057D02*
X222966038Y-50858057D01*
D11*
%TO.C,U2*%
X24175047Y-55279000D02*
X24127428Y-55243285D01*
X24056000Y-55243285D01*
X23984571Y-55279000D01*
X23936952Y-55350428D01*
X23913142Y-55421857D01*
X23889333Y-55564714D01*
X23889333Y-55671857D01*
X23913142Y-55814714D01*
X23936952Y-55886142D01*
X23984571Y-55957571D01*
X24056000Y-55993285D01*
X24103619Y-55993285D01*
X24175047Y-55957571D01*
X24198857Y-55921857D01*
X24198857Y-55671857D01*
X24103619Y-55671857D01*
X24413142Y-55993285D02*
X24413142Y-55243285D01*
X24698857Y-55993285D01*
X24698857Y-55243285D01*
X24936952Y-55993285D02*
X24936952Y-55243285D01*
X25056000Y-55243285D01*
X25127428Y-55279000D01*
X25175047Y-55350428D01*
X25198857Y-55421857D01*
X25222666Y-55564714D01*
X25222666Y-55671857D01*
X25198857Y-55814714D01*
X25175047Y-55886142D01*
X25127428Y-55957571D01*
X25056000Y-55993285D01*
X24936952Y-55993285D01*
D10*
X27829571Y-48953285D02*
X27829571Y-48203285D01*
X28079571Y-48739000D01*
X28329571Y-48203285D01*
X28329571Y-48953285D01*
X28686714Y-48953285D02*
X28686714Y-48453285D01*
X28686714Y-48203285D02*
X28651000Y-48239000D01*
X28686714Y-48274714D01*
X28722428Y-48239000D01*
X28686714Y-48203285D01*
X28686714Y-48274714D01*
X29365285Y-48917571D02*
X29293857Y-48953285D01*
X29151000Y-48953285D01*
X29079571Y-48917571D01*
X29043857Y-48881857D01*
X29008142Y-48810428D01*
X29008142Y-48596142D01*
X29043857Y-48524714D01*
X29079571Y-48489000D01*
X29151000Y-48453285D01*
X29293857Y-48453285D01*
X29365285Y-48489000D01*
X29686714Y-48953285D02*
X29686714Y-48453285D01*
X29686714Y-48596142D02*
X29722428Y-48524714D01*
X29758142Y-48489000D01*
X29829571Y-48453285D01*
X29901000Y-48453285D01*
X30258142Y-48953285D02*
X30186714Y-48917571D01*
X30151000Y-48881857D01*
X30115285Y-48810428D01*
X30115285Y-48596142D01*
X30151000Y-48524714D01*
X30186714Y-48489000D01*
X30258142Y-48453285D01*
X30365285Y-48453285D01*
X30436714Y-48489000D01*
X30472428Y-48524714D01*
X30508142Y-48596142D01*
X30508142Y-48810428D01*
X30472428Y-48881857D01*
X30436714Y-48917571D01*
X30365285Y-48953285D01*
X30258142Y-48953285D01*
X30829571Y-48203285D02*
X30829571Y-48810428D01*
X30865285Y-48881857D01*
X30901000Y-48917571D01*
X30972428Y-48953285D01*
X31115285Y-48953285D01*
X31186714Y-48917571D01*
X31222428Y-48881857D01*
X31258142Y-48810428D01*
X31258142Y-48203285D01*
X31579571Y-48917571D02*
X31686714Y-48953285D01*
X31865285Y-48953285D01*
X31936714Y-48917571D01*
X31972428Y-48881857D01*
X32008142Y-48810428D01*
X32008142Y-48739000D01*
X31972428Y-48667571D01*
X31936714Y-48631857D01*
X31865285Y-48596142D01*
X31722428Y-48560428D01*
X31651000Y-48524714D01*
X31615285Y-48489000D01*
X31579571Y-48417571D01*
X31579571Y-48346142D01*
X31615285Y-48274714D01*
X31651000Y-48239000D01*
X31722428Y-48203285D01*
X31901000Y-48203285D01*
X32008142Y-48239000D01*
X32579571Y-48560428D02*
X32686714Y-48596142D01*
X32722428Y-48631857D01*
X32758142Y-48703285D01*
X32758142Y-48810428D01*
X32722428Y-48881857D01*
X32686714Y-48917571D01*
X32615285Y-48953285D01*
X32329571Y-48953285D01*
X32329571Y-48203285D01*
X32579571Y-48203285D01*
X32651000Y-48239000D01*
X32686714Y-48274714D01*
X32722428Y-48346142D01*
X32722428Y-48417571D01*
X32686714Y-48489000D01*
X32651000Y-48524714D01*
X32579571Y-48560428D01*
X32329571Y-48560428D01*
D11*
X35707047Y-57809000D02*
X35659428Y-57773285D01*
X35588000Y-57773285D01*
X35516571Y-57809000D01*
X35468952Y-57880428D01*
X35445142Y-57951857D01*
X35421333Y-58094714D01*
X35421333Y-58201857D01*
X35445142Y-58344714D01*
X35468952Y-58416142D01*
X35516571Y-58487571D01*
X35588000Y-58523285D01*
X35635619Y-58523285D01*
X35707047Y-58487571D01*
X35730857Y-58451857D01*
X35730857Y-58201857D01*
X35635619Y-58201857D01*
X35945142Y-58523285D02*
X35945142Y-57773285D01*
X36230857Y-58523285D01*
X36230857Y-57773285D01*
X36468952Y-58523285D02*
X36468952Y-57773285D01*
X36588000Y-57773285D01*
X36659428Y-57809000D01*
X36707047Y-57880428D01*
X36730857Y-57951857D01*
X36754666Y-58094714D01*
X36754666Y-58201857D01*
X36730857Y-58344714D01*
X36707047Y-58416142D01*
X36659428Y-58487571D01*
X36588000Y-58523285D01*
X36468952Y-58523285D01*
X24310761Y-53383285D02*
X24144095Y-53026142D01*
X24025047Y-53383285D02*
X24025047Y-52633285D01*
X24215523Y-52633285D01*
X24263142Y-52669000D01*
X24286952Y-52704714D01*
X24310761Y-52776142D01*
X24310761Y-52883285D01*
X24286952Y-52954714D01*
X24263142Y-52990428D01*
X24215523Y-53026142D01*
X24025047Y-53026142D01*
X24501238Y-53169000D02*
X24739333Y-53169000D01*
X24453619Y-53383285D02*
X24620285Y-52633285D01*
X24786952Y-53383285D01*
X24906000Y-52633285D02*
X25025047Y-53383285D01*
X25120285Y-52847571D01*
X25215523Y-53383285D01*
X25334571Y-52633285D01*
X35687047Y-60389000D02*
X35639428Y-60353285D01*
X35568000Y-60353285D01*
X35496571Y-60389000D01*
X35448952Y-60460428D01*
X35425142Y-60531857D01*
X35401333Y-60674714D01*
X35401333Y-60781857D01*
X35425142Y-60924714D01*
X35448952Y-60996142D01*
X35496571Y-61067571D01*
X35568000Y-61103285D01*
X35615619Y-61103285D01*
X35687047Y-61067571D01*
X35710857Y-61031857D01*
X35710857Y-60781857D01*
X35615619Y-60781857D01*
X35925142Y-61103285D02*
X35925142Y-60353285D01*
X36210857Y-61103285D01*
X36210857Y-60353285D01*
X36448952Y-61103285D02*
X36448952Y-60353285D01*
X36568000Y-60353285D01*
X36639428Y-60389000D01*
X36687047Y-60460428D01*
X36710857Y-60531857D01*
X36734666Y-60674714D01*
X36734666Y-60781857D01*
X36710857Y-60924714D01*
X36687047Y-60996142D01*
X36639428Y-61067571D01*
X36568000Y-61103285D01*
X36448952Y-61103285D01*
D12*
%TO.C,B-*%
X37654895Y-50741942D02*
X37771009Y-50780647D01*
X37809714Y-50819352D01*
X37848419Y-50896761D01*
X37848419Y-51012876D01*
X37809714Y-51090285D01*
X37771009Y-51128990D01*
X37693600Y-51167695D01*
X37383961Y-51167695D01*
X37383961Y-50354895D01*
X37654895Y-50354895D01*
X37732304Y-50393600D01*
X37771009Y-50432304D01*
X37809714Y-50509714D01*
X37809714Y-50587123D01*
X37771009Y-50664533D01*
X37732304Y-50703238D01*
X37654895Y-50741942D01*
X37383961Y-50741942D01*
X38196761Y-50858057D02*
X38816038Y-50858057D01*
%TO.C,B+*%
X22287895Y-50741942D02*
X22404009Y-50780647D01*
X22442714Y-50819352D01*
X22481419Y-50896761D01*
X22481419Y-51012876D01*
X22442714Y-51090285D01*
X22404009Y-51128990D01*
X22326600Y-51167695D01*
X22016961Y-51167695D01*
X22016961Y-50354895D01*
X22287895Y-50354895D01*
X22365304Y-50393600D01*
X22404009Y-50432304D01*
X22442714Y-50509714D01*
X22442714Y-50587123D01*
X22404009Y-50664533D01*
X22365304Y-50703238D01*
X22287895Y-50741942D01*
X22016961Y-50741942D01*
X22829761Y-50858057D02*
X23449038Y-50858057D01*
X23139400Y-51167695D02*
X23139400Y-50548419D01*
%TO.C,U1*%
X221278000Y-81264000D02*
X221278000Y-82314000D01*
X239078000Y-81314000D02*
X239078000Y-82314000D01*
X230028000Y-47164000D02*
X230328000Y-47164000D01*
X230678000Y-46714000D02*
X230178000Y-47364000D01*
X229828000Y-46864000D02*
X230528000Y-46864000D01*
X229678000Y-46714000D02*
X230678000Y-46714000D01*
X233928000Y-47664000D02*
X233928000Y-46364000D01*
X239078000Y-49264000D02*
X238128000Y-49264000D01*
X221278000Y-49264000D02*
X222278000Y-49264000D01*
X230178000Y-47364000D02*
X229678000Y-46714000D01*
X226428000Y-47664000D02*
X233928000Y-47664000D01*
X226428000Y-46364000D02*
X226428000Y-47664000D01*
X233928000Y-46364000D02*
X226428000Y-46364000D01*
X239078000Y-82314000D02*
X238068000Y-82314000D01*
X221278000Y-82314000D02*
X222278000Y-82314000D01*
X229928000Y-47014000D02*
X230428000Y-47014000D01*
X221278000Y-49264000D02*
X221278000Y-50264000D01*
X239078000Y-49264000D02*
X239078000Y-50264000D01*
%TO.C,J2*%
X236474000Y-88852000D02*
X238474000Y-88852000D01*
X236474000Y-83252000D02*
X238474000Y-83252000D01*
X224374000Y-89102000D02*
X224374000Y-83002000D01*
X238474000Y-88852000D02*
X238474000Y-83252000D01*
X236474000Y-83002000D02*
X224374000Y-83002000D01*
X236474000Y-89102000D02*
X224374000Y-89102000D01*
X236474000Y-89102000D02*
X236474000Y-83002000D01*
D13*
%TO.C,mouse-bite-2mm-slot*%
X129302000Y-48387000D02*
G75*
G03*
X131302000Y-48387000I1000000J0D01*
G01*
X131302000Y-54229000D02*
G75*
G03*
X129302000Y-54229000I-1000000J0D01*
G01*
X131302000Y-78105000D02*
G75*
G03*
X129302000Y-78105000I-1000000J0D01*
G01*
X129302000Y-72263000D02*
G75*
G03*
X131302000Y-72263000I1000000J0D01*
G01*
D10*
%TO.C,RSW1*%
X220090000Y-81658000D02*
X220090000Y-81958000D01*
X216790000Y-84458000D02*
X220090000Y-84458000D01*
X216790000Y-81658000D02*
X220090000Y-81658000D01*
X216790000Y-81958000D02*
X216790000Y-81658000D01*
X216790000Y-84158000D02*
X216790000Y-84458000D01*
X220090000Y-84458000D02*
X220090000Y-84158000D01*
D12*
%TO.C,B+*%
X236966000Y-51800000D02*
X236966000Y-49800000D01*
X234966000Y-49800000D02*
X234966000Y-51800000D01*
X236966000Y-49800000D02*
X234966000Y-49800000D01*
X234966000Y-51800000D02*
X236966000Y-51800000D01*
%TO.C,B-*%
X223282000Y-51800000D02*
X225282000Y-51800000D01*
X225282000Y-51800000D02*
X225282000Y-49800000D01*
X225282000Y-49800000D02*
X223282000Y-49800000D01*
X223282000Y-49800000D02*
X223282000Y-51800000D01*
%TO.C,U2*%
X29826000Y-46714000D02*
X30826000Y-46714000D01*
X30176000Y-47164000D02*
X30476000Y-47164000D01*
X21426000Y-49264000D02*
X21426000Y-50264000D01*
X30826000Y-46714000D02*
X30326000Y-47364000D01*
X21426000Y-49264000D02*
X22426000Y-49264000D01*
X39226000Y-49264000D02*
X39226000Y-50264000D01*
X39226000Y-49264000D02*
X38276000Y-49264000D01*
X39226000Y-82314000D02*
X38216000Y-82314000D01*
X30076000Y-47014000D02*
X30576000Y-47014000D01*
X39226000Y-81314000D02*
X39226000Y-82314000D01*
X21426000Y-81264000D02*
X21426000Y-82314000D01*
X21426000Y-82314000D02*
X22426000Y-82314000D01*
X34076000Y-47664000D02*
X34076000Y-46364000D01*
X26576000Y-46364000D02*
X26576000Y-47664000D01*
X26576000Y-47664000D02*
X34076000Y-47664000D01*
X29976000Y-46864000D02*
X30676000Y-46864000D01*
X34076000Y-46364000D02*
X26576000Y-46364000D01*
X30326000Y-47364000D02*
X29826000Y-46714000D01*
%TO.C,J1*%
X35976000Y-83002000D02*
X35976000Y-89102000D01*
X23876000Y-83002000D02*
X23876000Y-89102000D01*
X23876000Y-83002000D02*
X35976000Y-83002000D01*
X23876000Y-88852000D02*
X21876000Y-88852000D01*
X23876000Y-89102000D02*
X35976000Y-89102000D01*
X21876000Y-83252000D02*
X21876000Y-88852000D01*
X23876000Y-83252000D02*
X21876000Y-83252000D01*
%TO.C,B-*%
X35068000Y-49800000D02*
X35068000Y-51800000D01*
X35068000Y-51800000D02*
X37068000Y-51800000D01*
X37068000Y-49800000D02*
X35068000Y-49800000D01*
X37068000Y-51800000D02*
X37068000Y-49800000D01*
%TO.C,B+*%
X23638000Y-49800000D02*
X23638000Y-51800000D01*
X25638000Y-51800000D02*
X25638000Y-49800000D01*
X25638000Y-49800000D02*
X23638000Y-49800000D01*
X23638000Y-51800000D02*
X25638000Y-51800000D01*
D10*
%TO.C,RSW2*%
X40514000Y-81704000D02*
X40514000Y-81404000D01*
X43814000Y-81404000D02*
X43814000Y-81704000D01*
X40514000Y-83904000D02*
X40514000Y-84204000D01*
X40514000Y-84204000D02*
X43814000Y-84204000D01*
X40514000Y-81404000D02*
X43814000Y-81404000D01*
X43814000Y-84204000D02*
X43814000Y-83904000D01*
%TD*%
D14*
%TO.C,U1*%
X237789400Y-53086000D03*
X237789400Y-55626000D03*
X237789400Y-58166000D03*
X237789400Y-60706000D03*
X237789400Y-63246000D03*
X237789400Y-65786000D03*
X237789400Y-68326000D03*
X237789400Y-70866000D03*
X237789400Y-73406000D03*
X237789400Y-75946000D03*
X237789400Y-78486000D03*
X237789400Y-81026000D03*
X222569400Y-81026000D03*
X222569400Y-78486000D03*
X222569400Y-75946000D03*
X222569400Y-73406000D03*
X222569400Y-70866000D03*
X222569400Y-68326000D03*
X222569400Y-65786000D03*
X222569400Y-63246000D03*
X222569400Y-60706000D03*
X222569400Y-58166000D03*
X222569400Y-55626000D03*
X222569400Y-53086000D03*
%TD*%
D15*
%TO.C,B+*%
X235966000Y-50800000D03*
%TD*%
%TO.C,B-*%
X224282000Y-50800000D03*
%TD*%
D14*
%TO.C,U2*%
X37937400Y-53086000D03*
X37937400Y-55626000D03*
X37937400Y-58166000D03*
X37937400Y-60706000D03*
X37937400Y-63246000D03*
X37937400Y-65786000D03*
X37937400Y-68326000D03*
X37937400Y-70866000D03*
X37937400Y-73406000D03*
X37937400Y-75946000D03*
X37937400Y-78486000D03*
X37937400Y-81026000D03*
X22717400Y-81026000D03*
X22717400Y-78486000D03*
X22717400Y-75946000D03*
X22717400Y-73406000D03*
X22717400Y-70866000D03*
X22717400Y-68326000D03*
X22717400Y-65786000D03*
X22717400Y-63246000D03*
X22717400Y-60706000D03*
X22717400Y-58166000D03*
X22717400Y-55626000D03*
X22717400Y-53086000D03*
%TD*%
D15*
%TO.C,B-*%
X36068000Y-50800000D03*
%TD*%
%TO.C,B+*%
X24638000Y-50800000D03*
%TD*%
%LPC*%
%TO.C,G\u002A\u002A\u002A*%
G36*
X78430442Y-77621731D02*
G01*
X78404889Y-77647284D01*
X78379336Y-77621731D01*
X78404889Y-77596177D01*
X78430442Y-77621731D01*
G37*
G36*
X97904168Y-89073276D02*
G01*
X97903094Y-89080714D01*
X97877667Y-89260968D01*
X97859326Y-89398663D01*
X97851978Y-89464516D01*
X97814913Y-89514295D01*
X97723944Y-89584896D01*
X97723658Y-89585083D01*
X97659231Y-89622035D01*
X97599887Y-89630225D01*
X97523954Y-89601458D01*
X97409755Y-89527541D01*
X97235619Y-89400279D01*
X97222921Y-89390837D01*
X97030277Y-89236759D01*
X96924902Y-89126336D01*
X96903563Y-89056218D01*
X96907660Y-89044146D01*
X96899017Y-88941750D01*
X96828199Y-88880205D01*
X96727686Y-88890174D01*
X96679480Y-88902295D01*
X96578991Y-88868494D01*
X96501052Y-88784098D01*
X96481731Y-88679938D01*
X96482578Y-88674752D01*
X96443440Y-88621548D01*
X96308538Y-88594008D01*
X96187770Y-88576241D01*
X96135303Y-88533677D01*
X96129665Y-88443033D01*
X96131006Y-88403658D01*
X96103992Y-88323629D01*
X96006888Y-88296305D01*
X95874883Y-88284901D01*
X95871346Y-88334944D01*
X95820067Y-89060560D01*
X95793264Y-89394695D01*
X95761014Y-89675610D01*
X95718413Y-89922021D01*
X95659442Y-90168469D01*
X95578083Y-90449497D01*
X95471474Y-90785435D01*
X95356534Y-91106351D01*
X95251034Y-91346120D01*
X95149521Y-91515231D01*
X95046545Y-91624171D01*
X94936653Y-91683430D01*
X94914988Y-91690163D01*
X94782958Y-91715320D01*
X94695252Y-91707020D01*
X94685493Y-91698155D01*
X94625955Y-91618050D01*
X94526662Y-91467584D01*
X94396142Y-91260217D01*
X94242918Y-91009409D01*
X94075516Y-90728620D01*
X94000700Y-90601317D01*
X93831510Y-90309278D01*
X93709365Y-90089775D01*
X93629198Y-89932372D01*
X93585940Y-89826628D01*
X93574524Y-89762107D01*
X93589882Y-89728370D01*
X93605457Y-89714758D01*
X93659993Y-89619369D01*
X93635272Y-89538282D01*
X93538712Y-89504024D01*
X93474294Y-89496443D01*
X93370441Y-89445004D01*
X93319865Y-89366671D01*
X93345526Y-89287211D01*
X93397027Y-89208446D01*
X93388075Y-89128445D01*
X93305014Y-89095171D01*
X93211959Y-89065103D01*
X93140564Y-88966453D01*
X93136245Y-88832379D01*
X93138150Y-88768833D01*
X93074660Y-88737425D01*
X93060689Y-88735635D01*
X92980654Y-88672242D01*
X92902603Y-88533518D01*
X92878751Y-88478959D01*
X92824695Y-88371883D01*
X92791107Y-88329091D01*
X92787724Y-88330069D01*
X92748069Y-88382535D01*
X92693597Y-88490454D01*
X92629376Y-88613083D01*
X92527339Y-88783537D01*
X92410419Y-88963191D01*
X92298611Y-89133689D01*
X92145922Y-89380025D01*
X92014005Y-89606238D01*
X91976010Y-89672072D01*
X91840963Y-89886835D01*
X91678990Y-90125421D01*
X91517268Y-90347284D01*
X91450553Y-90435424D01*
X91291026Y-90650690D01*
X91144232Y-90854267D01*
X91035194Y-91011670D01*
X90947767Y-91135535D01*
X90791262Y-91338670D01*
X90636409Y-91522737D01*
X90529693Y-91647121D01*
X90370672Y-91846402D01*
X90240194Y-92024885D01*
X90166523Y-92123323D01*
X90032278Y-92270534D01*
X89911549Y-92369664D01*
X89804979Y-92425477D01*
X89615286Y-92466525D01*
X89460234Y-92411409D01*
X89339820Y-92260128D01*
X89310399Y-92180054D01*
X89276412Y-91961894D01*
X89265050Y-91645899D01*
X89265112Y-91605440D01*
X89269533Y-91386501D01*
X89283444Y-91245298D01*
X89310364Y-91160645D01*
X89353808Y-91111357D01*
X89404556Y-91068185D01*
X89408175Y-91018201D01*
X89342347Y-90935714D01*
X89277160Y-90855684D01*
X89281475Y-90802542D01*
X89362932Y-90733851D01*
X89393654Y-90710471D01*
X89450978Y-90652794D01*
X89447807Y-90590194D01*
X89388308Y-90481180D01*
X89356558Y-90423756D01*
X89322757Y-90315300D01*
X89350373Y-90227571D01*
X89353856Y-90219517D01*
X89684427Y-90219517D01*
X89686898Y-90428185D01*
X89694221Y-90659269D01*
X89705103Y-90842806D01*
X89718280Y-90951465D01*
X89750563Y-91095686D01*
X89974613Y-90944950D01*
X90032337Y-90904487D01*
X90288476Y-90695049D01*
X90561207Y-90432595D01*
X90822589Y-90145408D01*
X91044682Y-89861771D01*
X91195251Y-89654342D01*
X91376046Y-89412950D01*
X91542523Y-89197385D01*
X91702708Y-88988021D01*
X91874551Y-88753048D01*
X92018954Y-88545775D01*
X92137431Y-88384685D01*
X92246744Y-88268653D01*
X92323131Y-88226358D01*
X92398382Y-88209321D01*
X92493659Y-88146586D01*
X92535875Y-88069814D01*
X92496837Y-88050524D01*
X92381012Y-88028408D01*
X92215257Y-88010190D01*
X92093074Y-87994657D01*
X91810080Y-87929093D01*
X91528363Y-87830561D01*
X91162086Y-87676668D01*
X91044051Y-87803419D01*
X91004524Y-87841912D01*
X90878399Y-87950185D01*
X90707495Y-88086425D01*
X90517163Y-88230104D01*
X90410590Y-88308903D01*
X90237711Y-88439446D01*
X90102429Y-88545024D01*
X90027362Y-88608178D01*
X89968889Y-88653753D01*
X89886819Y-88686318D01*
X89836463Y-88704361D01*
X89845880Y-88778294D01*
X89935263Y-88912097D01*
X89948086Y-88928774D01*
X90007844Y-89039580D01*
X89979536Y-89101480D01*
X89860935Y-89120725D01*
X89840978Y-89121431D01*
X89780373Y-89145520D01*
X89743610Y-89222207D01*
X89716710Y-89376258D01*
X89706170Y-89486214D01*
X89694490Y-89698516D01*
X89686812Y-89954186D01*
X89684427Y-90219517D01*
X89353856Y-90219517D01*
X89365439Y-90192733D01*
X89386833Y-90056798D01*
X89383535Y-89883650D01*
X89379966Y-89847370D01*
X89357028Y-89658517D01*
X89331818Y-89554843D01*
X89298607Y-89521600D01*
X89251669Y-89544039D01*
X89221670Y-89565259D01*
X89076896Y-89640676D01*
X88864025Y-89730092D01*
X88606001Y-89824901D01*
X88325767Y-89916493D01*
X88046266Y-89996263D01*
X87851514Y-90046196D01*
X87493512Y-90130187D01*
X87190099Y-90187641D01*
X86912780Y-90223530D01*
X86633058Y-90242826D01*
X86451001Y-90254151D01*
X86191700Y-90278263D01*
X85968672Y-90307060D01*
X85843559Y-90321318D01*
X85590986Y-90335117D01*
X85275557Y-90340867D01*
X84920396Y-90338781D01*
X84548625Y-90329069D01*
X84183367Y-90311945D01*
X83847746Y-90287619D01*
X83783871Y-90282181D01*
X83573736Y-90267627D01*
X83400449Y-90260410D01*
X83296430Y-90262033D01*
X83238382Y-90264623D01*
X83045483Y-90247451D01*
X82813972Y-90203551D01*
X82583707Y-90141427D01*
X82394546Y-90069585D01*
X82290914Y-90025211D01*
X82087615Y-89951560D01*
X81880141Y-89888416D01*
X81753475Y-89854336D01*
X81509343Y-89788438D01*
X81292414Y-89729657D01*
X81185807Y-89699125D01*
X80971442Y-89631671D01*
X80739294Y-89552973D01*
X80512416Y-89471422D01*
X80313865Y-89395405D01*
X80166696Y-89333315D01*
X80093963Y-89293540D01*
X80077286Y-89280627D01*
X79979855Y-89248491D01*
X79917334Y-89234429D01*
X79770451Y-89178827D01*
X79565775Y-89089172D01*
X79321125Y-88974278D01*
X79054321Y-88842956D01*
X78783183Y-88704021D01*
X78525530Y-88566284D01*
X78299183Y-88438559D01*
X78121962Y-88329658D01*
X77977988Y-88237185D01*
X77843923Y-88155701D01*
X77764215Y-88112894D01*
X77763851Y-88112743D01*
X77693885Y-88066655D01*
X77564042Y-87966542D01*
X77390720Y-87826078D01*
X77190318Y-87658936D01*
X76979233Y-87478792D01*
X76773862Y-87299320D01*
X76590603Y-87134194D01*
X76401105Y-86962806D01*
X76205892Y-86791310D01*
X76022354Y-86634446D01*
X75866519Y-86505701D01*
X75754416Y-86418563D01*
X75702074Y-86386519D01*
X75673307Y-86393392D01*
X75672176Y-86440315D01*
X75734095Y-86514369D01*
X75844993Y-86595025D01*
X75908048Y-86634711D01*
X76024345Y-86740998D01*
X76045368Y-86842896D01*
X75974993Y-86951023D01*
X75966125Y-86959737D01*
X75870769Y-87021511D01*
X75777593Y-87002312D01*
X75733766Y-86960468D01*
X75647415Y-86838180D01*
X75541216Y-86660943D01*
X75427190Y-86451128D01*
X75317356Y-86231103D01*
X75223735Y-86023237D01*
X75158346Y-85849900D01*
X75156387Y-85843821D01*
X75087599Y-85680460D01*
X74997908Y-85527708D01*
X74906431Y-85413861D01*
X74832280Y-85367214D01*
X74824767Y-85391915D01*
X74874717Y-85462385D01*
X74926586Y-85550390D01*
X74946521Y-85679589D01*
X74919487Y-85748610D01*
X74815057Y-85809736D01*
X74643896Y-85808547D01*
X74415692Y-85743870D01*
X74338785Y-85716952D01*
X74216546Y-85686207D01*
X74154289Y-85688293D01*
X74152457Y-85703469D01*
X74207374Y-85750744D01*
X74318963Y-85808602D01*
X74458983Y-85865019D01*
X74599189Y-85907972D01*
X74711339Y-85925437D01*
X74794365Y-85930502D01*
X74824886Y-85965108D01*
X74790124Y-86059698D01*
X74752772Y-86128601D01*
X74698457Y-86168938D01*
X74601934Y-86180109D01*
X74433473Y-86171427D01*
X74303238Y-86166091D01*
X74183625Y-86171878D01*
X74137485Y-86189810D01*
X74151505Y-86223467D01*
X74234116Y-86280861D01*
X74355702Y-86318962D01*
X74475405Y-86321810D01*
X74555086Y-86316889D01*
X74597444Y-86340721D01*
X74561302Y-86417151D01*
X74465469Y-86534386D01*
X74331766Y-86669747D01*
X74182015Y-86801159D01*
X74038042Y-86906546D01*
X73949580Y-86960432D01*
X73779410Y-87039252D01*
X73659363Y-87042121D01*
X73573393Y-86966075D01*
X73505452Y-86808149D01*
X73463429Y-86665598D01*
X73416976Y-86453928D01*
X73385313Y-86215084D01*
X73365426Y-85924106D01*
X73354302Y-85556036D01*
X73352797Y-85482559D01*
X73349487Y-85249348D01*
X73362465Y-85102783D01*
X73407703Y-85030467D01*
X73501171Y-85020005D01*
X73658838Y-85059000D01*
X73896675Y-85135059D01*
X74106697Y-85200840D01*
X74257439Y-85242912D01*
X74344083Y-85256906D01*
X74383615Y-85245424D01*
X74393018Y-85211067D01*
X74385890Y-85189001D01*
X74320739Y-85159960D01*
X74255268Y-85147729D01*
X74104692Y-85102544D01*
X73896213Y-85031292D01*
X73649897Y-84941631D01*
X73385815Y-84841221D01*
X73124033Y-84737723D01*
X73041235Y-84703510D01*
X75442873Y-84703510D01*
X75475069Y-84739999D01*
X75540515Y-84731277D01*
X75611374Y-84620936D01*
X75631417Y-84571712D01*
X75664970Y-84437727D01*
X75664765Y-84333263D01*
X75629043Y-84291147D01*
X75598238Y-84310691D01*
X75539772Y-84397008D01*
X75482687Y-84517170D01*
X75444537Y-84632298D01*
X75442873Y-84703510D01*
X73041235Y-84703510D01*
X72884621Y-84638796D01*
X72687647Y-84552101D01*
X72553179Y-84485296D01*
X72529896Y-84471998D01*
X72304466Y-84329744D01*
X72038103Y-84143807D01*
X71761356Y-83936935D01*
X71504772Y-83731873D01*
X71298898Y-83551367D01*
X71210218Y-83470305D01*
X71119614Y-83408265D01*
X71037915Y-83398054D01*
X70928211Y-83427321D01*
X70910581Y-83432563D01*
X70743273Y-83457731D01*
X70494877Y-83467615D01*
X70182797Y-83461419D01*
X69755514Y-83423021D01*
X69351630Y-83332834D01*
X68972806Y-83181017D01*
X68583167Y-82956240D01*
X68455241Y-82867555D01*
X68072145Y-82533802D01*
X67735458Y-82137334D01*
X67463637Y-81702195D01*
X67275138Y-81252424D01*
X67225339Y-81046282D01*
X67188278Y-80799106D01*
X67165092Y-80535471D01*
X67156556Y-80278800D01*
X67161701Y-80109783D01*
X67489052Y-80109783D01*
X67495476Y-80240036D01*
X67560131Y-80452260D01*
X67682713Y-80745510D01*
X67862916Y-81118843D01*
X67951592Y-81290528D01*
X68137754Y-81620924D01*
X68304745Y-81868924D01*
X68460222Y-82045178D01*
X68611842Y-82160334D01*
X68674855Y-82192404D01*
X68756564Y-82209953D01*
X68765829Y-82172343D01*
X68690641Y-82090253D01*
X68674340Y-82074803D01*
X68598823Y-81973986D01*
X68514904Y-81831220D01*
X68438772Y-81678311D01*
X68386613Y-81547067D01*
X68374615Y-81469294D01*
X68414793Y-81475536D01*
X68503070Y-81543937D01*
X68620282Y-81659717D01*
X68745407Y-81793390D01*
X68991085Y-82049982D01*
X69186917Y-82243790D01*
X69344308Y-82385335D01*
X69474663Y-82485139D01*
X69589387Y-82553722D01*
X69658807Y-82587056D01*
X69772969Y-82630954D01*
X69829749Y-82636441D01*
X69829541Y-82627369D01*
X69783147Y-82562950D01*
X69682059Y-82454422D01*
X69542146Y-82319283D01*
X69487708Y-82268328D01*
X69358657Y-82142206D01*
X69272973Y-82050307D01*
X69246949Y-82009718D01*
X69297576Y-82002109D01*
X69419444Y-82043011D01*
X69590060Y-82131716D01*
X69792261Y-82259072D01*
X70008880Y-82415929D01*
X70403214Y-82720675D01*
X70903247Y-82694636D01*
X71033666Y-82687338D01*
X71240310Y-82673556D01*
X71397913Y-82660212D01*
X71479939Y-82649390D01*
X71511294Y-82647579D01*
X71543382Y-82692757D01*
X71545776Y-82818159D01*
X71546276Y-82922405D01*
X71575870Y-83002370D01*
X71654393Y-83079321D01*
X71801309Y-83180885D01*
X71925544Y-83260468D01*
X72467325Y-83565822D01*
X73067798Y-83838792D01*
X73748345Y-84089354D01*
X73894352Y-84137887D01*
X74155568Y-84222892D01*
X74341389Y-84278881D01*
X74466419Y-84308946D01*
X74545261Y-84316179D01*
X74592518Y-84303672D01*
X74622792Y-84274517D01*
X74688389Y-84203155D01*
X74735367Y-84208643D01*
X74750764Y-84311233D01*
X74755089Y-84353144D01*
X74823138Y-84456810D01*
X74957437Y-84495574D01*
X74976423Y-84484737D01*
X75034476Y-84406789D01*
X75102271Y-84278370D01*
X75202111Y-84061167D01*
X75206418Y-84229802D01*
X75188407Y-84384990D01*
X75132752Y-84549218D01*
X75124209Y-84566350D01*
X75091085Y-84661278D01*
X75103718Y-84700000D01*
X75106763Y-84699860D01*
X75177122Y-84650997D01*
X75264344Y-84532240D01*
X75355204Y-84369755D01*
X75436476Y-84189707D01*
X75494938Y-84018260D01*
X75517364Y-83881580D01*
X75485377Y-83796455D01*
X75381276Y-83684955D01*
X75232954Y-83580700D01*
X75069506Y-83503569D01*
X74920027Y-83473441D01*
X74869696Y-83470867D01*
X74687051Y-83444533D01*
X74438020Y-83394205D01*
X74144459Y-83325428D01*
X73828224Y-83243746D01*
X73561498Y-83168837D01*
X75180142Y-83168837D01*
X75210518Y-83229606D01*
X75283359Y-83267484D01*
X75420085Y-83340282D01*
X75612088Y-83523514D01*
X75763409Y-83770644D01*
X75801167Y-83881580D01*
X75861715Y-84059475D01*
X75894675Y-84367807D01*
X75893024Y-84429424D01*
X75892228Y-84437727D01*
X75868523Y-84685143D01*
X75820632Y-84918671D01*
X75756073Y-85103351D01*
X75681573Y-85212526D01*
X75640020Y-85247371D01*
X75607666Y-85296533D01*
X75629575Y-85359781D01*
X75709382Y-85470880D01*
X75726761Y-85493766D01*
X75987612Y-85799559D01*
X76289927Y-86099506D01*
X76590603Y-86350579D01*
X76736142Y-86461593D01*
X76857474Y-86559465D01*
X76922796Y-86618841D01*
X76941629Y-86639183D01*
X77062771Y-86748231D01*
X77248624Y-86897298D01*
X77482258Y-87074358D01*
X77746749Y-87267390D01*
X78025167Y-87464370D01*
X78300586Y-87653276D01*
X78556078Y-87822083D01*
X78774717Y-87958769D01*
X78939574Y-88051312D01*
X78952055Y-88057572D01*
X79326240Y-88237428D01*
X79697595Y-88402092D01*
X80048729Y-88544832D01*
X80362252Y-88658916D01*
X80620773Y-88737612D01*
X80806901Y-88774187D01*
X80942434Y-88791318D01*
X81121307Y-88827368D01*
X81244261Y-88868368D01*
X81355913Y-88919027D01*
X81546628Y-88993425D01*
X81760778Y-89068139D01*
X81968823Y-89133490D01*
X82141223Y-89179798D01*
X82248438Y-89197385D01*
X82267265Y-89198173D01*
X82404095Y-89224597D01*
X82558945Y-89276854D01*
X82630504Y-89300010D01*
X82809694Y-89338641D01*
X83038806Y-89373812D01*
X83285573Y-89400054D01*
X83448792Y-89414051D01*
X83664742Y-89434825D01*
X83832183Y-89453628D01*
X83924406Y-89467634D01*
X83925727Y-89467931D01*
X84017339Y-89478724D01*
X84199661Y-89492184D01*
X84461600Y-89507738D01*
X84792063Y-89524810D01*
X85179956Y-89542828D01*
X85614187Y-89561217D01*
X86083662Y-89579402D01*
X86152940Y-89581566D01*
X86332843Y-89582897D01*
X86458217Y-89577310D01*
X86505291Y-89565582D01*
X86480535Y-89522342D01*
X86405332Y-89421920D01*
X86297290Y-89289479D01*
X86236128Y-89213028D01*
X86132077Y-89047415D01*
X86103049Y-88928443D01*
X86096184Y-88826898D01*
X86049248Y-88690740D01*
X86005271Y-88552313D01*
X85993131Y-88332193D01*
X86007955Y-88200097D01*
X86372688Y-88200097D01*
X86388055Y-88359768D01*
X86470247Y-88470984D01*
X86484210Y-88479996D01*
X86580661Y-88519839D01*
X86720451Y-88562619D01*
X86868551Y-88599383D01*
X86989930Y-88621176D01*
X87049558Y-88619047D01*
X87049759Y-88618836D01*
X87047846Y-88561060D01*
X87014953Y-88452644D01*
X87008224Y-88433287D01*
X86986208Y-88309394D01*
X86990671Y-88190323D01*
X87017373Y-88108227D01*
X87062074Y-88095261D01*
X87068613Y-88101094D01*
X87104729Y-88179670D01*
X87135212Y-88309106D01*
X87136815Y-88318312D01*
X87192247Y-88481788D01*
X87278776Y-88616987D01*
X87363029Y-88694935D01*
X87457291Y-88738723D01*
X87506755Y-88696986D01*
X87503523Y-88571328D01*
X87487206Y-88472146D01*
X87497135Y-88445443D01*
X87542814Y-88493830D01*
X87556984Y-88510478D01*
X87599893Y-88538677D01*
X87656500Y-88523985D01*
X87746651Y-88456932D01*
X87890192Y-88328047D01*
X87908601Y-88311148D01*
X88044168Y-88190813D01*
X88147799Y-88105717D01*
X88198329Y-88073353D01*
X88226624Y-88085967D01*
X88294024Y-88149698D01*
X88349521Y-88186392D01*
X88495080Y-88218104D01*
X88687085Y-88221197D01*
X88894472Y-88195948D01*
X89086177Y-88142634D01*
X89193993Y-88107425D01*
X89398205Y-88057033D01*
X89608897Y-88019224D01*
X89680588Y-88007549D01*
X89906048Y-87943945D01*
X90132349Y-87832786D01*
X90379687Y-87662691D01*
X90668256Y-87422281D01*
X90912917Y-87205930D01*
X90825663Y-87022054D01*
X90809507Y-86985443D01*
X90776068Y-86874250D01*
X90774706Y-86802293D01*
X90801923Y-86789797D01*
X90854219Y-86856985D01*
X90861447Y-86869686D01*
X91054930Y-87116990D01*
X91310978Y-87318314D01*
X91607067Y-87465031D01*
X91920670Y-87548514D01*
X92229263Y-87560136D01*
X92510322Y-87491269D01*
X92518223Y-87487843D01*
X92576421Y-87458501D01*
X92582376Y-87438205D01*
X92523618Y-87423627D01*
X92387677Y-87411439D01*
X92162081Y-87398311D01*
X92039339Y-87390781D01*
X91799253Y-87367857D01*
X91654724Y-87340695D01*
X91607048Y-87311373D01*
X91657516Y-87281970D01*
X91807425Y-87254565D01*
X92058067Y-87231236D01*
X92362383Y-87203100D01*
X92771792Y-87131788D01*
X93106073Y-87023151D01*
X93379225Y-86872143D01*
X93605246Y-86673721D01*
X93672588Y-86599499D01*
X93700151Y-86556849D01*
X93668228Y-86554066D01*
X93565121Y-86590781D01*
X93379134Y-86666630D01*
X93243232Y-86720249D01*
X93080821Y-86774778D01*
X92989062Y-86791560D01*
X92975667Y-86769632D01*
X93048346Y-86708027D01*
X93150562Y-86632249D01*
X93244364Y-86552585D01*
X93299659Y-86507097D01*
X93423704Y-86417915D01*
X93576557Y-86316197D01*
X93695496Y-86236534D01*
X93824494Y-86141211D01*
X93897664Y-86075563D01*
X93936480Y-86009277D01*
X93983349Y-85890511D01*
X94020096Y-85763106D01*
X94037125Y-85661447D01*
X94024839Y-85619920D01*
X94005917Y-85624361D01*
X93908142Y-85658355D01*
X93750493Y-85718550D01*
X93556222Y-85796202D01*
X93374902Y-85867001D01*
X93040094Y-85983541D01*
X92709954Y-86082347D01*
X92402437Y-86159151D01*
X92135500Y-86209683D01*
X91927099Y-86229674D01*
X91795190Y-86214857D01*
X91791894Y-86213559D01*
X91741729Y-86173283D01*
X91725615Y-86089564D01*
X91737798Y-85934276D01*
X91770099Y-85737870D01*
X91868340Y-85350225D01*
X92009270Y-84931879D01*
X92180443Y-84514807D01*
X92369414Y-84130984D01*
X92563737Y-83812383D01*
X92611989Y-83729503D01*
X92624574Y-83630345D01*
X92558062Y-83580922D01*
X92419283Y-83582051D01*
X92215061Y-83634549D01*
X91952225Y-83739232D01*
X91737481Y-83843839D01*
X91326557Y-84101887D01*
X91003574Y-84400022D01*
X90761779Y-84745231D01*
X90594420Y-85144503D01*
X90569492Y-85232409D01*
X90553683Y-85317032D01*
X90510718Y-85547022D01*
X90492693Y-85861238D01*
X90515775Y-86144101D01*
X90580321Y-86364655D01*
X90669032Y-86550685D01*
X90516623Y-86672211D01*
X90410653Y-86745796D01*
X90236739Y-86849530D01*
X90047943Y-86949438D01*
X89898951Y-87019009D01*
X89767877Y-87065340D01*
X89629529Y-87091045D01*
X89452279Y-87101908D01*
X89204497Y-87103716D01*
X89064152Y-87101758D01*
X88821264Y-87091550D01*
X88612901Y-87074705D01*
X88472897Y-87053544D01*
X88404888Y-87039156D01*
X88264943Y-87033694D01*
X88153481Y-87080135D01*
X88073930Y-87118481D01*
X88038491Y-87106207D01*
X88040619Y-87090957D01*
X88090431Y-87024837D01*
X88107473Y-87012239D01*
X88120585Y-86959014D01*
X88056048Y-86915561D01*
X87933261Y-86897586D01*
X87827297Y-86882637D01*
X87782957Y-86846479D01*
X87739960Y-86810610D01*
X87634374Y-86795372D01*
X87622094Y-86795614D01*
X87516473Y-86822158D01*
X87400820Y-86903464D01*
X87252338Y-87055027D01*
X87152853Y-87172479D01*
X87035112Y-87349749D01*
X86957032Y-87541672D01*
X86908037Y-87777333D01*
X86877554Y-88085815D01*
X86870695Y-88173011D01*
X86846082Y-88367470D01*
X86815748Y-88465992D01*
X86780696Y-88466495D01*
X86741930Y-88366902D01*
X86719538Y-88233464D01*
X86722567Y-87964193D01*
X86770097Y-87673767D01*
X86854435Y-87402254D01*
X86967891Y-87189725D01*
X86982947Y-87168777D01*
X87041008Y-87070776D01*
X87051583Y-87017988D01*
X87046051Y-87014008D01*
X86986256Y-87036405D01*
X86894583Y-87132033D01*
X86782835Y-87284984D01*
X86662811Y-87479346D01*
X86546312Y-87699212D01*
X86545916Y-87700023D01*
X86425018Y-87983129D01*
X86372688Y-88200097D01*
X86007955Y-88200097D01*
X86020880Y-88084922D01*
X86084247Y-87844909D01*
X86178955Y-87646561D01*
X86348290Y-87413289D01*
X86642671Y-87084465D01*
X86964445Y-86798805D01*
X87285153Y-86583656D01*
X87501254Y-86474133D01*
X87699222Y-86405320D01*
X87847003Y-86403720D01*
X87959506Y-86469724D01*
X88051641Y-86603723D01*
X88130628Y-86724558D01*
X88229497Y-86790964D01*
X88319389Y-86759402D01*
X88332771Y-86735548D01*
X88772073Y-86735548D01*
X88778593Y-86789476D01*
X88836610Y-86777470D01*
X88926388Y-86700307D01*
X88934623Y-86690984D01*
X88957269Y-86646629D01*
X89177197Y-86646629D01*
X89219205Y-86697493D01*
X89223050Y-86699897D01*
X89343258Y-86739871D01*
X89476228Y-86706413D01*
X89644434Y-86594058D01*
X89771455Y-86487238D01*
X89966481Y-86278111D01*
X90090021Y-86054822D01*
X90154870Y-85789856D01*
X90173823Y-85455699D01*
X90173923Y-85317032D01*
X89951558Y-85481253D01*
X89877908Y-85535551D01*
X89704497Y-85662873D01*
X89557747Y-85770005D01*
X89520632Y-85798538D01*
X89429542Y-85891382D01*
X89354158Y-86016750D01*
X89282806Y-86197257D01*
X89203807Y-86455519D01*
X89179170Y-86554783D01*
X89178357Y-86592629D01*
X89177197Y-86646629D01*
X88957269Y-86646629D01*
X88984839Y-86592629D01*
X88961128Y-86470327D01*
X88939763Y-86420580D01*
X88881791Y-86344629D01*
X88837887Y-86363271D01*
X88821672Y-86475956D01*
X88813531Y-86586605D01*
X88783316Y-86705936D01*
X88772073Y-86735548D01*
X88332771Y-86735548D01*
X88392389Y-86629276D01*
X88476436Y-86440237D01*
X88641679Y-86186103D01*
X88841542Y-85964354D01*
X89048854Y-85808944D01*
X89081420Y-85790361D01*
X89250641Y-85681737D01*
X89451881Y-85539098D01*
X89648350Y-85388261D01*
X89712299Y-85337320D01*
X89886784Y-85203251D01*
X90036256Y-85095000D01*
X90133863Y-85032259D01*
X90159405Y-85015028D01*
X90259195Y-84917022D01*
X90383717Y-84765439D01*
X90511956Y-84585132D01*
X90549811Y-84529472D01*
X90691550Y-84343098D01*
X90832260Y-84186011D01*
X90946363Y-84087511D01*
X90974512Y-84069327D01*
X91131476Y-83966583D01*
X91265439Y-83877078D01*
X91410792Y-83790869D01*
X91657483Y-83671869D01*
X91941488Y-83555158D01*
X92231168Y-83452625D01*
X92494886Y-83376158D01*
X92701004Y-83337645D01*
X92721004Y-83335789D01*
X92890609Y-83323483D01*
X92988676Y-83330477D01*
X93042656Y-83363368D01*
X93080001Y-83428757D01*
X93084344Y-83438497D01*
X93106059Y-83501464D01*
X93116401Y-83577898D01*
X93114306Y-83685276D01*
X93098708Y-83841070D01*
X93068542Y-84062756D01*
X93022742Y-84367807D01*
X93015929Y-84412805D01*
X92977133Y-84689119D01*
X92944167Y-84956585D01*
X92918820Y-85196747D01*
X92902880Y-85391145D01*
X92898136Y-85521320D01*
X92906375Y-85568813D01*
X92934395Y-85559161D01*
X93043143Y-85515497D01*
X93218315Y-85442717D01*
X93443826Y-85347524D01*
X93703591Y-85236620D01*
X93881663Y-85161315D01*
X94132328Y-85059267D01*
X94343877Y-84977840D01*
X94498183Y-84923929D01*
X94577119Y-84904427D01*
X94661863Y-84932388D01*
X94756116Y-85018012D01*
X94781180Y-85067621D01*
X94818829Y-85233391D01*
X94834790Y-85456827D01*
X94830204Y-85661447D01*
X94829134Y-85709175D01*
X94801930Y-85961682D01*
X94753251Y-86185594D01*
X94639161Y-86466877D01*
X94450121Y-86790735D01*
X94213049Y-87109348D01*
X93949304Y-87394228D01*
X93680241Y-87616886D01*
X93594335Y-87679716D01*
X93494636Y-87765964D01*
X93455794Y-87819960D01*
X93460404Y-87837684D01*
X93524590Y-87867481D01*
X93638571Y-87861947D01*
X93769204Y-87825526D01*
X93883348Y-87762659D01*
X93889633Y-87757798D01*
X94005205Y-87691337D01*
X94097923Y-87673222D01*
X94097940Y-87673226D01*
X94131799Y-87701579D01*
X94176403Y-87779139D01*
X94234247Y-87912911D01*
X94292854Y-88069814D01*
X94307827Y-88109900D01*
X94399639Y-88377110D01*
X94512179Y-88721547D01*
X94647944Y-89150216D01*
X94809428Y-89670121D01*
X94814386Y-89686149D01*
X94888048Y-89913716D01*
X94954041Y-90099491D01*
X95005322Y-90224714D01*
X95034851Y-90270624D01*
X95074124Y-90228485D01*
X95128194Y-90086617D01*
X95193379Y-89846165D01*
X95269208Y-89508656D01*
X95317373Y-89195480D01*
X95346334Y-88785994D01*
X95350889Y-88334944D01*
X95332572Y-87866102D01*
X95292918Y-87403242D01*
X95233463Y-86970139D01*
X95155741Y-86590565D01*
X95061287Y-86288295D01*
X95023145Y-86173624D01*
X94998634Y-86027888D01*
X94992973Y-85840126D01*
X95003756Y-85580727D01*
X95012997Y-85344470D01*
X95001215Y-85096530D01*
X94954388Y-84926098D01*
X94865167Y-84820298D01*
X94726204Y-84766259D01*
X94530148Y-84751107D01*
X94399971Y-84737990D01*
X94289887Y-84681450D01*
X94168386Y-84559457D01*
X94050523Y-84433082D01*
X93846178Y-84267744D01*
X93658587Y-84196574D01*
X93479077Y-84217260D01*
X93298975Y-84327487D01*
X93134314Y-84466041D01*
X93171599Y-84217408D01*
X93171973Y-84214895D01*
X93192822Y-84034728D01*
X93200355Y-83942722D01*
X93631453Y-83942722D01*
X93675105Y-83973146D01*
X93798505Y-83984507D01*
X94045503Y-84028664D01*
X94313305Y-84162004D01*
X94580429Y-84373144D01*
X94836351Y-84650605D01*
X95070548Y-84982907D01*
X95272498Y-85358571D01*
X95431676Y-85766118D01*
X95440900Y-85794744D01*
X95514023Y-85997184D01*
X95593346Y-86148415D01*
X95703372Y-86286835D01*
X95868602Y-86450844D01*
X95923533Y-86502274D01*
X96057273Y-86623863D01*
X96153044Y-86705574D01*
X96192984Y-86731931D01*
X96192450Y-86726579D01*
X96163808Y-86655002D01*
X96099700Y-86513949D01*
X96007994Y-86320418D01*
X95896554Y-86091406D01*
X95862902Y-86022506D01*
X95758095Y-85800013D01*
X95677303Y-85616160D01*
X95627958Y-85488440D01*
X95617489Y-85434348D01*
X95633902Y-85446874D01*
X95690529Y-85532802D01*
X95778202Y-85686404D01*
X95888714Y-85893101D01*
X96013857Y-86138315D01*
X96069381Y-86247795D01*
X96220796Y-86532978D01*
X96373923Y-86805065D01*
X96513617Y-87037624D01*
X96624730Y-87204226D01*
X96730323Y-87357084D01*
X96879314Y-87590450D01*
X97037595Y-87852883D01*
X97184782Y-88111368D01*
X97202971Y-88144328D01*
X97324199Y-88356017D01*
X97430244Y-88528214D01*
X97510236Y-88643966D01*
X97553310Y-88686318D01*
X97580652Y-88666108D01*
X97598299Y-88565765D01*
X97590135Y-88396627D01*
X97559618Y-88175846D01*
X97510204Y-87920573D01*
X97445351Y-87647960D01*
X97368516Y-87375156D01*
X97283158Y-87119315D01*
X97192733Y-86897586D01*
X97158535Y-86819887D01*
X97106482Y-86682897D01*
X97085488Y-86597948D01*
X97078122Y-86569397D01*
X97033733Y-86457196D01*
X96955944Y-86280898D01*
X96852555Y-86057949D01*
X96731364Y-85805795D01*
X96632779Y-85606285D01*
X96504900Y-85360655D01*
X96392884Y-85170036D01*
X96281310Y-85011068D01*
X96154755Y-84860390D01*
X95997797Y-84694642D01*
X95745127Y-84453447D01*
X95472756Y-84244650D01*
X95208117Y-84107703D01*
X94930306Y-84032196D01*
X94618420Y-84007719D01*
X94408973Y-83998942D01*
X94245311Y-83976484D01*
X94161016Y-83943572D01*
X94110220Y-83915695D01*
X93984982Y-83890083D01*
X93836659Y-83883968D01*
X93706229Y-83898143D01*
X93634668Y-83933401D01*
X93631453Y-83942722D01*
X93200355Y-83942722D01*
X93211809Y-83802822D01*
X93224867Y-83568714D01*
X93240850Y-83168655D01*
X93514419Y-82935127D01*
X93790425Y-82718208D01*
X94154849Y-82496101D01*
X94528462Y-82345548D01*
X94545803Y-82340177D01*
X94696803Y-82289301D01*
X94775473Y-82241907D01*
X94805388Y-82174341D01*
X94810120Y-82062951D01*
X94805947Y-81974164D01*
X94768229Y-81866083D01*
X94673210Y-81790655D01*
X94607212Y-81759062D01*
X94512923Y-81739650D01*
X94383810Y-81746530D01*
X94187697Y-81778923D01*
X94066333Y-81799980D01*
X93820128Y-81837899D01*
X93538365Y-81877209D01*
X93261180Y-81912139D01*
X93051379Y-81938512D01*
X92853604Y-81967017D01*
X92714485Y-81991315D01*
X92655502Y-82008006D01*
X92642659Y-82038040D01*
X92618152Y-82147519D01*
X92594583Y-82303240D01*
X92562372Y-82475240D01*
X92514625Y-82573545D01*
X92456682Y-82574523D01*
X92391361Y-82475780D01*
X92364289Y-82409215D01*
X92335366Y-82231193D01*
X92391925Y-82104635D01*
X92394216Y-82102324D01*
X92433052Y-82036378D01*
X92383753Y-82013120D01*
X92252219Y-82035472D01*
X92248823Y-82036394D01*
X92152121Y-82075083D01*
X92111478Y-82143100D01*
X92104823Y-82276538D01*
X92104914Y-82281570D01*
X92113924Y-82479760D01*
X92130377Y-82675903D01*
X92133689Y-82812619D01*
X92099553Y-82885048D01*
X92027356Y-82863176D01*
X91920056Y-82746018D01*
X91843281Y-82620020D01*
X91806975Y-82480792D01*
X91800478Y-82285212D01*
X91806127Y-81991348D01*
X91643290Y-81991348D01*
X91483324Y-81952824D01*
X91327346Y-81825113D01*
X91211772Y-81620825D01*
X91211647Y-81620497D01*
X91179784Y-81521458D01*
X91177739Y-81480282D01*
X91209360Y-81491237D01*
X91312083Y-81535076D01*
X91457466Y-81600980D01*
X91548168Y-81638946D01*
X91720432Y-81689434D01*
X91845841Y-81697235D01*
X91854387Y-81695155D01*
X92339951Y-81695155D01*
X92383258Y-81731239D01*
X92484768Y-81685381D01*
X92532953Y-81630747D01*
X92504752Y-81545620D01*
X92435363Y-81473150D01*
X92376090Y-81492196D01*
X92340830Y-81606460D01*
X92339951Y-81695155D01*
X91854387Y-81695155D01*
X91883879Y-81687977D01*
X91961302Y-81645339D01*
X91961518Y-81602197D01*
X91877848Y-81582495D01*
X91867977Y-81582119D01*
X91746920Y-81553661D01*
X91580429Y-81491354D01*
X91404254Y-81411281D01*
X91254143Y-81329526D01*
X91165845Y-81262170D01*
X91156924Y-81250037D01*
X91130682Y-81153571D01*
X91153577Y-81061423D01*
X91215930Y-81020322D01*
X91260714Y-81029419D01*
X91360680Y-81071567D01*
X91436955Y-81099202D01*
X91482754Y-81078861D01*
X91464248Y-81015055D01*
X91378573Y-80930384D01*
X91242878Y-80831537D01*
X91363026Y-80617762D01*
X91409378Y-80540971D01*
X91491718Y-80447039D01*
X91562341Y-80436867D01*
X91606176Y-80453907D01*
X91730945Y-80495461D01*
X91790990Y-80496248D01*
X91820517Y-80448015D01*
X91794905Y-80373164D01*
X91716576Y-80303977D01*
X91705613Y-80298091D01*
X91645508Y-80256691D01*
X91647498Y-80206536D01*
X91710396Y-80110529D01*
X91790124Y-79990887D01*
X91909727Y-79797615D01*
X92039435Y-79577697D01*
X92162999Y-79359350D01*
X92264171Y-79170792D01*
X92326701Y-79040241D01*
X92359897Y-78947084D01*
X92362472Y-78848129D01*
X92307602Y-78741510D01*
X92271523Y-78691546D01*
X92186340Y-78632349D01*
X92058771Y-78636416D01*
X92004545Y-78645358D01*
X91829787Y-78671826D01*
X91641509Y-78698062D01*
X91557081Y-78714244D01*
X91360016Y-78768902D01*
X91124502Y-78848311D01*
X90884858Y-78941432D01*
X90884666Y-78941512D01*
X90661178Y-79037212D01*
X90517593Y-79106643D01*
X90438448Y-79160284D01*
X90408281Y-79208612D01*
X90411628Y-79262105D01*
X90415902Y-79332938D01*
X90357818Y-79441016D01*
X90336419Y-79457782D01*
X90270764Y-79476653D01*
X90204992Y-79411543D01*
X90161157Y-79342752D01*
X90133863Y-79272928D01*
X90102888Y-79243149D01*
X90014812Y-79232491D01*
X89915666Y-79246354D01*
X89852561Y-79283045D01*
X89849103Y-79292092D01*
X89865985Y-79374284D01*
X89929436Y-79487123D01*
X89950778Y-79518440D01*
X90006011Y-79644255D01*
X89973761Y-79718369D01*
X89853470Y-79742656D01*
X89755868Y-79716047D01*
X89636483Y-79618359D01*
X89553691Y-79482410D01*
X89536022Y-79344027D01*
X89532347Y-79248552D01*
X89450318Y-79176914D01*
X89375588Y-79142028D01*
X89239497Y-79070333D01*
X89167800Y-79030331D01*
X89063665Y-78977123D01*
X89058405Y-78974617D01*
X88985822Y-78913419D01*
X88972926Y-78851202D01*
X89027795Y-78822737D01*
X89036019Y-78822590D01*
X89126124Y-78787038D01*
X89138882Y-78708333D01*
X89068755Y-78614618D01*
X89058092Y-78605701D01*
X88996391Y-78528773D01*
X88966325Y-78415814D01*
X88958410Y-78234127D01*
X88958890Y-78166838D01*
X88967447Y-78031823D01*
X88990992Y-77973323D01*
X89035070Y-77972405D01*
X89080303Y-77980926D01*
X89110278Y-77948444D01*
X89085101Y-77882388D01*
X89009517Y-77812464D01*
X89005637Y-77809959D01*
X88937378Y-77728035D01*
X88908265Y-77623029D01*
X88921665Y-77532489D01*
X88980947Y-77493964D01*
X88982809Y-77493956D01*
X89073524Y-77460280D01*
X89089225Y-77382141D01*
X89023438Y-77290533D01*
X89005787Y-77274793D01*
X88959366Y-77208250D01*
X88924626Y-77101481D01*
X88896314Y-76933849D01*
X88869174Y-76684720D01*
X88863870Y-76631068D01*
X88823132Y-76332422D01*
X88767076Y-76127550D01*
X88687875Y-76009286D01*
X88577702Y-75970466D01*
X88428731Y-76003926D01*
X88233135Y-76102502D01*
X88162739Y-76144554D01*
X87997114Y-76248577D01*
X87806031Y-76373170D01*
X87608056Y-76505681D01*
X87421756Y-76633462D01*
X87265698Y-76743861D01*
X87158447Y-76824228D01*
X87118571Y-76861913D01*
X87119434Y-76865969D01*
X87155065Y-76928392D01*
X87226803Y-77031215D01*
X87289776Y-77142110D01*
X87298392Y-77242103D01*
X87243589Y-77285874D01*
X87143294Y-77262433D01*
X87015435Y-77160789D01*
X86974909Y-77120317D01*
X86872655Y-77056309D01*
X86803044Y-77087948D01*
X86760431Y-77216470D01*
X86746106Y-77273273D01*
X86677250Y-77365576D01*
X86573473Y-77366183D01*
X86446111Y-77273055D01*
X86318200Y-77182547D01*
X86121992Y-77122122D01*
X85914388Y-77079402D01*
X85670213Y-76986985D01*
X85474928Y-76864928D01*
X85355185Y-76726963D01*
X85346217Y-76709585D01*
X85301504Y-76615415D01*
X85307237Y-76590074D01*
X85365068Y-76614788D01*
X85426254Y-76637123D01*
X85521489Y-76639540D01*
X85548632Y-76626851D01*
X85582607Y-76560473D01*
X85525246Y-76463884D01*
X85379368Y-76342971D01*
X85265213Y-76251121D01*
X85201980Y-76163690D01*
X85220333Y-76110098D01*
X85322696Y-76100706D01*
X85389180Y-76104110D01*
X85432052Y-76093610D01*
X85429050Y-76076289D01*
X85399294Y-75976137D01*
X85344051Y-75811226D01*
X85271206Y-75603292D01*
X85188644Y-75374072D01*
X85104249Y-75145301D01*
X85025907Y-74938717D01*
X84961503Y-74776055D01*
X84918921Y-74679052D01*
X84899779Y-74643756D01*
X84803276Y-74503102D01*
X84706837Y-74406066D01*
X84666713Y-74379643D01*
X84580971Y-74353886D01*
X84488949Y-74397344D01*
X84426240Y-74462281D01*
X84400648Y-74555498D01*
X84388400Y-74626052D01*
X84315834Y-74713822D01*
X84285043Y-74743636D01*
X84201256Y-74855986D01*
X84096405Y-75019539D01*
X83985831Y-75207713D01*
X83884874Y-75393924D01*
X83808878Y-75551589D01*
X83773182Y-75654125D01*
X83757718Y-75690553D01*
X83680256Y-75731437D01*
X83655052Y-75733054D01*
X83580282Y-75757128D01*
X83552718Y-75791814D01*
X83596472Y-75813497D01*
X83624600Y-75815054D01*
X83715296Y-75810799D01*
X83759326Y-75823155D01*
X83819601Y-75898307D01*
X83846964Y-76003587D01*
X83840335Y-76030100D01*
X83781128Y-76051649D01*
X83644430Y-76037612D01*
X83625053Y-76034565D01*
X83454597Y-76023975D01*
X83295581Y-76037529D01*
X83178101Y-76070497D01*
X83132253Y-76118145D01*
X83135381Y-76126636D01*
X83200658Y-76154706D01*
X83323903Y-76166882D01*
X83458786Y-76176852D01*
X83659811Y-76204184D01*
X83901772Y-76244671D01*
X84164402Y-76294126D01*
X84427435Y-76348362D01*
X84670605Y-76403190D01*
X84672491Y-76403666D01*
X84873646Y-76454424D01*
X85016291Y-76497876D01*
X85078274Y-76529359D01*
X85080874Y-76533887D01*
X85069814Y-76597986D01*
X84962502Y-76661996D01*
X84947845Y-76667948D01*
X84852184Y-76694406D01*
X84734071Y-76700702D01*
X84567684Y-76686388D01*
X84327195Y-76651018D01*
X83975256Y-76603584D01*
X83646146Y-76581763D01*
X83309746Y-76585986D01*
X82935641Y-76616635D01*
X82493420Y-76674093D01*
X82064759Y-76746175D01*
X81290050Y-76932952D01*
X80564959Y-77188766D01*
X80202303Y-77361299D01*
X79866676Y-77520973D01*
X79757999Y-77577017D01*
X79561451Y-77673679D01*
X79325837Y-77786191D01*
X79081262Y-77900025D01*
X78913339Y-77980886D01*
X78628581Y-78131191D01*
X78355611Y-78289040D01*
X78135789Y-78431194D01*
X78019646Y-78517921D01*
X77760792Y-78735046D01*
X77476715Y-78997764D01*
X77188695Y-79284530D01*
X76918006Y-79573799D01*
X76685926Y-79844027D01*
X76513732Y-80073668D01*
X76444788Y-80174992D01*
X76403048Y-80236336D01*
X76261306Y-80438730D01*
X76141266Y-80604248D01*
X76098442Y-80666127D01*
X75985765Y-80853490D01*
X75854592Y-81094595D01*
X75718777Y-81361742D01*
X75592172Y-81627234D01*
X75488629Y-81863372D01*
X75422001Y-82042455D01*
X75337705Y-82323210D01*
X75266070Y-82585397D01*
X75218966Y-82795351D01*
X75190536Y-82976707D01*
X75182059Y-83053310D01*
X75180142Y-83168837D01*
X73561498Y-83168837D01*
X73511171Y-83154703D01*
X73215155Y-83063845D01*
X72962032Y-82976716D01*
X72882604Y-82946725D01*
X72590227Y-82828880D01*
X72310660Y-82705674D01*
X72060482Y-82585361D01*
X71856269Y-82476197D01*
X71714598Y-82386437D01*
X71652046Y-82324336D01*
X71649495Y-82299549D01*
X71682789Y-82198120D01*
X71760280Y-82073529D01*
X71951100Y-81743607D01*
X72065120Y-81361990D01*
X72096299Y-80952213D01*
X72040893Y-80534809D01*
X71996619Y-80382385D01*
X71888175Y-80103131D01*
X71750636Y-79818674D01*
X71601514Y-79563911D01*
X71458317Y-79373740D01*
X71342132Y-79264306D01*
X71170968Y-79129746D01*
X70971102Y-78989934D01*
X70760916Y-78856008D01*
X70558791Y-78739107D01*
X70383107Y-78650367D01*
X70252246Y-78600927D01*
X70184588Y-78601925D01*
X70184940Y-78650023D01*
X70230473Y-78742943D01*
X70260079Y-78791840D01*
X70364312Y-79022349D01*
X70458953Y-79314975D01*
X70539095Y-79643620D01*
X70599831Y-79982187D01*
X70636256Y-80304579D01*
X70643463Y-80584698D01*
X70616545Y-80796447D01*
X70569152Y-80938410D01*
X70459802Y-81134393D01*
X70327168Y-81253713D01*
X70182434Y-81288026D01*
X70036784Y-81228987D01*
X69842979Y-81095876D01*
X69582058Y-80937753D01*
X69287538Y-80773857D01*
X68990039Y-80621215D01*
X68720181Y-80496856D01*
X68411126Y-80366591D01*
X68097747Y-80238423D01*
X67861157Y-80147503D01*
X67692461Y-80090632D01*
X67582768Y-80064610D01*
X67523184Y-80066239D01*
X67489052Y-80109783D01*
X67161701Y-80109783D01*
X67163444Y-80052518D01*
X67186532Y-79880048D01*
X67226593Y-79784815D01*
X67267371Y-79770061D01*
X67398372Y-79779817D01*
X67597757Y-79826167D01*
X67851049Y-79904139D01*
X68143773Y-80008763D01*
X68461453Y-80135068D01*
X68789613Y-80278082D01*
X69113775Y-80432836D01*
X69206963Y-80479394D01*
X69427302Y-80588416D01*
X69605292Y-80674962D01*
X69724636Y-80731165D01*
X69769037Y-80749160D01*
X69769122Y-80735497D01*
X69764543Y-80642940D01*
X69754701Y-80483074D01*
X69740992Y-80279276D01*
X69739504Y-80256549D01*
X69731930Y-80024702D01*
X69733547Y-79752969D01*
X69743031Y-79461651D01*
X69759058Y-79171048D01*
X69780304Y-78901460D01*
X69805446Y-78673185D01*
X69833160Y-78506524D01*
X69862122Y-78421777D01*
X69864077Y-78419375D01*
X69967576Y-78375395D01*
X70149764Y-78395101D01*
X70409605Y-78478254D01*
X70746068Y-78624618D01*
X70942838Y-78729416D01*
X71305112Y-78980286D01*
X71640180Y-79284002D01*
X71930083Y-79621039D01*
X72156862Y-79971868D01*
X72302558Y-80316964D01*
X72383657Y-80700531D01*
X72413225Y-81152954D01*
X72376035Y-81582495D01*
X72371679Y-81606672D01*
X72333569Y-81802581D01*
X72297752Y-81963130D01*
X72271463Y-82055586D01*
X72267860Y-82105534D01*
X72312392Y-82159075D01*
X72421779Y-82224900D01*
X72611458Y-82314778D01*
X72617175Y-82317351D01*
X72948703Y-82461111D01*
X73230178Y-82572326D01*
X73451355Y-82647509D01*
X73601993Y-82683173D01*
X73671847Y-82675829D01*
X73675199Y-82670051D01*
X73684467Y-82641312D01*
X74146918Y-82641312D01*
X74147794Y-82645927D01*
X74156004Y-82684366D01*
X74169989Y-82697203D01*
X74200389Y-82672862D01*
X74257845Y-82599767D01*
X74352997Y-82466341D01*
X74496487Y-82261010D01*
X74542897Y-82198767D01*
X74644760Y-82095713D01*
X74718247Y-82072408D01*
X74771125Y-82066383D01*
X74819722Y-81978289D01*
X74885933Y-81782513D01*
X75005423Y-81517035D01*
X75159819Y-81224609D01*
X75334335Y-80933083D01*
X75514185Y-80670304D01*
X75609406Y-80537127D01*
X75717790Y-80369763D01*
X75786859Y-80242297D01*
X75804728Y-80174992D01*
X75789634Y-80144909D01*
X75674543Y-80039837D01*
X75484786Y-79958615D01*
X75241723Y-79911249D01*
X75104615Y-79899590D01*
X74989147Y-79906228D01*
X74905903Y-79947595D01*
X74816134Y-80034955D01*
X74816070Y-80035024D01*
X74775763Y-80080936D01*
X74740105Y-80131693D01*
X74706079Y-80197834D01*
X74670666Y-80289898D01*
X74630847Y-80418427D01*
X74583606Y-80593960D01*
X74525924Y-80827036D01*
X74454782Y-81128196D01*
X74367164Y-81507979D01*
X74260049Y-81976925D01*
X74214926Y-82185810D01*
X74174878Y-82397074D01*
X74150851Y-82556885D01*
X74146918Y-82641312D01*
X73684467Y-82641312D01*
X73701722Y-82587808D01*
X73744469Y-82424774D01*
X73799615Y-82196662D01*
X73863336Y-81919183D01*
X73931805Y-81608049D01*
X73947878Y-81533592D01*
X74042146Y-81105014D01*
X74122941Y-80762757D01*
X74195820Y-80494745D01*
X74266347Y-80288900D01*
X74340079Y-80133145D01*
X74422579Y-80015403D01*
X74519406Y-79923596D01*
X74636120Y-79845647D01*
X74778282Y-79769479D01*
X74941418Y-79691205D01*
X75058420Y-79653921D01*
X75163904Y-79653488D01*
X75297206Y-79683381D01*
X75339047Y-79695709D01*
X75537013Y-79774737D01*
X75712096Y-79871295D01*
X75763445Y-79905257D01*
X75874570Y-79971763D01*
X75936238Y-79998189D01*
X75986330Y-79960689D01*
X76061066Y-79867301D01*
X76137579Y-79751702D01*
X76193604Y-79647586D01*
X76206876Y-79588644D01*
X76191847Y-79540491D01*
X76169791Y-79407380D01*
X76148633Y-79223834D01*
X76131228Y-79019736D01*
X76120429Y-78824969D01*
X76119091Y-78669417D01*
X76122804Y-78617992D01*
X76177353Y-78430340D01*
X76284406Y-78305695D01*
X76430169Y-78262118D01*
X76453632Y-78262882D01*
X76483681Y-78275121D01*
X76424507Y-78315764D01*
X76377895Y-78349743D01*
X76341207Y-78425522D01*
X76363580Y-78539970D01*
X76446186Y-78714609D01*
X76491305Y-78800997D01*
X76527824Y-78894692D01*
X76517972Y-78957543D01*
X76463818Y-79026079D01*
X76411912Y-79099557D01*
X76416586Y-79135272D01*
X76440167Y-79138068D01*
X76539497Y-79148207D01*
X76575475Y-79141213D01*
X76681485Y-79084705D01*
X76807954Y-78988991D01*
X76875494Y-78933035D01*
X76985244Y-78853837D01*
X77050710Y-78822737D01*
X77069482Y-78818198D01*
X77101037Y-78758853D01*
X77087449Y-78728258D01*
X77011625Y-78650525D01*
X76898840Y-78564093D01*
X76783248Y-78493927D01*
X76699001Y-78464990D01*
X76673788Y-78455968D01*
X76623228Y-78388330D01*
X76618415Y-78348272D01*
X76673642Y-78313967D01*
X76802224Y-78328569D01*
X76993661Y-78391974D01*
X77194361Y-78472278D01*
X77496721Y-78237474D01*
X77799082Y-78002670D01*
X77808605Y-77648162D01*
X77820355Y-77442328D01*
X77849894Y-77276005D01*
X78183183Y-77276005D01*
X78251569Y-77391751D01*
X78301891Y-77448583D01*
X78323492Y-77546273D01*
X78264346Y-77617472D01*
X78226762Y-77643533D01*
X78264346Y-77677096D01*
X78289145Y-77694380D01*
X78328229Y-77779309D01*
X78330765Y-77810898D01*
X78363776Y-77846516D01*
X78444891Y-77816609D01*
X78586610Y-77718222D01*
X78622257Y-77692293D01*
X78799368Y-77580559D01*
X78981047Y-77485316D01*
X79080701Y-77431700D01*
X79157783Y-77361299D01*
X79153554Y-77309623D01*
X79062651Y-77289537D01*
X79001606Y-77267436D01*
X78883093Y-77193329D01*
X78742962Y-77085111D01*
X78673099Y-77027017D01*
X78537490Y-76927018D01*
X78442493Y-76891105D01*
X78364303Y-76914527D01*
X78279113Y-76992534D01*
X78194814Y-77130697D01*
X78183183Y-77276005D01*
X77849894Y-77276005D01*
X77867753Y-77175448D01*
X77956654Y-76984434D01*
X78094591Y-76855596D01*
X78289100Y-76775246D01*
X78297609Y-76772976D01*
X78411405Y-76750833D01*
X78516021Y-76757122D01*
X78644624Y-76798317D01*
X78830381Y-76880890D01*
X78833245Y-76882232D01*
X79019431Y-76976700D01*
X79181201Y-77071337D01*
X79283822Y-77145846D01*
X79396156Y-77251257D01*
X79641569Y-77108725D01*
X79804449Y-77008333D01*
X79905822Y-76924474D01*
X79943652Y-76849194D01*
X79933122Y-76764575D01*
X79928537Y-76735023D01*
X79940662Y-76610391D01*
X79979802Y-76467047D01*
X80372495Y-76467047D01*
X80382384Y-76501926D01*
X80437658Y-76519703D01*
X80500261Y-76471831D01*
X80552326Y-76422847D01*
X80605527Y-76446513D01*
X80628028Y-76548491D01*
X80628066Y-76574371D01*
X80635097Y-76639787D01*
X80670462Y-76662990D01*
X80757263Y-76647977D01*
X80918603Y-76598742D01*
X81022874Y-76571505D01*
X81231630Y-76532988D01*
X81444289Y-76508256D01*
X81479027Y-76505569D01*
X81675499Y-76482386D01*
X81777976Y-76449825D01*
X81793593Y-76403666D01*
X81729487Y-76339695D01*
X81660315Y-76302092D01*
X81578803Y-76318320D01*
X81507871Y-76352537D01*
X81384406Y-76369618D01*
X81277076Y-76349872D01*
X81243600Y-76295817D01*
X81292343Y-76225782D01*
X81420181Y-76158233D01*
X81449798Y-76147096D01*
X81556082Y-76098227D01*
X81599054Y-76062655D01*
X81578504Y-76017775D01*
X81502190Y-75912340D01*
X81387387Y-75772917D01*
X81253148Y-75620932D01*
X81118525Y-75477813D01*
X81002571Y-75364984D01*
X80924337Y-75303872D01*
X80865421Y-75275777D01*
X80771826Y-75265187D01*
X80663422Y-75320184D01*
X80656046Y-75325040D01*
X80597784Y-75369914D01*
X80562270Y-75425430D01*
X80544650Y-75514468D01*
X80540070Y-75659907D01*
X80543677Y-75884625D01*
X80546294Y-76033259D01*
X80544403Y-76207567D01*
X80532064Y-76311532D01*
X80506127Y-76364888D01*
X80463441Y-76387372D01*
X80414757Y-76408845D01*
X80372495Y-76467047D01*
X79979802Y-76467047D01*
X79982290Y-76457935D01*
X80001239Y-76400562D01*
X80055377Y-76193040D01*
X80093249Y-75986991D01*
X80148409Y-75736555D01*
X80265666Y-75481798D01*
X80427016Y-75296364D01*
X80621751Y-75188475D01*
X80839164Y-75166349D01*
X81068548Y-75238209D01*
X81225665Y-75337032D01*
X81463257Y-75532083D01*
X81699264Y-75770841D01*
X81905025Y-76026302D01*
X81924565Y-76053766D01*
X82018573Y-76177878D01*
X82092316Y-76238695D01*
X82178947Y-76253661D01*
X82311622Y-76240218D01*
X82507228Y-76212420D01*
X82670574Y-76177684D01*
X82781306Y-76129781D01*
X82866238Y-76056356D01*
X82952187Y-75945052D01*
X83063440Y-75783286D01*
X83234057Y-75521366D01*
X83405797Y-75244798D01*
X83558523Y-74986220D01*
X83672099Y-74778267D01*
X83681195Y-74760813D01*
X83824918Y-74549793D01*
X84009670Y-74360160D01*
X84208161Y-74216017D01*
X84393100Y-74141469D01*
X84423420Y-74136861D01*
X84609720Y-74148178D01*
X84847534Y-74224441D01*
X85042015Y-74323572D01*
X85258262Y-74516707D01*
X85415030Y-74785312D01*
X85458767Y-74887720D01*
X85524390Y-75040845D01*
X85538634Y-75077143D01*
X85586547Y-75216357D01*
X85648315Y-75410250D01*
X85714171Y-75628572D01*
X85799700Y-75905583D01*
X85914738Y-76222510D01*
X86025553Y-76454694D01*
X86137077Y-76611960D01*
X86254243Y-76704130D01*
X86415261Y-76787396D01*
X87147000Y-76293638D01*
X87365501Y-76147971D01*
X87635245Y-75978059D01*
X87862155Y-75854080D01*
X88069413Y-75766790D01*
X88280200Y-75706950D01*
X88517699Y-75665317D01*
X88805090Y-75632651D01*
X88834333Y-75629968D01*
X89107753Y-75630271D01*
X89317004Y-75692578D01*
X89485338Y-75828566D01*
X89636008Y-76049912D01*
X89785655Y-76317932D01*
X89784311Y-77619478D01*
X89782966Y-78921025D01*
X89945638Y-78891106D01*
X89948573Y-78890555D01*
X90080176Y-78855771D01*
X90265732Y-78795044D01*
X90466056Y-78721170D01*
X90705342Y-78635507D01*
X91075053Y-78526999D01*
X91450086Y-78440569D01*
X91797866Y-78383426D01*
X92085819Y-78362777D01*
X92257231Y-78366668D01*
X92389743Y-78388403D01*
X92497613Y-78441538D01*
X92621839Y-78539598D01*
X92691507Y-78604623D01*
X92815702Y-78747525D01*
X92893717Y-78874075D01*
X92902193Y-78897526D01*
X92931047Y-79068817D01*
X92936452Y-79302686D01*
X92920062Y-79568642D01*
X92883533Y-79836194D01*
X92828521Y-80074849D01*
X92808636Y-80141860D01*
X92741035Y-80371432D01*
X92678173Y-80586975D01*
X92603873Y-80843567D01*
X92850961Y-81148126D01*
X92874824Y-81177737D01*
X92988169Y-81324400D01*
X93067911Y-81437596D01*
X93098048Y-81494870D01*
X93107886Y-81502763D01*
X93192906Y-81512099D01*
X93346325Y-81509922D01*
X93545231Y-81496167D01*
X93907977Y-81469441D01*
X94342899Y-81458283D01*
X94706143Y-81475299D01*
X94990863Y-81519742D01*
X95190213Y-81590861D01*
X95234245Y-81630747D01*
X95297346Y-81687907D01*
X95314653Y-81728846D01*
X95352863Y-81869817D01*
X95381528Y-82039993D01*
X95389084Y-82121229D01*
X95383921Y-82267066D01*
X95343380Y-82417337D01*
X95258576Y-82613480D01*
X95150886Y-82821671D01*
X95011948Y-83062726D01*
X94873160Y-83281791D01*
X94640323Y-83626761D01*
X94816694Y-83626761D01*
X94950027Y-83645347D01*
X95182006Y-83728917D01*
X95447251Y-83868579D01*
X95725858Y-84052126D01*
X95997921Y-84267345D01*
X96243536Y-84502028D01*
X96391432Y-84665716D01*
X96582447Y-84905046D01*
X96754758Y-85163595D01*
X96925173Y-85467347D01*
X97110499Y-85842283D01*
X97201335Y-86041435D01*
X97394658Y-86517908D01*
X97564097Y-87008788D01*
X97705398Y-87496760D01*
X97814310Y-87964509D01*
X97886577Y-88394722D01*
X97900872Y-88565765D01*
X97917947Y-88770082D01*
X97904168Y-89073276D01*
G37*
G36*
X81147498Y-87733486D02*
G01*
X81066426Y-87804436D01*
X80909510Y-87911477D01*
X80773646Y-87971011D01*
X80604087Y-88004323D01*
X80414358Y-88011972D01*
X80250727Y-87973106D01*
X80225956Y-87962644D01*
X80063108Y-87859781D01*
X79881731Y-87702481D01*
X79711196Y-87518668D01*
X79580876Y-87336267D01*
X79476074Y-87137602D01*
X79358582Y-86876407D01*
X79245909Y-86591080D01*
X79144407Y-86301103D01*
X79129928Y-86253666D01*
X79568393Y-86253666D01*
X79569302Y-86304522D01*
X79593560Y-86427397D01*
X79636314Y-86593709D01*
X79722686Y-86830120D01*
X79846646Y-87075635D01*
X79990735Y-87301240D01*
X80138343Y-87480970D01*
X80272864Y-87588861D01*
X80359685Y-87625329D01*
X80594862Y-87657167D01*
X80819678Y-87601810D01*
X80888197Y-87564262D01*
X80925400Y-87514524D01*
X80876347Y-87461586D01*
X80735467Y-87391543D01*
X80643630Y-87340781D01*
X80478856Y-87219121D01*
X80326614Y-87076209D01*
X80303822Y-87051236D01*
X80188144Y-86907013D01*
X80131790Y-86785332D01*
X80116961Y-86650008D01*
X80112364Y-86542232D01*
X80082500Y-86466462D01*
X80003975Y-86408742D01*
X79853410Y-86341727D01*
X79742239Y-86298275D01*
X79623216Y-86259849D01*
X79568393Y-86253666D01*
X79129928Y-86253666D01*
X79060427Y-86025957D01*
X79000320Y-85785127D01*
X78970438Y-85598093D01*
X78977132Y-85484339D01*
X79003407Y-85446057D01*
X79074565Y-85421811D01*
X79194682Y-85435366D01*
X79374061Y-85489305D01*
X79623005Y-85586212D01*
X79951817Y-85728668D01*
X79980818Y-85741564D01*
X80293785Y-85876192D01*
X80629576Y-86013875D01*
X80949721Y-86139158D01*
X81215754Y-86236580D01*
X81395492Y-86299319D01*
X81576469Y-86366392D01*
X81688049Y-86417646D01*
X81746274Y-86462933D01*
X81767188Y-86512105D01*
X81766834Y-86575015D01*
X81732486Y-86719036D01*
X81650459Y-86923497D01*
X81536028Y-87155078D01*
X81404111Y-87385874D01*
X81318505Y-87514524D01*
X81269628Y-87587978D01*
X81147498Y-87733486D01*
G37*
G36*
X79479097Y-83364694D02*
G01*
X79410256Y-83727239D01*
X79289925Y-84044756D01*
X79122838Y-84304278D01*
X78913731Y-84492840D01*
X78667338Y-84597477D01*
X78635897Y-84603837D01*
X78352803Y-84608164D01*
X78082340Y-84524568D01*
X77832023Y-84365850D01*
X77609369Y-84144810D01*
X77421892Y-83874248D01*
X77277109Y-83566962D01*
X77182534Y-83235753D01*
X77171664Y-83134770D01*
X78000622Y-83134770D01*
X78010231Y-83154047D01*
X78090173Y-83209886D01*
X78189768Y-83206041D01*
X78258641Y-83141248D01*
X78271782Y-83053851D01*
X78236425Y-82953834D01*
X78157218Y-82911268D01*
X78076725Y-82936828D01*
X78004779Y-83025332D01*
X78000622Y-83134770D01*
X77171664Y-83134770D01*
X77145685Y-82893421D01*
X77174075Y-82552765D01*
X77192863Y-82492176D01*
X78328420Y-82492176D01*
X78355865Y-82756878D01*
X78454113Y-82986725D01*
X78520877Y-83053851D01*
X78629210Y-83162772D01*
X78736372Y-83226927D01*
X78900720Y-83260951D01*
X79079356Y-83207842D01*
X79126007Y-83179778D01*
X79230843Y-83039715D01*
X79270560Y-82823505D01*
X79244546Y-82533655D01*
X79202010Y-82333665D01*
X79119135Y-82088959D01*
X79013403Y-81933514D01*
X78878885Y-81859869D01*
X78709651Y-81860562D01*
X78610326Y-81891389D01*
X78455979Y-82014888D01*
X78360950Y-82216908D01*
X78328420Y-82492176D01*
X77192863Y-82492176D01*
X77275222Y-82226585D01*
X77337972Y-82077028D01*
X77386611Y-81942019D01*
X77402768Y-81868838D01*
X77400743Y-81809680D01*
X77424233Y-81741106D01*
X77492834Y-81674379D01*
X77622688Y-81595149D01*
X77829939Y-81489063D01*
X78101198Y-81363268D01*
X78343119Y-81276528D01*
X78535384Y-81245012D01*
X78695431Y-81266099D01*
X78840700Y-81337168D01*
X78925512Y-81408044D01*
X79077232Y-81602035D01*
X79219722Y-81863713D01*
X79341846Y-82171149D01*
X79432469Y-82502415D01*
X79443364Y-82556381D01*
X79474581Y-82823505D01*
X79491711Y-82970086D01*
X79479097Y-83364694D01*
G37*
G36*
X85114168Y-84640214D02*
G01*
X85101052Y-84870463D01*
X85072583Y-85043329D01*
X84948284Y-85415285D01*
X84772306Y-85756090D01*
X84556206Y-86009748D01*
X84295171Y-86181718D01*
X83984385Y-86277461D01*
X83885594Y-86291198D01*
X83548281Y-86277531D01*
X83239529Y-86166500D01*
X82962127Y-85959473D01*
X82718868Y-85657816D01*
X82692776Y-85616719D01*
X82469293Y-85172007D01*
X82347086Y-84716523D01*
X82345244Y-84676327D01*
X83262507Y-84676327D01*
X83283825Y-84798947D01*
X83307370Y-84833192D01*
X83402150Y-84894139D01*
X83504302Y-84894840D01*
X83572586Y-84830752D01*
X83591226Y-84730022D01*
X83555043Y-84614487D01*
X83459452Y-84556991D01*
X83441751Y-84555100D01*
X83322205Y-84585324D01*
X83262507Y-84676327D01*
X82345244Y-84676327D01*
X82325640Y-84248424D01*
X82368536Y-83937872D01*
X83490000Y-83937872D01*
X83521134Y-84143684D01*
X83609755Y-84390328D01*
X83737725Y-84627887D01*
X83818667Y-84730022D01*
X83886812Y-84816009D01*
X83957808Y-84878488D01*
X84110965Y-84982030D01*
X84244574Y-85037454D01*
X84300616Y-85046419D01*
X84393812Y-85038651D01*
X84487322Y-84983495D01*
X84614033Y-84865658D01*
X84661332Y-84817940D01*
X84750391Y-84716426D01*
X84797344Y-84622265D01*
X84815640Y-84498941D01*
X84818732Y-84309936D01*
X84816271Y-84227769D01*
X84769050Y-83924847D01*
X84670736Y-83637719D01*
X84533124Y-83394788D01*
X84368006Y-83224454D01*
X84254048Y-83156605D01*
X84145143Y-83138456D01*
X83991730Y-83163131D01*
X83800759Y-83236458D01*
X83628452Y-83395304D01*
X83524697Y-83629369D01*
X83490000Y-83937872D01*
X82368536Y-83937872D01*
X82375991Y-83883897D01*
X82503972Y-83517361D01*
X82704990Y-83221910D01*
X82977857Y-82998788D01*
X83321383Y-82849238D01*
X83734380Y-82774505D01*
X83933448Y-82765207D01*
X84100181Y-82780694D01*
X84253448Y-82830895D01*
X84414321Y-82925555D01*
X84603875Y-83074419D01*
X84843184Y-83287231D01*
X84936856Y-83373693D01*
X85099285Y-83531068D01*
X85195494Y-83639952D01*
X85234578Y-83711516D01*
X85225632Y-83756930D01*
X85186346Y-83786769D01*
X85087250Y-83793724D01*
X85079028Y-83790676D01*
X85029546Y-83790381D01*
X85044860Y-83860645D01*
X85069416Y-83947468D01*
X85097547Y-84144486D01*
X85107915Y-84309936D01*
X85112732Y-84386811D01*
X85114168Y-84640214D01*
G37*
G36*
X93245015Y-84691000D02*
G01*
X93342164Y-84810879D01*
X93395717Y-84884275D01*
X93487476Y-85052756D01*
X93494818Y-85167489D01*
X93417464Y-85226944D01*
X93368131Y-85239716D01*
X93302072Y-85256245D01*
X93286942Y-85249948D01*
X93245052Y-85178031D01*
X93200140Y-85053172D01*
X93161655Y-84908572D01*
X93139045Y-84777431D01*
X93141761Y-84692951D01*
X93155099Y-84663217D01*
X93188432Y-84645176D01*
X93245015Y-84691000D01*
G37*
G36*
X168813469Y-78340818D02*
G01*
X168891051Y-78396428D01*
X168942226Y-78448859D01*
X168942154Y-78460827D01*
X168898113Y-78465141D01*
X168790160Y-78368598D01*
X168748077Y-78322883D01*
X168728212Y-78289318D01*
X168813469Y-78340818D01*
G37*
G36*
X180645075Y-73467864D02*
G01*
X180681548Y-73558265D01*
X180730049Y-73855977D01*
X180710790Y-74249167D01*
X180623102Y-74744855D01*
X180466320Y-75350068D01*
X180374165Y-75678010D01*
X180277141Y-76062687D01*
X180227046Y-76329323D01*
X180222972Y-76483208D01*
X180264010Y-76529636D01*
X180329945Y-76495030D01*
X180451512Y-76407266D01*
X180547593Y-76343299D01*
X180636360Y-76329299D01*
X180652706Y-76402633D01*
X180595922Y-76546143D01*
X180465305Y-76742666D01*
X180313748Y-76969106D01*
X180127920Y-77335463D01*
X179974624Y-77737417D01*
X179865322Y-78138337D01*
X179811475Y-78501590D01*
X179824544Y-78790542D01*
X179865343Y-78984686D01*
X179992052Y-78740714D01*
X180029838Y-78657643D01*
X180113055Y-78407218D01*
X180169484Y-78145714D01*
X180189976Y-78019981D01*
X180202981Y-77955043D01*
X181728148Y-77955043D01*
X181777391Y-77939051D01*
X181869209Y-77805681D01*
X181918553Y-77687913D01*
X181945419Y-77523499D01*
X181928544Y-77392975D01*
X181868046Y-77343735D01*
X181815430Y-77400114D01*
X181776551Y-77539218D01*
X181755169Y-77690430D01*
X181729683Y-77850101D01*
X181729504Y-77851100D01*
X181728148Y-77955043D01*
X180202981Y-77955043D01*
X180251799Y-77711282D01*
X180322327Y-77420355D01*
X180424445Y-77046026D01*
X180676667Y-77064039D01*
X180928890Y-77082053D01*
X181183391Y-76552403D01*
X181234610Y-76447486D01*
X181344382Y-76234792D01*
X181426633Y-76092411D01*
X181466548Y-76046797D01*
X181466648Y-76046885D01*
X181454365Y-76116152D01*
X181395298Y-76273419D01*
X181302151Y-76484835D01*
X181272976Y-76547810D01*
X181106289Y-76931317D01*
X181009125Y-77205799D01*
X180982621Y-77368117D01*
X181009837Y-77384845D01*
X181087127Y-77328711D01*
X181185019Y-77220447D01*
X181273842Y-77093636D01*
X181309207Y-77014702D01*
X181906135Y-77014702D01*
X181910677Y-77039418D01*
X181985827Y-77114242D01*
X182110886Y-77110115D01*
X182234301Y-77025361D01*
X182287185Y-76899133D01*
X182291081Y-76744828D01*
X182252346Y-76616210D01*
X182177591Y-76566740D01*
X182130161Y-76582714D01*
X182019677Y-76690647D01*
X181933848Y-76853050D01*
X181906135Y-77014702D01*
X181309207Y-77014702D01*
X181323922Y-76981859D01*
X181380502Y-76882766D01*
X181511241Y-76773250D01*
X181564057Y-76739951D01*
X181783498Y-76551238D01*
X182033950Y-76273495D01*
X182293457Y-75932721D01*
X182540065Y-75554916D01*
X182569563Y-75506221D01*
X182752344Y-75217902D01*
X182940636Y-74938960D01*
X183098002Y-74723683D01*
X183105811Y-74713785D01*
X183283224Y-74510153D01*
X183475350Y-74320957D01*
X183656228Y-74168215D01*
X183799899Y-74073940D01*
X183880403Y-74060149D01*
X183890765Y-74074978D01*
X183883361Y-74196653D01*
X183807808Y-74410561D01*
X183671195Y-74701223D01*
X183480616Y-75053165D01*
X183243161Y-75450908D01*
X183175730Y-75559841D01*
X182927072Y-75978133D01*
X182748388Y-76318528D01*
X182630751Y-76606421D01*
X182602832Y-76717553D01*
X182565236Y-76867206D01*
X182542915Y-77126278D01*
X182554864Y-77409031D01*
X182559795Y-77469748D01*
X182569708Y-77591809D01*
X182573922Y-77786472D01*
X182544772Y-77924056D01*
X182469437Y-78051662D01*
X182335094Y-78216390D01*
X182231525Y-78350156D01*
X182096144Y-78554985D01*
X181975198Y-78766890D01*
X181936487Y-78846267D01*
X181880297Y-78961485D01*
X181823054Y-79114379D01*
X181815081Y-79201184D01*
X181867987Y-79197511D01*
X181875834Y-79192070D01*
X181995659Y-79077037D01*
X182186981Y-78856066D01*
X182445208Y-78534852D01*
X182765748Y-78119095D01*
X183144008Y-77614492D01*
X183190217Y-77553251D01*
X183407943Y-77287621D01*
X183638548Y-77036437D01*
X183862408Y-76817959D01*
X184059897Y-76650449D01*
X184211392Y-76552168D01*
X184297267Y-76541375D01*
X184292981Y-76609722D01*
X184232673Y-76762313D01*
X184128645Y-76963451D01*
X184055864Y-77093126D01*
X183959485Y-77279244D01*
X183927311Y-77382144D01*
X183955068Y-77423776D01*
X184038473Y-77426093D01*
X184101871Y-77413374D01*
X184313377Y-77286398D01*
X184549184Y-77027768D01*
X184808057Y-76638750D01*
X184884664Y-76512812D01*
X185075529Y-76235128D01*
X185241652Y-76062404D01*
X185401221Y-75978683D01*
X185572425Y-75968004D01*
X185644493Y-75969690D01*
X185786392Y-75916109D01*
X185941310Y-75763738D01*
X185946530Y-75757565D01*
X186126386Y-75594819D01*
X186298544Y-75522402D01*
X186432148Y-75553529D01*
X186452374Y-75578155D01*
X186453457Y-75649749D01*
X186392631Y-75760775D01*
X186260104Y-75924055D01*
X186046077Y-76152413D01*
X185740758Y-76458671D01*
X185475650Y-76727980D01*
X185225679Y-76998420D01*
X185021572Y-77236175D01*
X184869679Y-77431419D01*
X184776348Y-77574328D01*
X184747929Y-77655075D01*
X184790768Y-77663838D01*
X184911217Y-77590790D01*
X185115623Y-77426106D01*
X185294928Y-77279435D01*
X185515841Y-77122728D01*
X185682393Y-77034345D01*
X185772991Y-77027383D01*
X185746980Y-77063837D01*
X185631936Y-77166073D01*
X185445351Y-77316017D01*
X185208046Y-77496380D01*
X184966309Y-77678897D01*
X184578820Y-77991478D01*
X184285939Y-78261868D01*
X184071617Y-78505535D01*
X183919804Y-78737947D01*
X183885790Y-78801559D01*
X183820249Y-78948674D01*
X183820921Y-79036468D01*
X183883607Y-79107830D01*
X183962607Y-79161929D01*
X184066565Y-79196605D01*
X184101815Y-79180940D01*
X184229730Y-79095890D01*
X184419778Y-78953996D01*
X184645450Y-78774585D01*
X184895211Y-78582484D01*
X185231123Y-78370890D01*
X185505555Y-78260803D01*
X185709558Y-78256580D01*
X185720062Y-78260627D01*
X185703190Y-78285714D01*
X185581435Y-78308777D01*
X185565094Y-78310787D01*
X185422929Y-78347276D01*
X185367655Y-78397761D01*
X185347797Y-78440866D01*
X185248161Y-78553556D01*
X185091931Y-78694338D01*
X185076533Y-78707081D01*
X184824363Y-78930292D01*
X184669537Y-79099073D01*
X184620649Y-79204129D01*
X184620707Y-79204672D01*
X184685889Y-79271540D01*
X184823663Y-79322294D01*
X184971283Y-79341493D01*
X185066003Y-79313701D01*
X185085828Y-79297335D01*
X185218164Y-79247528D01*
X185409549Y-79215457D01*
X185639967Y-79165321D01*
X185841657Y-79050510D01*
X185951226Y-78956485D01*
X186198309Y-78781405D01*
X186461716Y-78630315D01*
X186701740Y-78524812D01*
X186878673Y-78486491D01*
X186920609Y-78489320D01*
X186958891Y-78509882D01*
X186931390Y-78559796D01*
X186826135Y-78650315D01*
X186631157Y-78792694D01*
X186334489Y-78998187D01*
X186045382Y-79206117D01*
X185752402Y-79434670D01*
X185748279Y-79438127D01*
X185479269Y-79663644D01*
X185243872Y-79876823D01*
X185064099Y-80057994D01*
X185021215Y-80111649D01*
X184957840Y-80190942D01*
X184942984Y-80259451D01*
X184974418Y-80253778D01*
X185109303Y-80199630D01*
X185330138Y-80098786D01*
X185615812Y-79961008D01*
X185945217Y-79796054D01*
X186215132Y-79660048D01*
X186705062Y-79421200D01*
X187135831Y-79221952D01*
X187492520Y-79068853D01*
X187760212Y-78968452D01*
X187923992Y-78927298D01*
X187960076Y-78932102D01*
X187963368Y-78995736D01*
X187880483Y-79119831D01*
X187726354Y-79289717D01*
X187515914Y-79490721D01*
X187264095Y-79708174D01*
X186985829Y-79927402D01*
X186696051Y-80133736D01*
X186620816Y-80186477D01*
X186384327Y-80352259D01*
X186082433Y-80580427D01*
X185826485Y-80790083D01*
X185650916Y-80954196D01*
X185511556Y-81108230D01*
X185489709Y-81138532D01*
X185421744Y-81232800D01*
X185404034Y-81319328D01*
X185444209Y-81398367D01*
X185521687Y-81470790D01*
X185644251Y-81512834D01*
X185662955Y-81507444D01*
X185786964Y-81447972D01*
X186001421Y-81331409D01*
X186287746Y-81168273D01*
X186627355Y-80969084D01*
X187001669Y-80744363D01*
X187121587Y-80671639D01*
X187508756Y-80438586D01*
X187800424Y-80267660D01*
X188012291Y-80151257D01*
X188160056Y-80081770D01*
X188259420Y-80051594D01*
X188326084Y-80053125D01*
X188375748Y-80078756D01*
X188455627Y-80125659D01*
X188624412Y-80154552D01*
X188852637Y-80113183D01*
X189166988Y-79998859D01*
X189340331Y-79932953D01*
X189506642Y-79895775D01*
X189600518Y-79921434D01*
X189603323Y-79924006D01*
X189599807Y-79977927D01*
X189505385Y-80067568D01*
X189309711Y-80200968D01*
X189002441Y-80386163D01*
X188751674Y-80535937D01*
X188520232Y-80681685D01*
X188356961Y-80793182D01*
X188286867Y-80854076D01*
X188224459Y-80896030D01*
X188083754Y-80908593D01*
X188056786Y-80906283D01*
X187951128Y-80924561D01*
X187938106Y-81015696D01*
X187922431Y-81108830D01*
X187801771Y-81155345D01*
X187694590Y-81193106D01*
X187585034Y-81310654D01*
X187543304Y-81388207D01*
X187428876Y-81559867D01*
X187282585Y-81753195D01*
X187260450Y-81780730D01*
X187135427Y-81943705D01*
X187084661Y-82049103D01*
X187098377Y-82139529D01*
X187166790Y-82257585D01*
X187191951Y-82296680D01*
X187294522Y-82420066D01*
X187402063Y-82441030D01*
X187568965Y-82375522D01*
X187648459Y-82343969D01*
X187851382Y-82282308D01*
X188088572Y-82224896D01*
X188456732Y-82147223D01*
X188280579Y-82324853D01*
X188129719Y-82447419D01*
X187911222Y-82569589D01*
X187610892Y-82695508D01*
X187211524Y-82832368D01*
X186695915Y-82987361D01*
X186644567Y-83002227D01*
X186258833Y-83122043D01*
X185940989Y-83235231D01*
X185706976Y-83335085D01*
X185572729Y-83414893D01*
X185554186Y-83467949D01*
X185626208Y-83470206D01*
X185794170Y-83442944D01*
X186018110Y-83391174D01*
X186069698Y-83378279D01*
X186302030Y-83324569D01*
X186632087Y-83252214D01*
X187033279Y-83166891D01*
X187479016Y-83074282D01*
X187942709Y-82980066D01*
X188125823Y-82943248D01*
X188568628Y-82853805D01*
X188972857Y-82771599D01*
X189314856Y-82701471D01*
X189570967Y-82648263D01*
X189717536Y-82616816D01*
X189798809Y-82598772D01*
X189919725Y-82578947D01*
X189935797Y-82602030D01*
X189866445Y-82675699D01*
X189846319Y-82694222D01*
X189773163Y-82748858D01*
X189667086Y-82807340D01*
X189508995Y-82877769D01*
X189279793Y-82968238D01*
X188960390Y-83086845D01*
X188531690Y-83241686D01*
X188514927Y-83247700D01*
X188257693Y-83341604D01*
X188109158Y-83404982D01*
X188051057Y-83452234D01*
X188065125Y-83497760D01*
X188133100Y-83555963D01*
X188236005Y-83657418D01*
X188291091Y-83760474D01*
X188234586Y-83820787D01*
X188066539Y-83919772D01*
X187803036Y-84048536D01*
X187460203Y-84198576D01*
X186621692Y-84549534D01*
X187124072Y-84512473D01*
X187171939Y-84509091D01*
X187397820Y-84497813D01*
X187549801Y-84498168D01*
X187597181Y-84510297D01*
X187564169Y-84524854D01*
X187421290Y-84564424D01*
X187194049Y-84617542D01*
X186912665Y-84676856D01*
X186745735Y-84711598D01*
X186464753Y-84775594D01*
X186242732Y-84833132D01*
X186116945Y-84874935D01*
X186035743Y-84915440D01*
X186024897Y-84947237D01*
X186139827Y-84977881D01*
X186258826Y-84988289D01*
X186546025Y-84961471D01*
X186950065Y-84882453D01*
X187466123Y-84752237D01*
X188089380Y-84571830D01*
X188242523Y-84525389D01*
X188691679Y-84390790D01*
X189027067Y-84293614D01*
X189260776Y-84230761D01*
X189404895Y-84199131D01*
X189471513Y-84195625D01*
X189472718Y-84217145D01*
X189469554Y-84289347D01*
X189535414Y-84411556D01*
X189544858Y-84423593D01*
X189576228Y-84471795D01*
X189574861Y-84512339D01*
X189524256Y-84552016D01*
X189407913Y-84597612D01*
X189209331Y-84655919D01*
X188912011Y-84733724D01*
X188499452Y-84837818D01*
X188188851Y-84916811D01*
X187848025Y-85005963D01*
X187571593Y-85081070D01*
X187382056Y-85135990D01*
X187301912Y-85164585D01*
X187299885Y-85221446D01*
X187377144Y-85322078D01*
X187535497Y-85403586D01*
X187795623Y-85415045D01*
X188086474Y-85389599D01*
X187957830Y-85636577D01*
X187897318Y-85740986D01*
X187777698Y-85860383D01*
X187612092Y-85905434D01*
X187601466Y-85906600D01*
X187418467Y-85946884D01*
X187211283Y-86019570D01*
X187043004Y-86094945D01*
X187010498Y-86109506D01*
X186846692Y-86201543D01*
X186750448Y-86280532D01*
X186752349Y-86331323D01*
X186755775Y-86332758D01*
X186862479Y-86341824D01*
X187079800Y-86339167D01*
X187385174Y-86325755D01*
X187756036Y-86302556D01*
X188169824Y-86270537D01*
X189489468Y-86159139D01*
X189263486Y-86303454D01*
X189259121Y-86306199D01*
X189120469Y-86380672D01*
X188881853Y-86496587D01*
X188566990Y-86642912D01*
X188199596Y-86808617D01*
X187803390Y-86982664D01*
X187422326Y-87151349D01*
X187074171Y-87313644D01*
X186812340Y-87445474D01*
X186650081Y-87540140D01*
X186600641Y-87590943D01*
X186687695Y-87649911D01*
X186869461Y-87662236D01*
X187110588Y-87625710D01*
X187377393Y-87542436D01*
X187532881Y-87483063D01*
X187654993Y-87452361D01*
X187722346Y-87475859D01*
X187774991Y-87554798D01*
X187807243Y-87603345D01*
X187872987Y-87649209D01*
X187987602Y-87670886D01*
X188179915Y-87672634D01*
X188478751Y-87658705D01*
X188532109Y-87655718D01*
X188807603Y-87642476D01*
X188977891Y-87643775D01*
X189069286Y-87664904D01*
X189108103Y-87711159D01*
X189120656Y-87787833D01*
X189123532Y-87845734D01*
X189099238Y-87918432D01*
X189006858Y-87952339D01*
X188812521Y-87967169D01*
X188696217Y-87974294D01*
X188428841Y-87995831D01*
X188101822Y-88026221D01*
X187761482Y-88061314D01*
X187032965Y-88140550D01*
X187068718Y-88324900D01*
X187079120Y-88386773D01*
X187068495Y-88474044D01*
X186986754Y-88522219D01*
X186802064Y-88559275D01*
X186780825Y-88562510D01*
X186550569Y-88580591D01*
X186251598Y-88584650D01*
X185942952Y-88573697D01*
X185870508Y-88569593D01*
X185534041Y-88566272D01*
X185270118Y-88590287D01*
X185099432Y-88638551D01*
X185042675Y-88707976D01*
X185069280Y-88739850D01*
X185187801Y-88821849D01*
X185368275Y-88923060D01*
X185491862Y-88991031D01*
X185636148Y-89085393D01*
X185694462Y-89146254D01*
X185686722Y-89162161D01*
X185590638Y-89209011D01*
X185419037Y-89249308D01*
X185418488Y-89249397D01*
X185211188Y-89304809D01*
X185129903Y-89375571D01*
X185177406Y-89449866D01*
X185356471Y-89515880D01*
X185404883Y-89528112D01*
X185535883Y-89582265D01*
X185531181Y-89636432D01*
X185475002Y-89660303D01*
X185304980Y-89655726D01*
X185107118Y-89590386D01*
X184935595Y-89478640D01*
X184822686Y-89404676D01*
X184673242Y-89369607D01*
X184598293Y-89388195D01*
X184572558Y-89457612D01*
X184606290Y-89615037D01*
X184671693Y-89848889D01*
X184300613Y-89735762D01*
X183976614Y-89649254D01*
X183707619Y-89608462D01*
X183543768Y-89626589D01*
X183493519Y-89703969D01*
X183489385Y-89758339D01*
X183435388Y-89818774D01*
X183401152Y-89828770D01*
X183372873Y-89898043D01*
X183417789Y-89988513D01*
X183517338Y-90048214D01*
X183596067Y-90079292D01*
X183696603Y-90173498D01*
X183697739Y-90175866D01*
X183702262Y-90220968D01*
X183646408Y-90229082D01*
X183513986Y-90196244D01*
X183288812Y-90118493D01*
X182954695Y-89991864D01*
X182889798Y-89967270D01*
X182697073Y-89908925D01*
X182557547Y-89907043D01*
X182416918Y-89958228D01*
X182236525Y-90018272D01*
X182089945Y-89990705D01*
X182046554Y-89973499D01*
X181892177Y-89968738D01*
X181660788Y-90031726D01*
X181578160Y-90058965D01*
X181357725Y-90120191D01*
X181190953Y-90151485D01*
X181164706Y-90154228D01*
X181064424Y-90193627D01*
X181068838Y-90290822D01*
X181076460Y-90314306D01*
X181069839Y-90435654D01*
X180956401Y-90474145D01*
X180737197Y-90429339D01*
X180563988Y-90377124D01*
X180453186Y-90362011D01*
X180425200Y-90406138D01*
X180455306Y-90517210D01*
X180465029Y-90545309D01*
X180494793Y-90642875D01*
X180496694Y-90672398D01*
X180499781Y-90720313D01*
X180466185Y-90781705D01*
X180380194Y-90831132D01*
X180228000Y-90872677D01*
X179995794Y-90910421D01*
X179669765Y-90948446D01*
X179236105Y-90990834D01*
X178681006Y-91041666D01*
X178214242Y-91086344D01*
X177571929Y-91154771D01*
X176951922Y-91228363D01*
X176373068Y-91304470D01*
X175854219Y-91380441D01*
X175414224Y-91453623D01*
X175071933Y-91521366D01*
X174846196Y-91581019D01*
X174842223Y-91582650D01*
X174885202Y-91587933D01*
X175048043Y-91581464D01*
X175317198Y-91564458D01*
X175679111Y-91538126D01*
X176120232Y-91503682D01*
X176627009Y-91462338D01*
X177185893Y-91415308D01*
X177783329Y-91363806D01*
X178405768Y-91309043D01*
X179039655Y-91252233D01*
X179671444Y-91194590D01*
X180287577Y-91137326D01*
X180874508Y-91081654D01*
X181418682Y-91028788D01*
X181906549Y-90979940D01*
X182324556Y-90936323D01*
X182659153Y-90899151D01*
X182896787Y-90869636D01*
X183023908Y-90848993D01*
X183093324Y-90833667D01*
X183313726Y-90806238D01*
X183418921Y-90837437D01*
X183414185Y-90877324D01*
X183412743Y-90889474D01*
X183292904Y-90922022D01*
X183260305Y-90925422D01*
X183094526Y-90945678D01*
X182825441Y-90980446D01*
X182475299Y-91026789D01*
X182066357Y-91081776D01*
X181620865Y-91142471D01*
X181577596Y-91148368D01*
X181153254Y-91203646D01*
X180622246Y-91269277D01*
X180009949Y-91342312D01*
X179341738Y-91419806D01*
X178642991Y-91498808D01*
X177939083Y-91576373D01*
X177255392Y-91649551D01*
X177064035Y-91669655D01*
X176012434Y-91778845D01*
X175017605Y-91879954D01*
X174086657Y-91972357D01*
X173226703Y-92055428D01*
X172444857Y-92128543D01*
X171748228Y-92191077D01*
X171143930Y-92242402D01*
X170639075Y-92281894D01*
X170240774Y-92308928D01*
X169956140Y-92322879D01*
X169792283Y-92323120D01*
X169756318Y-92309027D01*
X169812735Y-92273250D01*
X170047402Y-92169524D01*
X170387792Y-92068622D01*
X170841418Y-91968817D01*
X171415789Y-91868379D01*
X172118417Y-91765581D01*
X172378671Y-91730068D01*
X172922810Y-91654687D01*
X174528887Y-91654687D01*
X174565674Y-91685555D01*
X174596543Y-91648768D01*
X174559755Y-91617900D01*
X174528887Y-91654687D01*
X172922810Y-91654687D01*
X173083537Y-91632421D01*
X173741358Y-91539183D01*
X174339616Y-91452250D01*
X174865792Y-91373515D01*
X175307367Y-91304871D01*
X175651822Y-91248212D01*
X175886641Y-91205433D01*
X175999302Y-91178429D01*
X176034014Y-91160499D01*
X176064232Y-91101811D01*
X176253036Y-91101811D01*
X176298813Y-91110122D01*
X176446833Y-91107831D01*
X176661324Y-91093166D01*
X176710217Y-91088688D01*
X176924615Y-91059129D01*
X177032361Y-91017823D01*
X177058381Y-90956168D01*
X177047206Y-90910172D01*
X176986406Y-90860204D01*
X176938831Y-90838196D01*
X176873389Y-90741368D01*
X177721327Y-90741368D01*
X177734941Y-90896977D01*
X177737900Y-90930805D01*
X178817648Y-90836339D01*
X178796953Y-90805866D01*
X178971143Y-90805866D01*
X178975436Y-90822534D01*
X178980895Y-90843731D01*
X179081868Y-90870415D01*
X179299908Y-90862320D01*
X179456772Y-90843916D01*
X179591300Y-90805418D01*
X179613875Y-90749634D01*
X179602563Y-90734140D01*
X179486731Y-90694328D01*
X179285110Y-90693180D01*
X179228086Y-90699457D01*
X179049517Y-90742685D01*
X178971143Y-90805866D01*
X178796953Y-90805866D01*
X178675617Y-90627200D01*
X178601790Y-90531838D01*
X178466137Y-90424715D01*
X178358084Y-90425014D01*
X178298176Y-90537616D01*
X178282216Y-90594362D01*
X178198180Y-90679229D01*
X178090562Y-90658386D01*
X178003752Y-90532590D01*
X177954061Y-90424114D01*
X177899712Y-90371257D01*
X177816873Y-90416094D01*
X177740857Y-90555801D01*
X177721327Y-90741368D01*
X176873389Y-90741368D01*
X176868524Y-90734169D01*
X176838055Y-90678907D01*
X176726308Y-90617402D01*
X176580869Y-90675318D01*
X176416526Y-90848898D01*
X176377896Y-90902383D01*
X176287880Y-91035594D01*
X176253036Y-91101811D01*
X176064232Y-91101811D01*
X176077410Y-91076218D01*
X176052755Y-90909132D01*
X176029065Y-90690824D01*
X176052469Y-90458047D01*
X176058070Y-90435255D01*
X176085292Y-90283970D01*
X176081113Y-90209280D01*
X176023987Y-90220049D01*
X175948468Y-90313725D01*
X175886544Y-90447407D01*
X175865990Y-90574002D01*
X175853673Y-90668471D01*
X175769041Y-90750714D01*
X175580862Y-90832686D01*
X175498569Y-90861268D01*
X175291250Y-90922995D01*
X175142869Y-90953319D01*
X175064887Y-90950803D01*
X175022759Y-90893820D01*
X175030246Y-90741607D01*
X175040519Y-90632297D01*
X175028245Y-90570167D01*
X174976424Y-90609968D01*
X174880527Y-90683401D01*
X174697304Y-90700220D01*
X174498665Y-90594956D01*
X174498409Y-90594740D01*
X174386997Y-90511027D01*
X174334074Y-90490050D01*
X174329408Y-90501464D01*
X174291298Y-90604880D01*
X174231215Y-90773413D01*
X174172765Y-90909520D01*
X174052569Y-91080045D01*
X173925763Y-91155980D01*
X173814129Y-91119266D01*
X173793416Y-91093062D01*
X173716531Y-90952619D01*
X173636674Y-90761268D01*
X173605905Y-90683620D01*
X173530735Y-90540272D01*
X173471701Y-90485963D01*
X173453224Y-90492628D01*
X173342127Y-90560829D01*
X173164298Y-90686539D01*
X172948429Y-90849811D01*
X172488095Y-91208155D01*
X172368919Y-91068547D01*
X172360912Y-91059176D01*
X172158820Y-90833016D01*
X172024956Y-90714292D01*
X171947893Y-90700766D01*
X171916203Y-90790199D01*
X171918461Y-90980357D01*
X171921951Y-91052620D01*
X171904486Y-91156751D01*
X171823040Y-91207979D01*
X171642042Y-91239675D01*
X171351488Y-91279255D01*
X171347741Y-90992727D01*
X171345587Y-90892117D01*
X171325660Y-90763238D01*
X171259351Y-90713441D01*
X171115771Y-90704319D01*
X171074683Y-90705811D01*
X170850502Y-90749356D01*
X170625686Y-90834756D01*
X170473792Y-90904147D01*
X170348512Y-90928355D01*
X170251281Y-90889360D01*
X170125149Y-90850843D01*
X169880374Y-90840824D01*
X169548538Y-90862999D01*
X169152571Y-90914333D01*
X168715405Y-90991787D01*
X168259970Y-91092323D01*
X167809197Y-91212904D01*
X167575399Y-91279060D01*
X167210626Y-91373805D01*
X166847013Y-91459726D01*
X166506263Y-91532551D01*
X166210080Y-91588004D01*
X165980169Y-91621813D01*
X165838233Y-91629702D01*
X165805975Y-91607398D01*
X165840537Y-91575468D01*
X166006239Y-91482817D01*
X166276483Y-91369153D01*
X166632001Y-91241597D01*
X167053522Y-91107270D01*
X167521780Y-90973294D01*
X167934258Y-90857964D01*
X168421669Y-90709272D01*
X168800260Y-90577133D01*
X169061824Y-90464483D01*
X169198154Y-90374253D01*
X169206837Y-90333787D01*
X169105953Y-90323128D01*
X168886471Y-90355222D01*
X168553743Y-90429007D01*
X168113127Y-90543420D01*
X167569977Y-90697397D01*
X167301925Y-90775302D01*
X166932982Y-90878397D01*
X166619625Y-90956771D01*
X166329985Y-91015734D01*
X166032189Y-91060596D01*
X165694366Y-91096668D01*
X165284644Y-91129257D01*
X164771154Y-91163674D01*
X164371998Y-91184763D01*
X164089462Y-91187183D01*
X163907142Y-91169167D01*
X163807750Y-91129001D01*
X163773997Y-91064976D01*
X163773762Y-91059225D01*
X163799129Y-91008799D01*
X163886290Y-90955008D01*
X164052860Y-90890953D01*
X164316454Y-90809737D01*
X164694687Y-90704463D01*
X164761808Y-90685981D01*
X165182750Y-90550791D01*
X165477695Y-90414548D01*
X165655237Y-90272367D01*
X165723969Y-90119361D01*
X165685253Y-90029569D01*
X165638368Y-90013676D01*
X166415956Y-90013676D01*
X166479452Y-90054272D01*
X166670673Y-90082784D01*
X166711920Y-90085861D01*
X166913230Y-90094651D01*
X167039945Y-90080924D01*
X167144144Y-90039967D01*
X167227548Y-89973154D01*
X167191401Y-89925166D01*
X167047317Y-89902325D01*
X166808941Y-89909922D01*
X166645837Y-89929130D01*
X166473611Y-89969222D01*
X166415956Y-90013676D01*
X165638368Y-90013676D01*
X165540621Y-89980542D01*
X165309615Y-89984663D01*
X165013286Y-90044157D01*
X164902872Y-90071784D01*
X164638760Y-90103895D01*
X164394132Y-90069073D01*
X164282815Y-90048608D01*
X164038778Y-90037308D01*
X163699514Y-90053428D01*
X163246218Y-90097433D01*
X163194361Y-90103173D01*
X162863925Y-90135311D01*
X162583553Y-90155263D01*
X162381477Y-90161421D01*
X162285930Y-90152176D01*
X162259667Y-90131908D01*
X162224203Y-90018538D01*
X162261027Y-89884025D01*
X162357597Y-89791497D01*
X162405912Y-89775753D01*
X162575645Y-89728512D01*
X162836851Y-89659993D01*
X163164492Y-89576718D01*
X163533526Y-89485209D01*
X164050439Y-89352372D01*
X164490627Y-89226588D01*
X164839804Y-89112535D01*
X165087427Y-89013970D01*
X165222962Y-88934648D01*
X165235717Y-88878981D01*
X165484850Y-88878981D01*
X165546769Y-88915894D01*
X165739829Y-88936816D01*
X165949840Y-88944731D01*
X166162148Y-88941048D01*
X166282945Y-88916490D01*
X166338046Y-88868090D01*
X166312835Y-88813410D01*
X166191547Y-88777902D01*
X166011505Y-88763917D01*
X165810997Y-88771987D01*
X165628305Y-88802647D01*
X165501716Y-88856431D01*
X165484850Y-88878981D01*
X165235717Y-88878981D01*
X165235867Y-88878328D01*
X165170396Y-88861875D01*
X164991891Y-88847371D01*
X164733140Y-88840006D01*
X164424485Y-88841167D01*
X163673675Y-88854833D01*
X163711689Y-88629942D01*
X163749704Y-88405051D01*
X164353343Y-88352239D01*
X164430709Y-88344908D01*
X164756926Y-88303793D01*
X165062318Y-88251356D01*
X165289490Y-88197107D01*
X165439184Y-88141114D01*
X165640857Y-88037073D01*
X165644329Y-88034655D01*
X173803131Y-88034655D01*
X173827990Y-88099131D01*
X173927955Y-88123231D01*
X174076491Y-88048759D01*
X174132126Y-87983234D01*
X174085419Y-87903623D01*
X173961180Y-87866382D01*
X173846768Y-87919384D01*
X173803131Y-88034655D01*
X165644329Y-88034655D01*
X165804668Y-87923001D01*
X165901618Y-87820068D01*
X165902709Y-87749444D01*
X165893028Y-87744773D01*
X165780043Y-87728809D01*
X165576096Y-87719355D01*
X165317196Y-87718325D01*
X165108866Y-87718206D01*
X164879106Y-87701683D01*
X164721099Y-87659090D01*
X164596614Y-87583260D01*
X164535048Y-87540337D01*
X164389667Y-87479826D01*
X164185759Y-87449080D01*
X163885058Y-87440417D01*
X163704553Y-87436696D01*
X163409151Y-87411396D01*
X163192993Y-87366217D01*
X163074906Y-87305920D01*
X163073709Y-87235262D01*
X163122545Y-87199162D01*
X163277275Y-87150743D01*
X163533751Y-87115495D01*
X163903230Y-87092090D01*
X164396969Y-87079201D01*
X164756916Y-87069728D01*
X165051216Y-87049178D01*
X165255164Y-87015483D01*
X165392623Y-86965927D01*
X165487473Y-86911463D01*
X165569874Y-86824202D01*
X165524116Y-86742922D01*
X165472094Y-86715725D01*
X173976574Y-86715725D01*
X173982294Y-86724641D01*
X174077792Y-86791642D01*
X174260796Y-86884459D01*
X174497996Y-86985834D01*
X174989558Y-87179790D01*
X174654379Y-87244848D01*
X174573394Y-87259919D01*
X174438780Y-87289026D01*
X174367387Y-87334347D01*
X174348042Y-87425466D01*
X174369574Y-87591972D01*
X174420812Y-87863450D01*
X174430157Y-87902723D01*
X174470853Y-87953599D01*
X174497256Y-87986608D01*
X174648594Y-87996912D01*
X174740974Y-87995487D01*
X174800955Y-88024170D01*
X174760119Y-88078080D01*
X174634322Y-88141822D01*
X174632248Y-88142441D01*
X174439418Y-88200004D01*
X174401658Y-88209023D01*
X174223162Y-88281966D01*
X174178173Y-88376555D01*
X174265995Y-88493968D01*
X174430716Y-88550333D01*
X174678424Y-88523288D01*
X174984959Y-88414263D01*
X175038525Y-88391149D01*
X175210456Y-88339108D01*
X175298950Y-88352705D01*
X175325064Y-88430843D01*
X175248903Y-88530781D01*
X175044545Y-88614869D01*
X174879340Y-88688169D01*
X174823289Y-88785865D01*
X174791182Y-88909810D01*
X174699428Y-89061541D01*
X174692251Y-89070786D01*
X174615987Y-89194923D01*
X174607872Y-89265634D01*
X174679823Y-89275969D01*
X174855360Y-89257153D01*
X175095961Y-89212523D01*
X175366746Y-89150212D01*
X175632834Y-89078347D01*
X175859347Y-89005060D01*
X176011405Y-88938481D01*
X176100379Y-88889726D01*
X176257947Y-88838480D01*
X176392812Y-88864075D01*
X176485781Y-88919229D01*
X176546386Y-89000182D01*
X176571075Y-89035802D01*
X176684788Y-89021432D01*
X176897759Y-88925446D01*
X176952070Y-88907904D01*
X177015710Y-88944175D01*
X177012337Y-89042049D01*
X176960539Y-89121628D01*
X176935352Y-89160324D01*
X176914295Y-89183895D01*
X176855172Y-89347579D01*
X176893114Y-89517352D01*
X177017819Y-89634038D01*
X177103221Y-89659671D01*
X177206360Y-89630941D01*
X177333067Y-89507806D01*
X177340560Y-89499428D01*
X177518858Y-89351690D01*
X177713092Y-89255404D01*
X177752309Y-89243061D01*
X177885005Y-89166400D01*
X177915180Y-89049035D01*
X177916735Y-88955176D01*
X177951637Y-88812531D01*
X177972931Y-88781768D01*
X178050919Y-88775664D01*
X178143658Y-88889672D01*
X178241815Y-89114093D01*
X178294426Y-89230526D01*
X178400015Y-89339874D01*
X178506563Y-89327164D01*
X178594441Y-89188265D01*
X178602768Y-89165562D01*
X178682548Y-89032654D01*
X178789752Y-89020829D01*
X178948728Y-89125792D01*
X178964569Y-89139001D01*
X179070372Y-89209681D01*
X179167440Y-89205794D01*
X179317107Y-89127650D01*
X179366186Y-89099612D01*
X179576500Y-89008265D01*
X179722001Y-89012571D01*
X179828490Y-89111730D01*
X179875524Y-89174508D01*
X179969946Y-89236174D01*
X180018704Y-89180173D01*
X179999074Y-89018871D01*
X179977403Y-88872848D01*
X180027990Y-88699939D01*
X180155530Y-88607214D01*
X180330902Y-88610836D01*
X180524991Y-88726967D01*
X180557992Y-88759381D01*
X180701064Y-88928525D01*
X180839270Y-89125558D01*
X181000929Y-89384110D01*
X181090044Y-89109114D01*
X181106469Y-89052919D01*
X181142631Y-88841597D01*
X181135221Y-88679074D01*
X181131476Y-88664641D01*
X181144940Y-88548371D01*
X181245646Y-88513024D01*
X181413700Y-88558390D01*
X181629210Y-88684262D01*
X181835560Y-88800185D01*
X182102958Y-88844565D01*
X182324949Y-88825143D01*
X182059383Y-88533853D01*
X182044058Y-88516970D01*
X181899488Y-88341717D01*
X181843435Y-88226130D01*
X181862410Y-88143468D01*
X181867115Y-88136388D01*
X181894310Y-88015182D01*
X181837089Y-87835586D01*
X181776470Y-87680775D01*
X181776881Y-87602669D01*
X181851283Y-87602223D01*
X182012187Y-87679397D01*
X182272103Y-87834151D01*
X182317611Y-87838935D01*
X182443928Y-87787545D01*
X182589501Y-87688593D01*
X182708173Y-87575752D01*
X182753791Y-87482699D01*
X182750004Y-87473264D01*
X182667540Y-87412685D01*
X182512400Y-87342919D01*
X182492846Y-87335234D01*
X182309579Y-87226706D01*
X182184494Y-87093951D01*
X182168599Y-87065870D01*
X182134583Y-86991195D01*
X182145344Y-86932629D01*
X182220595Y-86872074D01*
X182380045Y-86791434D01*
X182643406Y-86672612D01*
X182719265Y-86636795D01*
X182883606Y-86532745D01*
X182918271Y-86455813D01*
X182824476Y-86413847D01*
X182603436Y-86414694D01*
X182490039Y-86422456D01*
X182284739Y-86425544D01*
X182154442Y-86412594D01*
X182143676Y-86409360D01*
X182046937Y-86347858D01*
X182072028Y-86283501D01*
X182209638Y-86244625D01*
X182332338Y-86212085D01*
X182341190Y-86137261D01*
X182341565Y-86044699D01*
X182416761Y-85915561D01*
X182440698Y-85888760D01*
X182521300Y-85763210D01*
X182508663Y-85697894D01*
X182404069Y-85713262D01*
X182399062Y-85715319D01*
X182211899Y-85746449D01*
X182090209Y-85686151D01*
X182057330Y-85561724D01*
X182136606Y-85400464D01*
X182202814Y-85302736D01*
X182188473Y-85253763D01*
X182080285Y-85281470D01*
X181888655Y-85386448D01*
X181800125Y-85438746D01*
X181653225Y-85509507D01*
X181577440Y-85522339D01*
X181563025Y-85488999D01*
X181611589Y-85384506D01*
X181742299Y-85249424D01*
X181932634Y-85109904D01*
X181970183Y-85085546D01*
X182140478Y-84954983D01*
X182254202Y-84837156D01*
X182299860Y-84761361D01*
X182273718Y-84739349D01*
X182142075Y-84776517D01*
X181979952Y-84819639D01*
X181733437Y-84873097D01*
X181460305Y-84924028D01*
X181320079Y-84947580D01*
X181128348Y-84974300D01*
X181029526Y-84971181D01*
X180996510Y-84934455D01*
X181002195Y-84860355D01*
X181005631Y-84835046D01*
X180975930Y-84726950D01*
X180839890Y-84661331D01*
X180682354Y-84630736D01*
X180490133Y-84622542D01*
X180388645Y-84608575D01*
X180353422Y-84540670D01*
X180408519Y-84449805D01*
X180546123Y-84371056D01*
X180554975Y-84367930D01*
X180648981Y-84312729D01*
X180684641Y-84210957D01*
X180678256Y-84019215D01*
X180667908Y-83926592D01*
X180625937Y-83772939D01*
X180556415Y-83730482D01*
X180516123Y-83741194D01*
X180438313Y-83826032D01*
X180384117Y-83852827D01*
X180267631Y-83761944D01*
X180148236Y-83669339D01*
X180049247Y-83675531D01*
X179998939Y-83805269D01*
X179999727Y-84055905D01*
X180008239Y-84212247D01*
X179990273Y-84352366D01*
X179931326Y-84398735D01*
X179864604Y-84388309D01*
X179734344Y-84284720D01*
X179629328Y-84101941D01*
X179575058Y-83877296D01*
X179560626Y-83767268D01*
X179507733Y-83649511D01*
X179397593Y-83602140D01*
X179180371Y-83580966D01*
X179049170Y-83619284D01*
X179016384Y-83725483D01*
X179043115Y-83807291D01*
X179152360Y-83916035D01*
X179200957Y-83939435D01*
X179240221Y-83972186D01*
X179158574Y-83987053D01*
X179122290Y-83995060D01*
X179064321Y-84066890D01*
X179061072Y-84236265D01*
X179045558Y-84411483D01*
X178970231Y-84483679D01*
X178854014Y-84454967D01*
X178716074Y-84330171D01*
X178575573Y-84114112D01*
X178575075Y-84113158D01*
X178466846Y-83972789D01*
X178353190Y-83923240D01*
X178313510Y-83920766D01*
X178156019Y-83873147D01*
X177966267Y-83783288D01*
X177884027Y-83740194D01*
X177736422Y-83679552D01*
X177662313Y-83674388D01*
X177658171Y-83686033D01*
X177683332Y-83786910D01*
X177760101Y-83940693D01*
X177762004Y-83944083D01*
X177807221Y-84024595D01*
X177871532Y-84192652D01*
X177837720Y-84291068D01*
X177694214Y-84333611D01*
X177429440Y-84334045D01*
X177248052Y-84317711D01*
X177008383Y-84274550D01*
X176842694Y-84218772D01*
X176839002Y-84216797D01*
X176721419Y-84169601D01*
X176676810Y-84201400D01*
X176703536Y-84325045D01*
X176799952Y-84553391D01*
X176851150Y-84682182D01*
X176858094Y-84786679D01*
X176782492Y-84796578D01*
X176619600Y-84711643D01*
X176364677Y-84531636D01*
X176353498Y-84523256D01*
X176164236Y-84391006D01*
X176020749Y-84307890D01*
X175953328Y-84291585D01*
X175952759Y-84302444D01*
X176011448Y-84386064D01*
X176145330Y-84526212D01*
X176283828Y-84654318D01*
X176332529Y-84699365D01*
X176393124Y-84753062D01*
X176574354Y-84918575D01*
X176701702Y-85042506D01*
X176750669Y-85101306D01*
X176714862Y-85153111D01*
X176575114Y-85191710D01*
X176359761Y-85199145D01*
X176100791Y-85171940D01*
X175841372Y-85135815D01*
X175557537Y-85124866D01*
X175384790Y-85161290D01*
X175378330Y-85171358D01*
X175331528Y-85244296D01*
X175341719Y-85290264D01*
X175395131Y-85340992D01*
X175454123Y-85353991D01*
X175580705Y-85415371D01*
X175584837Y-85417919D01*
X175673230Y-85529860D01*
X175653653Y-85656860D01*
X175544111Y-85765360D01*
X175362611Y-85821804D01*
X175029646Y-85868037D01*
X174784809Y-85945643D01*
X174672941Y-86050732D01*
X174694064Y-86183285D01*
X174848198Y-86343277D01*
X174849771Y-86344540D01*
X174861114Y-86353652D01*
X174984178Y-86476847D01*
X175039087Y-86577068D01*
X174998979Y-86655309D01*
X174897977Y-86672707D01*
X174801275Y-86615872D01*
X174723729Y-86558657D01*
X174572552Y-86497489D01*
X174479107Y-86484732D01*
X174300949Y-86503979D01*
X174129132Y-86559393D01*
X174006671Y-86635225D01*
X173976574Y-86715725D01*
X165472094Y-86715725D01*
X165347801Y-86650745D01*
X165255110Y-86619768D01*
X165092436Y-86593401D01*
X164864778Y-86583907D01*
X164548788Y-86590557D01*
X164121117Y-86612628D01*
X163963809Y-86622004D01*
X163621941Y-86640575D01*
X163386749Y-86647815D01*
X163237158Y-86642021D01*
X163152092Y-86621491D01*
X163110474Y-86584522D01*
X163091228Y-86529411D01*
X163071885Y-86474145D01*
X162986123Y-86405250D01*
X162807511Y-86387329D01*
X162671878Y-86378823D01*
X162603412Y-86357380D01*
X172995581Y-86357380D01*
X173080964Y-86403699D01*
X173163632Y-86434468D01*
X173350424Y-86476493D01*
X173536563Y-86493542D01*
X173678328Y-86483020D01*
X173731996Y-86442333D01*
X173684432Y-86379168D01*
X173540264Y-86320003D01*
X173344751Y-86290450D01*
X173144037Y-86301559D01*
X173021536Y-86328303D01*
X172995581Y-86357380D01*
X162603412Y-86357380D01*
X162504483Y-86326396D01*
X162438458Y-86238206D01*
X162490921Y-86128262D01*
X162499675Y-86119930D01*
X162607385Y-86055240D01*
X162773618Y-86018103D01*
X163023755Y-86005254D01*
X163383174Y-86013424D01*
X163545656Y-86018472D01*
X163710949Y-86012504D01*
X163786939Y-85984340D01*
X163801809Y-85928246D01*
X163808760Y-85875382D01*
X163863545Y-85810038D01*
X164405032Y-85810038D01*
X164467262Y-85910929D01*
X164631585Y-86019089D01*
X164862316Y-86110079D01*
X165124067Y-86166364D01*
X165265990Y-86179402D01*
X165560635Y-86181764D01*
X165841066Y-86156426D01*
X166076922Y-86108585D01*
X166237844Y-86043437D01*
X166293473Y-85966180D01*
X166285933Y-85949111D01*
X166193124Y-85877280D01*
X166029909Y-85799982D01*
X165921899Y-85770750D01*
X165701830Y-85740032D01*
X165431257Y-85721742D01*
X165141157Y-85715692D01*
X164862506Y-85721688D01*
X164626284Y-85739539D01*
X164463467Y-85769053D01*
X164405032Y-85810038D01*
X163863545Y-85810038D01*
X163890876Y-85777440D01*
X163970504Y-85713900D01*
X163956812Y-85631024D01*
X163821172Y-85565148D01*
X163759148Y-85541103D01*
X163775195Y-85509737D01*
X163896430Y-85482531D01*
X164104926Y-85460725D01*
X164382750Y-85445561D01*
X164711974Y-85438276D01*
X165074666Y-85440111D01*
X165452898Y-85452307D01*
X165735661Y-85465187D01*
X166267831Y-85486541D01*
X166684581Y-85498116D01*
X166999720Y-85499865D01*
X167227056Y-85491745D01*
X167380397Y-85473709D01*
X167473548Y-85445712D01*
X167493366Y-85418681D01*
X167414076Y-85381771D01*
X167211404Y-85340917D01*
X166879218Y-85294558D01*
X166369888Y-85237022D01*
X165944129Y-85204245D01*
X165609097Y-85199553D01*
X165343249Y-85222685D01*
X165125037Y-85273379D01*
X165051288Y-85295022D01*
X164898984Y-85322350D01*
X164837884Y-85302951D01*
X164860140Y-85265620D01*
X164967906Y-85230648D01*
X165076334Y-85205405D01*
X165092657Y-85157905D01*
X165007020Y-85108158D01*
X164834932Y-85074391D01*
X164834847Y-85074383D01*
X164554663Y-85022157D01*
X164372163Y-84935416D01*
X164296577Y-84827352D01*
X164337132Y-84711155D01*
X164503056Y-84600016D01*
X164583051Y-84573464D01*
X164760325Y-84553366D01*
X165019833Y-84561010D01*
X165386961Y-84596292D01*
X165579034Y-84616726D01*
X165878839Y-84637943D01*
X166065115Y-84631610D01*
X166150935Y-84597755D01*
X166167311Y-84562248D01*
X166116633Y-84486191D01*
X165967264Y-84417090D01*
X165744772Y-84359420D01*
X165474723Y-84317654D01*
X165182683Y-84296263D01*
X164894219Y-84299723D01*
X164634897Y-84332505D01*
X164563028Y-84346348D01*
X164287182Y-84368675D01*
X164071831Y-84321333D01*
X163971130Y-84289812D01*
X169794112Y-84289812D01*
X169810727Y-84342498D01*
X169912715Y-84411598D01*
X170058929Y-84394562D01*
X170080069Y-84382233D01*
X174984457Y-84382233D01*
X175047463Y-84510854D01*
X175173965Y-84647615D01*
X175305716Y-84730967D01*
X175461269Y-84780811D01*
X175581928Y-84776437D01*
X175625817Y-84711887D01*
X175620079Y-84696690D01*
X175536637Y-84614149D01*
X175386912Y-84513687D01*
X175341970Y-84487012D01*
X175197940Y-84391459D01*
X175126317Y-84327322D01*
X175122694Y-84321345D01*
X175037094Y-84281535D01*
X174998093Y-84296913D01*
X174984457Y-84382233D01*
X170080069Y-84382233D01*
X170094828Y-84373625D01*
X170138049Y-84287174D01*
X170084152Y-84207892D01*
X169955007Y-84180768D01*
X169846433Y-84210978D01*
X169794112Y-84289812D01*
X163971130Y-84289812D01*
X163890603Y-84264606D01*
X163742924Y-84247038D01*
X163626840Y-84201053D01*
X163513431Y-84063094D01*
X163490861Y-84026399D01*
X163374816Y-83908474D01*
X163181571Y-83796794D01*
X163015146Y-83728380D01*
X163438833Y-83728380D01*
X163466062Y-83793028D01*
X163586394Y-83851818D01*
X163586977Y-83851983D01*
X163797945Y-83878282D01*
X164068698Y-83870852D01*
X164334433Y-83834920D01*
X164530348Y-83775708D01*
X164571535Y-83748998D01*
X177069176Y-83748998D01*
X177121440Y-83893248D01*
X177158056Y-83935610D01*
X177263109Y-84000547D01*
X177362037Y-84019025D01*
X177402092Y-83975571D01*
X177378988Y-83907315D01*
X177306603Y-83781351D01*
X177220981Y-83666837D01*
X177159423Y-83618638D01*
X177101723Y-83643725D01*
X177090854Y-83678883D01*
X177069176Y-83748998D01*
X164571535Y-83748998D01*
X164596445Y-83732844D01*
X164569190Y-83696740D01*
X164424260Y-83653434D01*
X164396475Y-83647009D01*
X164187020Y-83622225D01*
X163944386Y-83621175D01*
X163710714Y-83640654D01*
X163528149Y-83677458D01*
X163438833Y-83728380D01*
X163015146Y-83728380D01*
X162883284Y-83674174D01*
X162801844Y-83643481D01*
X162576060Y-83553288D01*
X162417814Y-83482253D01*
X162357302Y-83443612D01*
X162395845Y-83428604D01*
X162537091Y-83417037D01*
X162746886Y-83415998D01*
X162902012Y-83413507D01*
X163181501Y-83386320D01*
X163406350Y-83338326D01*
X163650126Y-83288954D01*
X163950354Y-83322470D01*
X163988575Y-83331393D01*
X164237814Y-83364171D01*
X164463403Y-83360303D01*
X164489323Y-83357386D01*
X164723880Y-83365194D01*
X164960337Y-83415886D01*
X164986551Y-83424265D01*
X165232090Y-83474036D01*
X165463847Y-83482912D01*
X165696632Y-83493679D01*
X165921198Y-83550093D01*
X165936162Y-83556098D01*
X166126549Y-83598978D01*
X166139887Y-83601982D01*
X166271801Y-83561424D01*
X166311095Y-83440288D01*
X166290413Y-83404051D01*
X166150999Y-83310385D01*
X165881511Y-83185500D01*
X165483190Y-83030012D01*
X165427699Y-83009425D01*
X165132440Y-82895770D01*
X164896906Y-82798245D01*
X164743849Y-82726650D01*
X164696013Y-82690790D01*
X164709573Y-82686718D01*
X164823205Y-82699560D01*
X165023054Y-82742887D01*
X165276894Y-82810082D01*
X165342779Y-82828611D01*
X165624701Y-82903089D01*
X165870507Y-82961070D01*
X166033205Y-82991294D01*
X166114057Y-82996561D01*
X166130682Y-82976165D01*
X166044930Y-82916695D01*
X165846760Y-82808298D01*
X165648357Y-82709193D01*
X165472709Y-82633049D01*
X165376265Y-82605854D01*
X165313443Y-82571779D01*
X165244198Y-82453030D01*
X165146989Y-82294523D01*
X164907323Y-82098200D01*
X164542802Y-81909440D01*
X164059547Y-81731966D01*
X163898662Y-81678811D01*
X163627275Y-81577986D01*
X163414741Y-81484814D01*
X163296904Y-81414229D01*
X163228612Y-81340552D01*
X163232058Y-81303696D01*
X163322280Y-81304176D01*
X163513858Y-81342085D01*
X163821373Y-81417511D01*
X163822642Y-81417834D01*
X164134079Y-81484837D01*
X164453188Y-81534156D01*
X164711080Y-81555136D01*
X164941541Y-81571042D01*
X165116433Y-81626089D01*
X165260441Y-81737899D01*
X165338422Y-81805497D01*
X165596874Y-81939686D01*
X165876754Y-81985558D01*
X166128000Y-81931919D01*
X166252105Y-81853746D01*
X166302601Y-81784736D01*
X166302367Y-81783294D01*
X166238885Y-81723244D01*
X166085828Y-81626310D01*
X165875059Y-81512763D01*
X165638183Y-81384101D01*
X165319744Y-81158233D01*
X165318537Y-81156811D01*
X167238044Y-81156811D01*
X167250857Y-81206325D01*
X167372428Y-81306958D01*
X167398454Y-81325374D01*
X167563444Y-81415097D01*
X167691303Y-81445187D01*
X167735689Y-81432774D01*
X167722875Y-81383260D01*
X167601304Y-81282626D01*
X167575278Y-81264211D01*
X167410288Y-81174488D01*
X167282429Y-81144398D01*
X167238044Y-81156811D01*
X165318537Y-81156811D01*
X165221389Y-81042351D01*
X167601711Y-81042351D01*
X167645630Y-81153687D01*
X167757490Y-81271116D01*
X167855619Y-81364180D01*
X167886744Y-81419558D01*
X167910526Y-81461871D01*
X167971476Y-81537771D01*
X168110944Y-81609771D01*
X168225515Y-81656437D01*
X168441714Y-81758087D01*
X168675703Y-81878954D01*
X168850232Y-81964583D01*
X169089696Y-82058192D01*
X169274876Y-82104072D01*
X169502697Y-82127768D01*
X169353760Y-81983870D01*
X169267151Y-81917027D01*
X180717464Y-81917027D01*
X180717869Y-81917358D01*
X180788099Y-81900308D01*
X180888768Y-81813457D01*
X180977682Y-81701066D01*
X181012640Y-81607400D01*
X180996907Y-81550071D01*
X180927192Y-81517692D01*
X180835480Y-81575992D01*
X180757362Y-81710583D01*
X180719051Y-81845369D01*
X180717464Y-81917027D01*
X169267151Y-81917027D01*
X169262431Y-81913384D01*
X169066721Y-81787117D01*
X168807391Y-81634079D01*
X168515866Y-81473414D01*
X168265137Y-81337197D01*
X168135263Y-81263269D01*
X169938874Y-81263269D01*
X170008370Y-81381281D01*
X170147679Y-81512830D01*
X170159451Y-81521733D01*
X170374414Y-81678693D01*
X170508961Y-81759511D01*
X170585863Y-81774712D01*
X170627888Y-81734821D01*
X170617711Y-81691107D01*
X170531398Y-81581969D01*
X170463495Y-81516380D01*
X184140675Y-81516380D01*
X184172960Y-81561023D01*
X184279799Y-81562108D01*
X184417397Y-81505815D01*
X184539966Y-81404926D01*
X184595712Y-81333284D01*
X184655592Y-81211508D01*
X184614004Y-81167853D01*
X184474173Y-81211790D01*
X184354919Y-81276518D01*
X184299973Y-81319795D01*
X184193767Y-81403447D01*
X184140675Y-81516380D01*
X170463495Y-81516380D01*
X170390848Y-81446208D01*
X170230459Y-81313729D01*
X170084631Y-81214441D01*
X169987760Y-81178253D01*
X169953647Y-81189040D01*
X169938874Y-81263269D01*
X168135263Y-81263269D01*
X168025034Y-81200524D01*
X167852837Y-81095325D01*
X167774889Y-81037110D01*
X167754219Y-81014479D01*
X167659205Y-80972932D01*
X167638918Y-80977116D01*
X167601711Y-81042351D01*
X165221389Y-81042351D01*
X165125414Y-80929272D01*
X165047862Y-80689927D01*
X165028039Y-80463349D01*
X165465849Y-80597338D01*
X165895591Y-80725701D01*
X166326550Y-80845512D01*
X166650628Y-80924012D01*
X166860883Y-80959550D01*
X166950373Y-80950476D01*
X166961633Y-80916732D01*
X166914457Y-80798443D01*
X166785902Y-80639148D01*
X166598581Y-80461389D01*
X166375106Y-80287707D01*
X166138083Y-80140645D01*
X166084129Y-80111521D01*
X165908447Y-80011077D01*
X165814755Y-79947570D01*
X165822405Y-79933686D01*
X165897945Y-79948571D01*
X166007999Y-79958439D01*
X166053030Y-79977980D01*
X166189069Y-80065681D01*
X166388081Y-80207984D01*
X166625008Y-80387465D01*
X166802898Y-80522148D01*
X167007890Y-80667247D01*
X167154315Y-80758518D01*
X167218533Y-80780316D01*
X167225229Y-80749057D01*
X167174305Y-80659091D01*
X167123049Y-80591441D01*
X167034907Y-80441315D01*
X166941321Y-80258100D01*
X166860296Y-80079664D01*
X166809839Y-79943878D01*
X166807956Y-79888614D01*
X166809998Y-79888647D01*
X166894304Y-79921933D01*
X167060226Y-80004824D01*
X167274029Y-80120533D01*
X167378340Y-80175636D01*
X167622272Y-80280115D01*
X167826594Y-80335663D01*
X167964901Y-80336660D01*
X168010787Y-80277478D01*
X167985512Y-80222256D01*
X167900144Y-80081923D01*
X167776204Y-79897019D01*
X167729920Y-79833104D01*
X167469281Y-79545935D01*
X167129824Y-79279631D01*
X166692945Y-79021238D01*
X166212938Y-78792537D01*
X167472469Y-78792537D01*
X167495035Y-78865360D01*
X167624765Y-79044990D01*
X167860178Y-79273811D01*
X168191388Y-79543458D01*
X168608512Y-79845562D01*
X169101665Y-80171753D01*
X169221139Y-80248025D01*
X169515615Y-80439113D01*
X169764790Y-80605124D01*
X169945386Y-80730391D01*
X170034128Y-80799252D01*
X170113199Y-80862153D01*
X170207376Y-80880604D01*
X170239074Y-80804212D01*
X170239000Y-80803575D01*
X170184211Y-80730740D01*
X170042114Y-80589841D01*
X169831527Y-80396817D01*
X169652841Y-80239450D01*
X171151202Y-80239450D01*
X171171554Y-80338827D01*
X171272550Y-80523115D01*
X171313004Y-80581502D01*
X171412330Y-80701565D01*
X171440694Y-80735850D01*
X171598967Y-80903024D01*
X171763443Y-81060347D01*
X171909742Y-81185143D01*
X172013483Y-81254739D01*
X172050286Y-81246458D01*
X172032825Y-81205924D01*
X178048207Y-81205924D01*
X178060315Y-81305585D01*
X178090768Y-81376409D01*
X178103788Y-81406690D01*
X178173499Y-81374843D01*
X178270311Y-81210062D01*
X178316231Y-81094704D01*
X178352992Y-80909818D01*
X178336592Y-80774508D01*
X178267271Y-80726586D01*
X178248308Y-80729868D01*
X178138959Y-80818103D01*
X178065634Y-80991285D01*
X178058044Y-81084767D01*
X178048207Y-81205924D01*
X172032825Y-81205924D01*
X172012611Y-81159000D01*
X171904831Y-80994636D01*
X171752683Y-80792369D01*
X171581956Y-80584757D01*
X171418432Y-80404362D01*
X171287897Y-80283743D01*
X171210869Y-80234744D01*
X171151202Y-80239450D01*
X169652841Y-80239450D01*
X169571264Y-80167606D01*
X169280146Y-79918145D01*
X168976988Y-79664372D01*
X168680608Y-79422227D01*
X168409824Y-79207647D01*
X168183451Y-79036570D01*
X168020308Y-78924933D01*
X167850152Y-78830198D01*
X167649317Y-78748772D01*
X167516127Y-78734455D01*
X167472469Y-78792537D01*
X166212938Y-78792537D01*
X166140039Y-78757804D01*
X166133546Y-78754960D01*
X165774517Y-78597588D01*
X165523443Y-78484768D01*
X165364470Y-78405901D01*
X165281743Y-78350392D01*
X165259406Y-78307641D01*
X165281606Y-78267051D01*
X165332485Y-78218025D01*
X165339752Y-78211239D01*
X165425272Y-78152469D01*
X165524947Y-78140436D01*
X165663496Y-78182287D01*
X165865634Y-78285170D01*
X166156082Y-78456237D01*
X166325692Y-78552208D01*
X166592891Y-78672440D01*
X166803314Y-78726741D01*
X166938602Y-78711402D01*
X166980394Y-78622715D01*
X166925902Y-78513950D01*
X166738624Y-78374315D01*
X166417238Y-78224845D01*
X166372901Y-78206476D01*
X166182165Y-78099502D01*
X166110566Y-78002081D01*
X166160992Y-77926363D01*
X166336330Y-77884498D01*
X166361011Y-77881943D01*
X166518001Y-77829495D01*
X166554707Y-77729103D01*
X166474579Y-77587294D01*
X166281064Y-77410595D01*
X165977613Y-77205536D01*
X165877011Y-77141701D01*
X165662038Y-76977028D01*
X165549136Y-76839700D01*
X165549908Y-76742287D01*
X165585119Y-76743233D01*
X165709037Y-76795224D01*
X165884926Y-76893169D01*
X165912450Y-76909818D01*
X166132018Y-77028050D01*
X166269243Y-77059735D01*
X166345693Y-77003319D01*
X166382930Y-76857245D01*
X166434745Y-76692313D01*
X166529322Y-76571743D01*
X166614407Y-76520775D01*
X166702565Y-76495821D01*
X166694744Y-76562994D01*
X166674965Y-76700729D01*
X166711071Y-76925803D01*
X166795204Y-77188545D01*
X166914207Y-77448668D01*
X167054923Y-77665881D01*
X167107601Y-77727316D01*
X167317629Y-77930200D01*
X167571845Y-78132352D01*
X167841565Y-78315363D01*
X168098108Y-78460833D01*
X168312792Y-78550355D01*
X168456933Y-78565523D01*
X168499623Y-78556515D01*
X168632858Y-78584858D01*
X168776535Y-78719760D01*
X168780433Y-78724427D01*
X169009205Y-78980157D01*
X169262227Y-79233973D01*
X169519978Y-79469677D01*
X169762935Y-79671069D01*
X169971576Y-79821951D01*
X170126378Y-79906123D01*
X170207819Y-79907389D01*
X170194350Y-79828303D01*
X170145672Y-79755422D01*
X184736523Y-79755422D01*
X184747947Y-79785039D01*
X184836453Y-79800481D01*
X185025564Y-79747448D01*
X185080752Y-79703241D01*
X185125004Y-79596994D01*
X185122708Y-79492857D01*
X185065845Y-79450048D01*
X185006692Y-79472754D01*
X184887506Y-79560672D01*
X184780359Y-79670743D01*
X184736523Y-79755422D01*
X170145672Y-79755422D01*
X170091992Y-79675052D01*
X169913302Y-79464575D01*
X169783226Y-79328947D01*
X177690427Y-79328947D01*
X177696004Y-79450510D01*
X177727028Y-79577431D01*
X177792864Y-79609135D01*
X177864648Y-79579185D01*
X177932136Y-79435048D01*
X177932211Y-79430805D01*
X181147399Y-79430805D01*
X181201908Y-79447230D01*
X181222208Y-79441535D01*
X181318704Y-79353377D01*
X181420012Y-79197705D01*
X181497837Y-79024156D01*
X181523888Y-78882365D01*
X181499812Y-78835121D01*
X181434822Y-78870887D01*
X181430157Y-78873454D01*
X181331056Y-79004867D01*
X181218010Y-79212619D01*
X181158894Y-79347850D01*
X181147399Y-79430805D01*
X177932211Y-79430805D01*
X177936700Y-79176933D01*
X177930604Y-79123119D01*
X177889908Y-79015253D01*
X177802559Y-79007355D01*
X177766056Y-79023831D01*
X177705787Y-79124336D01*
X177690427Y-79328947D01*
X169783226Y-79328947D01*
X169671789Y-79212753D01*
X169380963Y-78935465D01*
X169253630Y-78817424D01*
X169123670Y-78691679D01*
X169071740Y-78633125D01*
X169109280Y-78653630D01*
X169126744Y-78666163D01*
X169286011Y-78747955D01*
X169411055Y-78763576D01*
X169428729Y-78751836D01*
X169417198Y-78688666D01*
X169327592Y-78566516D01*
X169151803Y-78375303D01*
X168881723Y-78104935D01*
X168773450Y-77998950D01*
X168513594Y-77745730D01*
X168317343Y-77557941D01*
X168160022Y-77413321D01*
X168016964Y-77289598D01*
X167863491Y-77164507D01*
X167674936Y-77015780D01*
X167632783Y-76981943D01*
X167427426Y-76776255D01*
X167349069Y-76602852D01*
X167358105Y-76489916D01*
X167409799Y-76427104D01*
X167461163Y-76439031D01*
X167614066Y-76527291D01*
X167828674Y-76686478D01*
X168084440Y-76899179D01*
X168360820Y-77147985D01*
X168637268Y-77415482D01*
X168893240Y-77684261D01*
X169067413Y-77873240D01*
X169314352Y-78131944D01*
X169537636Y-78356181D01*
X169704216Y-78512212D01*
X169873312Y-78648144D01*
X170072883Y-78785096D01*
X170247692Y-78883345D01*
X170370394Y-78927816D01*
X170413647Y-78903431D01*
X170374360Y-78832589D01*
X170266000Y-78677699D01*
X170107516Y-78465585D01*
X170722936Y-78465585D01*
X170799187Y-78600999D01*
X170985967Y-78790054D01*
X171082426Y-78874907D01*
X171212194Y-78980293D01*
X171276957Y-79020248D01*
X171294876Y-78977729D01*
X171295281Y-78850560D01*
X171247265Y-78724868D01*
X171136562Y-78576098D01*
X170997788Y-78441932D01*
X170865231Y-78355300D01*
X170773175Y-78349127D01*
X170750228Y-78369337D01*
X170722936Y-78465585D01*
X170107516Y-78465585D01*
X170105583Y-78462998D01*
X169910100Y-78211824D01*
X169908012Y-78209177D01*
X173787736Y-78209177D01*
X173806031Y-78378480D01*
X173853927Y-78541317D01*
X173900103Y-78622667D01*
X173901820Y-78625693D01*
X174007649Y-78764517D01*
X174135474Y-78905511D01*
X174258449Y-79021721D01*
X174349732Y-79086198D01*
X174382477Y-79071987D01*
X174374634Y-79042495D01*
X174320440Y-78908155D01*
X174230297Y-78708647D01*
X174122420Y-78481834D01*
X174015025Y-78265575D01*
X173926327Y-78097734D01*
X173874538Y-78016172D01*
X173834001Y-78002696D01*
X173797555Y-78071290D01*
X173787736Y-78209177D01*
X169908012Y-78209177D01*
X169866624Y-78156717D01*
X169617795Y-77824725D01*
X169449965Y-77557887D01*
X169350699Y-77328515D01*
X169307563Y-77108919D01*
X169308121Y-76871414D01*
X169308366Y-76867925D01*
X169305993Y-76711555D01*
X169266314Y-76556004D01*
X169175463Y-76364147D01*
X169019572Y-76098857D01*
X169006575Y-76077633D01*
X168766697Y-75660608D01*
X168593517Y-75307129D01*
X168491113Y-75028192D01*
X168463559Y-74834786D01*
X168514932Y-74737905D01*
X168518776Y-74736120D01*
X168650949Y-74743700D01*
X168799858Y-74846330D01*
X168933507Y-75013738D01*
X169019898Y-75215652D01*
X169054070Y-75303985D01*
X169162813Y-75501401D01*
X169327447Y-75759274D01*
X169533343Y-76058362D01*
X169765870Y-76379423D01*
X170010398Y-76703216D01*
X170252296Y-77010498D01*
X170476934Y-77282026D01*
X170669679Y-77498557D01*
X170815903Y-77640851D01*
X170900976Y-77689664D01*
X170906838Y-77678401D01*
X170905590Y-77569718D01*
X170884258Y-77370578D01*
X170845781Y-77111747D01*
X170802242Y-76786896D01*
X170796788Y-76501253D01*
X170843581Y-76304513D01*
X170944808Y-76176010D01*
X170947936Y-76173261D01*
X170947505Y-76086905D01*
X170854984Y-75945260D01*
X170852699Y-75942553D01*
X170677685Y-75705888D01*
X170504835Y-75422565D01*
X170346130Y-75119337D01*
X170213552Y-74822959D01*
X170119082Y-74560182D01*
X170074702Y-74357765D01*
X170092394Y-74242458D01*
X170095119Y-74239952D01*
X170174396Y-74252409D01*
X170311105Y-74323430D01*
X170463336Y-74425229D01*
X170589176Y-74530014D01*
X170646716Y-74609998D01*
X170666994Y-74680015D01*
X170772246Y-74886041D01*
X170948198Y-75153006D01*
X171177541Y-75457302D01*
X171442966Y-75775325D01*
X171727165Y-76083470D01*
X171745397Y-76102234D01*
X171982891Y-76356861D01*
X172186988Y-76593478D01*
X172336473Y-76786408D01*
X172410129Y-76909979D01*
X172424525Y-76947626D01*
X172510741Y-77070072D01*
X172645750Y-77093886D01*
X172688819Y-77089262D01*
X172755497Y-77064865D01*
X172784936Y-76996500D01*
X172784290Y-76853853D01*
X172760711Y-76606611D01*
X172728751Y-76388191D01*
X172672778Y-76156976D01*
X172583861Y-75888829D01*
X172452650Y-75555607D01*
X172269791Y-75129166D01*
X172243215Y-75068329D01*
X172028494Y-74545200D01*
X171887470Y-74132587D01*
X171819490Y-73827668D01*
X171823901Y-73627625D01*
X171900054Y-73529634D01*
X171906199Y-73527761D01*
X171990933Y-73573514D01*
X172109262Y-73718745D01*
X172246008Y-73939235D01*
X172385987Y-74210766D01*
X172514021Y-74509117D01*
X172547828Y-74596340D01*
X172710230Y-74994881D01*
X172843818Y-75279276D01*
X172956689Y-75463145D01*
X173056938Y-75560112D01*
X173152658Y-75583800D01*
X173177170Y-75582402D01*
X173376119Y-75627566D01*
X173583515Y-75779039D01*
X173808216Y-76045129D01*
X174059077Y-76434146D01*
X174114890Y-76527123D01*
X174325224Y-76841057D01*
X174504556Y-77048079D01*
X174646438Y-77141776D01*
X174744421Y-77115733D01*
X174755865Y-77095773D01*
X174779106Y-76949021D01*
X174776329Y-76708213D01*
X174750653Y-76403444D01*
X174705193Y-76064807D01*
X174643066Y-75722394D01*
X174567390Y-75406298D01*
X174485197Y-75076617D01*
X174407821Y-74685385D01*
X174351840Y-74308215D01*
X174320736Y-73974380D01*
X174317991Y-73713154D01*
X174347085Y-73553810D01*
X174379090Y-73494598D01*
X174442287Y-73464539D01*
X174561996Y-73520460D01*
X174632069Y-73574319D01*
X174749282Y-73742956D01*
X174855624Y-74014516D01*
X174958453Y-74405425D01*
X174973757Y-74464220D01*
X175071021Y-74716484D01*
X175194872Y-74930133D01*
X175216336Y-74959416D01*
X175294026Y-75093147D01*
X175350616Y-75259406D01*
X175395415Y-75492568D01*
X175437730Y-75827012D01*
X175491139Y-76196159D01*
X175582138Y-76631113D01*
X175689272Y-76998047D01*
X175865598Y-77493925D01*
X175824553Y-76939105D01*
X175819200Y-76857269D01*
X175812256Y-76607727D01*
X175821308Y-76423021D01*
X175845150Y-76338308D01*
X175855532Y-76340423D01*
X175885978Y-76435979D01*
X175919773Y-76655158D01*
X175955729Y-76989164D01*
X175992655Y-77429204D01*
X176032549Y-77899785D01*
X176081914Y-78334097D01*
X176135309Y-78650148D01*
X176194071Y-78857420D01*
X176217951Y-78911403D01*
X176250143Y-78984181D01*
X176318396Y-79077329D01*
X176362862Y-79047445D01*
X176383700Y-78901030D01*
X176381074Y-78644584D01*
X176355144Y-78284608D01*
X176306073Y-77827603D01*
X176234022Y-77280070D01*
X176139153Y-76648510D01*
X176059043Y-76080830D01*
X176040528Y-75877459D01*
X176747536Y-75877459D01*
X176757258Y-76098920D01*
X176784480Y-76388579D01*
X176825779Y-76704770D01*
X176851384Y-76871612D01*
X176895012Y-77120557D01*
X176931346Y-77260086D01*
X176965688Y-77307362D01*
X177003339Y-77279549D01*
X177086871Y-77055996D01*
X177089779Y-76721110D01*
X177004338Y-76288536D01*
X176969825Y-76161413D01*
X176889854Y-75879630D01*
X176834038Y-75714011D01*
X176796348Y-75652843D01*
X176770752Y-75684418D01*
X176751221Y-75797024D01*
X176747536Y-75877459D01*
X176040528Y-75877459D01*
X176002403Y-75458675D01*
X175996311Y-74931706D01*
X176040744Y-74482644D01*
X176135677Y-74094214D01*
X176221177Y-73880494D01*
X176322278Y-73760790D01*
X176446497Y-73759995D01*
X176612242Y-73869425D01*
X176706555Y-73965041D01*
X176813834Y-74120509D01*
X176931179Y-74345080D01*
X177068957Y-74658867D01*
X177237543Y-75081980D01*
X177245832Y-75103258D01*
X177349079Y-75341105D01*
X177430945Y-75478658D01*
X177482697Y-75500987D01*
X177500427Y-75446978D01*
X177523060Y-75276923D01*
X177540558Y-75025590D01*
X177550153Y-74724832D01*
X177554569Y-74525933D01*
X177574323Y-74172198D01*
X177609856Y-73934153D01*
X177663796Y-73798244D01*
X177738766Y-73750916D01*
X177795047Y-73764627D01*
X177863234Y-73855259D01*
X177918824Y-74039063D01*
X177963881Y-74326684D01*
X178000471Y-74728771D01*
X178030660Y-75255970D01*
X178035162Y-75355659D01*
X178051255Y-75838449D01*
X178051592Y-76194586D01*
X178036032Y-76431098D01*
X178004434Y-76555014D01*
X177977107Y-76643479D01*
X177962627Y-76690356D01*
X177953520Y-76950560D01*
X177991782Y-77272507D01*
X178072719Y-77620962D01*
X178191641Y-77960689D01*
X178201354Y-77983534D01*
X178302578Y-78198875D01*
X178391156Y-78350826D01*
X178448883Y-78407751D01*
X178489949Y-78396376D01*
X178569581Y-78287444D01*
X178614664Y-78085619D01*
X178625189Y-77818461D01*
X178601149Y-77513532D01*
X178542534Y-77198391D01*
X178449337Y-76900600D01*
X178391941Y-76748519D01*
X178355226Y-76605938D01*
X178352062Y-76462293D01*
X178382272Y-76274019D01*
X178445678Y-75997556D01*
X178480315Y-75858538D01*
X178560137Y-75599287D01*
X178641022Y-75439086D01*
X178734423Y-75352349D01*
X178847955Y-75301646D01*
X178927801Y-75295699D01*
X178934092Y-75371411D01*
X178914408Y-75542663D01*
X178872817Y-75771757D01*
X178828300Y-75996421D01*
X178782268Y-76253699D01*
X178754485Y-76439901D01*
X178752839Y-76535886D01*
X178782014Y-76728727D01*
X178838958Y-76919848D01*
X178909082Y-77064862D01*
X178977799Y-77119382D01*
X179003927Y-77088203D01*
X179070975Y-76953042D01*
X179162189Y-76735765D01*
X179265624Y-76463592D01*
X179511633Y-75790615D01*
X179771973Y-75090072D01*
X179991110Y-74514937D01*
X180168697Y-74066101D01*
X180304385Y-73744460D01*
X180397830Y-73550904D01*
X180550957Y-73276880D01*
X180645075Y-73467864D01*
G37*
G36*
X176861151Y-86060622D02*
G01*
X177123365Y-86196925D01*
X177347040Y-86421564D01*
X177459408Y-86638970D01*
X177509086Y-86735086D01*
X177569839Y-87072116D01*
X177540280Y-87426232D01*
X177431552Y-87759712D01*
X177255407Y-88036589D01*
X177023598Y-88220899D01*
X177012959Y-88225860D01*
X176804112Y-88258589D01*
X176560348Y-88213982D01*
X176345237Y-88103079D01*
X176122870Y-87875871D01*
X175916212Y-87530669D01*
X175790821Y-87148209D01*
X175767456Y-86776162D01*
X175780208Y-86685110D01*
X175783225Y-86676848D01*
X176015620Y-86676848D01*
X176039069Y-86963721D01*
X176077049Y-87082536D01*
X176160960Y-87142289D01*
X176333404Y-87154820D01*
X176474630Y-87146526D01*
X176586127Y-87097231D01*
X176650475Y-86978716D01*
X176664167Y-86933612D01*
X176670265Y-86708011D01*
X176583317Y-86519039D01*
X176420698Y-86409723D01*
X176218305Y-86394406D01*
X176077070Y-86484600D01*
X176015620Y-86676848D01*
X175783225Y-86676848D01*
X175888742Y-86387894D01*
X176074195Y-86176293D01*
X176313474Y-86050851D01*
X176583490Y-86012113D01*
X176861151Y-86060622D01*
G37*
G36*
X180302179Y-85586380D02*
G01*
X180573017Y-85728129D01*
X180781875Y-85974972D01*
X180831581Y-86071380D01*
X180912949Y-86325125D01*
X180950834Y-86443268D01*
X180975109Y-86822613D01*
X180908866Y-87179599D01*
X180756566Y-87484412D01*
X180522671Y-87707237D01*
X180368171Y-87783260D01*
X180076819Y-87826260D01*
X179794045Y-87753237D01*
X179540187Y-87575780D01*
X179335584Y-87305479D01*
X179200575Y-86953921D01*
X179169793Y-86620007D01*
X179191700Y-86475605D01*
X179475934Y-86475605D01*
X179545273Y-86678249D01*
X179572355Y-86711414D01*
X179722525Y-86780336D01*
X179918151Y-86770292D01*
X180119129Y-86694682D01*
X180285360Y-86566908D01*
X180376739Y-86400373D01*
X180380947Y-86371669D01*
X180333215Y-86206985D01*
X180186172Y-86057005D01*
X179969091Y-85953795D01*
X179940312Y-85946947D01*
X179752824Y-85968676D01*
X179599642Y-86086744D01*
X179500701Y-86267078D01*
X179475934Y-86475605D01*
X179191700Y-86475605D01*
X179221864Y-86276778D01*
X179345074Y-85971133D01*
X179527243Y-85748041D01*
X179696077Y-85640141D01*
X179999740Y-85555219D01*
X180302179Y-85586380D01*
G37*
G36*
X165194683Y-79522728D02*
G01*
X165346232Y-79626815D01*
X165349458Y-79629533D01*
X165455250Y-79744943D01*
X165450704Y-79803730D01*
X165352331Y-79797160D01*
X165176644Y-79716500D01*
X165166790Y-79710732D01*
X165062907Y-79621879D01*
X165078794Y-79540062D01*
X165100359Y-79520724D01*
X165194683Y-79522728D01*
G37*
%TD*%
D16*
%TO.C,J2*%
X234874000Y-86052000D03*
X227874000Y-86052000D03*
D17*
X230274000Y-88352000D03*
X233274000Y-88352000D03*
X225174000Y-83752000D03*
X226274000Y-88352000D03*
%TD*%
D18*
%TO.C,SW16*%
X170636000Y-60316000D03*
D19*
X181356000Y-64516000D03*
X170356000Y-64516000D03*
D18*
X181076000Y-60316000D03*
D20*
X175856000Y-64516000D03*
D21*
X175856000Y-70416000D03*
X170856000Y-68316000D03*
%TD*%
D19*
%TO.C,SW20*%
X227149140Y-100832000D03*
X217622860Y-95332000D03*
D20*
X222386000Y-98082000D03*
D18*
X215765347Y-99109307D03*
X224806653Y-104329307D03*
D21*
X225336000Y-92972450D03*
X228616127Y-97291103D03*
%TD*%
D18*
%TO.C,SW15*%
X152636000Y-67174000D03*
X163076000Y-67174000D03*
D20*
X157856000Y-71374000D03*
D19*
X152356000Y-71374000D03*
X163356000Y-71374000D03*
D21*
X157856000Y-77274000D03*
X152856000Y-75174000D03*
%TD*%
D18*
%TO.C,SW21*%
X197696827Y-92787853D03*
D19*
X209138592Y-91505505D03*
X198513408Y-88658495D03*
D20*
X203826000Y-90082000D03*
D18*
X207781093Y-95489924D03*
D21*
X205353032Y-84383038D03*
X209639142Y-87705577D03*
%TD*%
D20*
%TO.C,SW17*%
X193856000Y-69850000D03*
D19*
X188356000Y-69850000D03*
D18*
X199076000Y-65650000D03*
X188636000Y-65650000D03*
D19*
X199356000Y-69850000D03*
D21*
X193856000Y-75750000D03*
X188856000Y-73650000D03*
%TD*%
D18*
%TO.C,SW18*%
X206616000Y-68190000D03*
D19*
X206336000Y-72390000D03*
X217336000Y-72390000D03*
D20*
X211836000Y-72390000D03*
D18*
X217056000Y-68190000D03*
D21*
X211836000Y-78290000D03*
X206836000Y-76190000D03*
%TD*%
D18*
%TO.C,SW4*%
X170636000Y-26182000D03*
D19*
X181356000Y-30382000D03*
D20*
X175856000Y-30382000D03*
D18*
X181076000Y-26182000D03*
D19*
X170356000Y-30382000D03*
D21*
X175856000Y-36282000D03*
X170856000Y-34182000D03*
%TD*%
D19*
%TO.C,SW3*%
X163356000Y-37382000D03*
D20*
X157856000Y-37382000D03*
D18*
X163076000Y-33182000D03*
X152636000Y-33182000D03*
D19*
X152356000Y-37382000D03*
D21*
X157856000Y-43282000D03*
X152856000Y-41182000D03*
%TD*%
D19*
%TO.C,SW9*%
X163356000Y-54356000D03*
D20*
X157856000Y-54356000D03*
D18*
X163076000Y-50156000D03*
X152636000Y-50156000D03*
D19*
X152356000Y-54356000D03*
D21*
X157856000Y-60256000D03*
X152856000Y-58156000D03*
%TD*%
D20*
%TO.C,SW14*%
X139856000Y-83382000D03*
D19*
X134356000Y-83382000D03*
D18*
X145076000Y-79182000D03*
D19*
X145356000Y-83382000D03*
D18*
X134636000Y-79182000D03*
D21*
X139856000Y-89282000D03*
X134856000Y-87182000D03*
%TD*%
D20*
%TO.C,SW12*%
X211836000Y-55372000D03*
D19*
X206336000Y-55372000D03*
D18*
X206616000Y-51172000D03*
X217056000Y-51172000D03*
D19*
X217336000Y-55372000D03*
D21*
X211836000Y-61272000D03*
X206836000Y-59172000D03*
%TD*%
D20*
%TO.C,SW11*%
X193856000Y-52832000D03*
D18*
X188636000Y-48632000D03*
X199076000Y-48632000D03*
D19*
X199356000Y-52832000D03*
X188356000Y-52832000D03*
D21*
X193856000Y-58732000D03*
X188856000Y-56632000D03*
%TD*%
D20*
%TO.C,SW8*%
X139856000Y-66382000D03*
D19*
X145356000Y-66382000D03*
D18*
X134636000Y-62182000D03*
D19*
X134356000Y-66382000D03*
D18*
X145076000Y-62182000D03*
D21*
X139856000Y-72282000D03*
X134856000Y-70182000D03*
%TD*%
D20*
%TO.C,SW6*%
X211856000Y-38382000D03*
D19*
X206356000Y-38382000D03*
D18*
X217076000Y-34182000D03*
X206636000Y-34182000D03*
D19*
X217356000Y-38382000D03*
D21*
X211856000Y-44282000D03*
X206856000Y-42182000D03*
%TD*%
D19*
%TO.C,SW5*%
X188356000Y-35882000D03*
D18*
X188636000Y-31682000D03*
D19*
X199356000Y-35882000D03*
D20*
X193856000Y-35882000D03*
D18*
X199076000Y-31682000D03*
D21*
X193856000Y-41782000D03*
X188856000Y-39682000D03*
%TD*%
D20*
%TO.C,SW2*%
X139856000Y-49382000D03*
D19*
X145356000Y-49382000D03*
X134356000Y-49382000D03*
D18*
X145076000Y-45182000D03*
X134636000Y-45182000D03*
D21*
X139856000Y-55282000D03*
X134856000Y-53182000D03*
%TD*%
D22*
%TO.C,mouse-bite-2mm-slot*%
X129286000Y-53340000D03*
X129286000Y-50292000D03*
X129286000Y-51308000D03*
X131318000Y-50292000D03*
X131318000Y-51308000D03*
X129286000Y-52324000D03*
X131318000Y-52324000D03*
X131318000Y-53340000D03*
X131318000Y-49276000D03*
X129286000Y-49276000D03*
%TD*%
%TO.C,mouse-bite-2mm-slot*%
X131318000Y-77216000D03*
X131318000Y-74168000D03*
X129286000Y-74168000D03*
X129286000Y-77216000D03*
X129286000Y-75184000D03*
X131318000Y-75184000D03*
X131318000Y-76200000D03*
X129286000Y-73152000D03*
X129286000Y-76200000D03*
X131318000Y-73152000D03*
%TD*%
D23*
%TO.C,RSW1*%
X216740000Y-83058000D03*
X220140000Y-83058000D03*
%TD*%
D19*
%TO.C,SW10*%
X170356000Y-47498000D03*
X181356000Y-47498000D03*
D18*
X181076000Y-43298000D03*
X170636000Y-43298000D03*
D20*
X175856000Y-47498000D03*
D21*
X175856000Y-53398000D03*
X170856000Y-51298000D03*
%TD*%
D15*
%TO.C,B+*%
X235966000Y-50800000D03*
%TD*%
%TO.C,B-*%
X224282000Y-50800000D03*
%TD*%
D16*
%TO.C,J1*%
X32476000Y-86052000D03*
X25476000Y-86052000D03*
D17*
X30076000Y-83752000D03*
X27076000Y-83752000D03*
X35176000Y-88352000D03*
X34076000Y-83752000D03*
%TD*%
D19*
%TO.C,SW17_r1*%
X43186000Y-72390000D03*
D18*
X53906000Y-68190000D03*
X43466000Y-68190000D03*
D19*
X54186000Y-72390000D03*
D20*
X48686000Y-72390000D03*
D21*
X48686000Y-78290000D03*
X43686000Y-76190000D03*
%TD*%
D18*
%TO.C,SW11_r1*%
X61480000Y-48632000D03*
D19*
X72200000Y-52832000D03*
D20*
X66700000Y-52832000D03*
D18*
X71920000Y-48632000D03*
D19*
X61200000Y-52832000D03*
D21*
X66700000Y-58732000D03*
X61700000Y-56632000D03*
%TD*%
D20*
%TO.C,SW15_r1*%
X84688000Y-64516000D03*
D18*
X79468000Y-60316000D03*
X89908000Y-60316000D03*
D19*
X90188000Y-64516000D03*
X79188000Y-64516000D03*
D21*
X84688000Y-70416000D03*
X79688000Y-68316000D03*
%TD*%
D18*
%TO.C,SW18_r1*%
X107934000Y-67174000D03*
X97494000Y-67174000D03*
D19*
X108214000Y-71374000D03*
X97214000Y-71374000D03*
D20*
X102714000Y-71374000D03*
D21*
X102714000Y-77274000D03*
X97714000Y-75174000D03*
%TD*%
D19*
%TO.C,SW6_r1*%
X54186000Y-38382000D03*
D18*
X43466000Y-34182000D03*
X53906000Y-34182000D03*
D19*
X43186000Y-38382000D03*
D20*
X48686000Y-38382000D03*
D21*
X48686000Y-44282000D03*
X43686000Y-42182000D03*
%TD*%
D19*
%TO.C,SW5_r1*%
X61200000Y-35882000D03*
D18*
X61480000Y-31682000D03*
D20*
X66700000Y-35882000D03*
D18*
X71920000Y-31682000D03*
D19*
X72200000Y-35882000D03*
D21*
X66700000Y-41782000D03*
X61700000Y-39682000D03*
%TD*%
D19*
%TO.C,SW2_r1*%
X126232000Y-49382000D03*
D18*
X115512000Y-45182000D03*
X125952000Y-45182000D03*
D19*
X115232000Y-49382000D03*
D20*
X120732000Y-49382000D03*
D21*
X120732000Y-55282000D03*
X115732000Y-53182000D03*
%TD*%
D20*
%TO.C,SW16_r1*%
X66700000Y-69850000D03*
D19*
X61200000Y-69850000D03*
X72200000Y-69850000D03*
D18*
X71920000Y-65650000D03*
X61480000Y-65650000D03*
D21*
X66700000Y-75750000D03*
X61700000Y-73650000D03*
%TD*%
D18*
%TO.C,SW4_r1*%
X89908000Y-26182000D03*
D20*
X84688000Y-30382000D03*
D19*
X90188000Y-30382000D03*
D18*
X79468000Y-26182000D03*
D19*
X79188000Y-30382000D03*
D21*
X84688000Y-36282000D03*
X79688000Y-34182000D03*
%TD*%
D18*
%TO.C,SW13_r1*%
X115512000Y-79182000D03*
D19*
X126232000Y-83382000D03*
X115232000Y-83382000D03*
D20*
X120732000Y-83382000D03*
D18*
X125952000Y-79182000D03*
D21*
X120732000Y-89282000D03*
X115732000Y-87182000D03*
%TD*%
D20*
%TO.C,SW12_r1*%
X48686000Y-55372000D03*
D19*
X54186000Y-55372000D03*
X43186000Y-55372000D03*
D18*
X53906000Y-51172000D03*
X43466000Y-51172000D03*
D21*
X48686000Y-61272000D03*
X43686000Y-59172000D03*
%TD*%
D19*
%TO.C,SW3_r1*%
X108214000Y-37382000D03*
X97214000Y-37382000D03*
D20*
X102714000Y-37382000D03*
D18*
X107934000Y-33182000D03*
X97494000Y-33182000D03*
D21*
X102714000Y-43282000D03*
X97714000Y-41182000D03*
%TD*%
D18*
%TO.C,SW8_r1*%
X107934000Y-50156000D03*
D20*
X102714000Y-54356000D03*
D18*
X97494000Y-50156000D03*
D19*
X97214000Y-54356000D03*
X108214000Y-54356000D03*
D21*
X102714000Y-60256000D03*
X97714000Y-58156000D03*
%TD*%
D20*
%TO.C,SW21_r1*%
X56778000Y-90082000D03*
D19*
X51465408Y-91505505D03*
X62090592Y-88658495D03*
D18*
X52822907Y-95489924D03*
X62907173Y-92787853D03*
D21*
X55250968Y-84383038D03*
X60624117Y-85117387D03*
%TD*%
D18*
%TO.C,SW9_r1*%
X79468000Y-43298000D03*
D19*
X79188000Y-47498000D03*
D18*
X89908000Y-43298000D03*
D20*
X84688000Y-47498000D03*
D19*
X90188000Y-47498000D03*
D21*
X84688000Y-53398000D03*
X79688000Y-51298000D03*
%TD*%
D18*
%TO.C,SW20_r1*%
X35797347Y-104329307D03*
D19*
X33454860Y-100832000D03*
D18*
X44838653Y-99109307D03*
D20*
X38218000Y-98082000D03*
D19*
X42981140Y-95332000D03*
D21*
X35268000Y-92972450D03*
X40648127Y-92291103D03*
%TD*%
D20*
%TO.C,SW7_r1*%
X120732000Y-66382000D03*
D19*
X126232000Y-66382000D03*
X115232000Y-66382000D03*
D18*
X125952000Y-62182000D03*
X115512000Y-62182000D03*
D21*
X120732000Y-72282000D03*
X115732000Y-70182000D03*
%TD*%
D15*
%TO.C,B-*%
X36068000Y-50800000D03*
%TD*%
%TO.C,B+*%
X24638000Y-50800000D03*
%TD*%
D23*
%TO.C,RSW2*%
X40464000Y-82804000D03*
X43864000Y-82804000D03*
%TD*%
D24*
%TO.C,POWER SW*%
X231624000Y-51816000D03*
X228624000Y-51816000D03*
%TD*%
%TO.C,POWER SW*%
X28980000Y-51816000D03*
X31980000Y-51816000D03*
%TD*%
M02*
