%TF.GenerationSoftware,KiCad,Pcbnew,(6.0.7-1)-1*%
%TF.CreationDate,2022-08-06T17:31:22-07:00*%
%TF.ProjectId,sweepv2,73776565-7076-4322-9e6b-696361645f70,rev?*%
%TF.SameCoordinates,Original*%
%TF.FileFunction,Legend,Bot*%
%TF.FilePolarity,Positive*%
%FSLAX46Y46*%
G04 Gerber Fmt 4.6, Leading zero omitted, Abs format (unit mm)*
G04 Created by KiCad (PCBNEW (6.0.7-1)-1) date 2022-08-06 17:31:22*
%MOMM*%
%LPD*%
G01*
G04 APERTURE LIST*
%ADD10C,0.120000*%
%ADD11C,0.300000*%
%ADD12C,0.125000*%
%ADD13C,0.150000*%
%ADD14C,1.524000*%
%ADD15C,0.800000*%
%ADD16O,2.000000X1.600000*%
%ADD17C,0.990600*%
%ADD18C,1.701800*%
%ADD19C,3.429000*%
%ADD20C,2.282000*%
%ADD21C,0.500000*%
%ADD22C,1.397000*%
%ADD23C,1.000000*%
%ADD24R,0.900000X0.900000*%
%ADD25R,0.900000X1.250000*%
G04 APERTURE END LIST*
D10*
X27178000Y-50419000D02*
X33909000Y-50419000D01*
X33909000Y-50419000D02*
X33909000Y-53340000D01*
X33909000Y-53340000D02*
X27178000Y-53340000D01*
X27178000Y-53340000D02*
X27178000Y-50419000D01*
X226822000Y-50419000D02*
X233426000Y-50419000D01*
X233426000Y-50419000D02*
X233426000Y-53340000D01*
X233426000Y-53340000D02*
X226822000Y-53340000D01*
X226822000Y-53340000D02*
X226822000Y-50419000D01*
D11*
X164532142Y-82351071D02*
X163960714Y-82351071D01*
X164317857Y-83351071D02*
X164317857Y-82065357D01*
X164246428Y-81922500D01*
X164103571Y-81851071D01*
X163960714Y-81851071D01*
X162889285Y-83279642D02*
X163032142Y-83351071D01*
X163317857Y-83351071D01*
X163460714Y-83279642D01*
X163532142Y-83136785D01*
X163532142Y-82565357D01*
X163460714Y-82422500D01*
X163317857Y-82351071D01*
X163032142Y-82351071D01*
X162889285Y-82422500D01*
X162817857Y-82565357D01*
X162817857Y-82708214D01*
X163532142Y-82851071D01*
X162175000Y-83351071D02*
X162175000Y-82351071D01*
X162175000Y-82636785D02*
X162103571Y-82493928D01*
X162032142Y-82422500D01*
X161889285Y-82351071D01*
X161746428Y-82351071D01*
X161246428Y-83351071D02*
X161246428Y-82351071D01*
X161246428Y-82636785D02*
X161175000Y-82493928D01*
X161103571Y-82422500D01*
X160960714Y-82351071D01*
X160817857Y-82351071D01*
X160317857Y-83351071D02*
X160317857Y-82351071D01*
X160317857Y-81851071D02*
X160389285Y-81922500D01*
X160317857Y-81993928D01*
X160246428Y-81922500D01*
X160317857Y-81851071D01*
X160317857Y-81993928D01*
X159675000Y-83279642D02*
X159532142Y-83351071D01*
X159246428Y-83351071D01*
X159103571Y-83279642D01*
X159032142Y-83136785D01*
X159032142Y-83065357D01*
X159103571Y-82922500D01*
X159246428Y-82851071D01*
X159460714Y-82851071D01*
X159603571Y-82779642D01*
X159675000Y-82636785D01*
X159675000Y-82565357D01*
X159603571Y-82422500D01*
X159460714Y-82351071D01*
X159246428Y-82351071D01*
X159103571Y-82422500D01*
X158389285Y-82779642D02*
X157246428Y-82779642D01*
X156603571Y-83279642D02*
X156460714Y-83351071D01*
X156175000Y-83351071D01*
X156032142Y-83279642D01*
X155960714Y-83136785D01*
X155960714Y-83065357D01*
X156032142Y-82922500D01*
X156175000Y-82851071D01*
X156389285Y-82851071D01*
X156532142Y-82779642D01*
X156603571Y-82636785D01*
X156603571Y-82565357D01*
X156532142Y-82422500D01*
X156389285Y-82351071D01*
X156175000Y-82351071D01*
X156032142Y-82422500D01*
X155460714Y-82351071D02*
X155175000Y-83351071D01*
X154889285Y-82636785D01*
X154603571Y-83351071D01*
X154317857Y-82351071D01*
X153175000Y-83279642D02*
X153317857Y-83351071D01*
X153603571Y-83351071D01*
X153746428Y-83279642D01*
X153817857Y-83136785D01*
X153817857Y-82565357D01*
X153746428Y-82422500D01*
X153603571Y-82351071D01*
X153317857Y-82351071D01*
X153175000Y-82422500D01*
X153103571Y-82565357D01*
X153103571Y-82708214D01*
X153817857Y-82851071D01*
X151889285Y-83279642D02*
X152032142Y-83351071D01*
X152317857Y-83351071D01*
X152460714Y-83279642D01*
X152532142Y-83136785D01*
X152532142Y-82565357D01*
X152460714Y-82422500D01*
X152317857Y-82351071D01*
X152032142Y-82351071D01*
X151889285Y-82422500D01*
X151817857Y-82565357D01*
X151817857Y-82708214D01*
X152532142Y-82851071D01*
X151175000Y-82351071D02*
X151175000Y-83851071D01*
X151175000Y-82422500D02*
X151032142Y-82351071D01*
X150746428Y-82351071D01*
X150603571Y-82422500D01*
X150532142Y-82493928D01*
X150460714Y-82636785D01*
X150460714Y-83065357D01*
X150532142Y-83208214D01*
X150603571Y-83279642D01*
X150746428Y-83351071D01*
X151032142Y-83351071D01*
X151175000Y-83279642D01*
X158603571Y-85766071D02*
X158603571Y-84766071D01*
X158603571Y-85051785D02*
X158532142Y-84908928D01*
X158460714Y-84837500D01*
X158317857Y-84766071D01*
X158175000Y-84766071D01*
X157103571Y-85694642D02*
X157246428Y-85766071D01*
X157532142Y-85766071D01*
X157675000Y-85694642D01*
X157746428Y-85551785D01*
X157746428Y-84980357D01*
X157675000Y-84837500D01*
X157532142Y-84766071D01*
X157246428Y-84766071D01*
X157103571Y-84837500D01*
X157032142Y-84980357D01*
X157032142Y-85123214D01*
X157746428Y-85266071D01*
X156532142Y-84766071D02*
X156175000Y-85766071D01*
X155817857Y-84766071D01*
X155246428Y-85623214D02*
X155175000Y-85694642D01*
X155246428Y-85766071D01*
X155317857Y-85694642D01*
X155246428Y-85623214D01*
X155246428Y-85766071D01*
X153103571Y-84266071D02*
X152960714Y-84266071D01*
X152817857Y-84337500D01*
X152746428Y-84408928D01*
X152675000Y-84551785D01*
X152603571Y-84837500D01*
X152603571Y-85194642D01*
X152675000Y-85480357D01*
X152746428Y-85623214D01*
X152817857Y-85694642D01*
X152960714Y-85766071D01*
X153103571Y-85766071D01*
X153246428Y-85694642D01*
X153317857Y-85623214D01*
X153389285Y-85480357D01*
X153460714Y-85194642D01*
X153460714Y-84837500D01*
X153389285Y-84551785D01*
X153317857Y-84408928D01*
X153246428Y-84337500D01*
X153103571Y-84266071D01*
X151960714Y-85623214D02*
X151889285Y-85694642D01*
X151960714Y-85766071D01*
X152032142Y-85694642D01*
X151960714Y-85623214D01*
X151960714Y-85766071D01*
X150460714Y-85766071D02*
X151317857Y-85766071D01*
X150889285Y-85766071D02*
X150889285Y-84266071D01*
X151032142Y-84480357D01*
X151175000Y-84623214D01*
X151317857Y-84694642D01*
D12*
%TO.C,U1*%
X224788952Y-55309000D02*
X224836571Y-55273285D01*
X224908000Y-55273285D01*
X224979428Y-55309000D01*
X225027047Y-55380428D01*
X225050857Y-55451857D01*
X225074666Y-55594714D01*
X225074666Y-55701857D01*
X225050857Y-55844714D01*
X225027047Y-55916142D01*
X224979428Y-55987571D01*
X224908000Y-56023285D01*
X224860380Y-56023285D01*
X224788952Y-55987571D01*
X224765142Y-55951857D01*
X224765142Y-55701857D01*
X224860380Y-55701857D01*
X224550857Y-56023285D02*
X224550857Y-55273285D01*
X224265142Y-56023285D01*
X224265142Y-55273285D01*
X224027047Y-56023285D02*
X224027047Y-55273285D01*
X223908000Y-55273285D01*
X223836571Y-55309000D01*
X223788952Y-55380428D01*
X223765142Y-55451857D01*
X223741333Y-55594714D01*
X223741333Y-55701857D01*
X223765142Y-55844714D01*
X223788952Y-55916142D01*
X223836571Y-55987571D01*
X223908000Y-56023285D01*
X224027047Y-56023285D01*
X236418952Y-60419000D02*
X236466571Y-60383285D01*
X236538000Y-60383285D01*
X236609428Y-60419000D01*
X236657047Y-60490428D01*
X236680857Y-60561857D01*
X236704666Y-60704714D01*
X236704666Y-60811857D01*
X236680857Y-60954714D01*
X236657047Y-61026142D01*
X236609428Y-61097571D01*
X236538000Y-61133285D01*
X236490380Y-61133285D01*
X236418952Y-61097571D01*
X236395142Y-61061857D01*
X236395142Y-60811857D01*
X236490380Y-60811857D01*
X236180857Y-61133285D02*
X236180857Y-60383285D01*
X235895142Y-61133285D01*
X235895142Y-60383285D01*
X235657047Y-61133285D02*
X235657047Y-60383285D01*
X235538000Y-60383285D01*
X235466571Y-60419000D01*
X235418952Y-60490428D01*
X235395142Y-60561857D01*
X235371333Y-60704714D01*
X235371333Y-60811857D01*
X235395142Y-60954714D01*
X235418952Y-61026142D01*
X235466571Y-61097571D01*
X235538000Y-61133285D01*
X235657047Y-61133285D01*
D13*
D12*
X224883238Y-53383285D02*
X225049904Y-53026142D01*
X225168952Y-53383285D02*
X225168952Y-52633285D01*
X224978476Y-52633285D01*
X224930857Y-52669000D01*
X224907047Y-52704714D01*
X224883238Y-52776142D01*
X224883238Y-52883285D01*
X224907047Y-52954714D01*
X224930857Y-52990428D01*
X224978476Y-53026142D01*
X225168952Y-53026142D01*
X224692761Y-53169000D02*
X224454666Y-53169000D01*
X224740380Y-53383285D02*
X224573714Y-52633285D01*
X224407047Y-53383285D01*
X224288000Y-52633285D02*
X224168952Y-53383285D01*
X224073714Y-52847571D01*
X223978476Y-53383285D01*
X223859428Y-52633285D01*
X236438952Y-57839000D02*
X236486571Y-57803285D01*
X236558000Y-57803285D01*
X236629428Y-57839000D01*
X236677047Y-57910428D01*
X236700857Y-57981857D01*
X236724666Y-58124714D01*
X236724666Y-58231857D01*
X236700857Y-58374714D01*
X236677047Y-58446142D01*
X236629428Y-58517571D01*
X236558000Y-58553285D01*
X236510380Y-58553285D01*
X236438952Y-58517571D01*
X236415142Y-58481857D01*
X236415142Y-58231857D01*
X236510380Y-58231857D01*
X236200857Y-58553285D02*
X236200857Y-57803285D01*
X235915142Y-58553285D01*
X235915142Y-57803285D01*
X235677047Y-58553285D02*
X235677047Y-57803285D01*
X235558000Y-57803285D01*
X235486571Y-57839000D01*
X235438952Y-57910428D01*
X235415142Y-57981857D01*
X235391333Y-58124714D01*
X235391333Y-58231857D01*
X235415142Y-58374714D01*
X235438952Y-58446142D01*
X235486571Y-58517571D01*
X235558000Y-58553285D01*
X235677047Y-58553285D01*
D13*
%TO.C,J2*%
X231885904Y-85558380D02*
X231314476Y-85558380D01*
X231600190Y-86558380D02*
X231600190Y-85558380D01*
X230409714Y-86558380D02*
X230743047Y-86082190D01*
X230981142Y-86558380D02*
X230981142Y-85558380D01*
X230600190Y-85558380D01*
X230504952Y-85606000D01*
X230457333Y-85653619D01*
X230409714Y-85748857D01*
X230409714Y-85891714D01*
X230457333Y-85986952D01*
X230504952Y-86034571D01*
X230600190Y-86082190D01*
X230981142Y-86082190D01*
X229409714Y-86558380D02*
X229743047Y-86082190D01*
X229981142Y-86558380D02*
X229981142Y-85558380D01*
X229600190Y-85558380D01*
X229504952Y-85606000D01*
X229457333Y-85653619D01*
X229409714Y-85748857D01*
X229409714Y-85891714D01*
X229457333Y-85986952D01*
X229504952Y-86034571D01*
X229600190Y-86082190D01*
X229981142Y-86082190D01*
X229028761Y-86510761D02*
X228885904Y-86558380D01*
X228647809Y-86558380D01*
X228552571Y-86510761D01*
X228504952Y-86463142D01*
X228457333Y-86367904D01*
X228457333Y-86272666D01*
X228504952Y-86177428D01*
X228552571Y-86129809D01*
X228647809Y-86082190D01*
X228838285Y-86034571D01*
X228933523Y-85986952D01*
X228981142Y-85939333D01*
X229028761Y-85844095D01*
X229028761Y-85748857D01*
X228981142Y-85653619D01*
X228933523Y-85606000D01*
X228838285Y-85558380D01*
X228600190Y-85558380D01*
X228457333Y-85606000D01*
%TO.C,RSW1*%
X220019380Y-83510380D02*
X220352714Y-83034190D01*
X220590809Y-83510380D02*
X220590809Y-82510380D01*
X220209857Y-82510380D01*
X220114619Y-82558000D01*
X220067000Y-82605619D01*
X220019380Y-82700857D01*
X220019380Y-82843714D01*
X220067000Y-82938952D01*
X220114619Y-82986571D01*
X220209857Y-83034190D01*
X220590809Y-83034190D01*
X219590809Y-82986571D02*
X219257476Y-82986571D01*
X219114619Y-83510380D02*
X219590809Y-83510380D01*
X219590809Y-82510380D01*
X219114619Y-82510380D01*
X218733666Y-83462761D02*
X218590809Y-83510380D01*
X218352714Y-83510380D01*
X218257476Y-83462761D01*
X218209857Y-83415142D01*
X218162238Y-83319904D01*
X218162238Y-83224666D01*
X218209857Y-83129428D01*
X218257476Y-83081809D01*
X218352714Y-83034190D01*
X218543190Y-82986571D01*
X218638428Y-82938952D01*
X218686047Y-82891333D01*
X218733666Y-82796095D01*
X218733666Y-82700857D01*
X218686047Y-82605619D01*
X218638428Y-82558000D01*
X218543190Y-82510380D01*
X218305095Y-82510380D01*
X218162238Y-82558000D01*
X217733666Y-82986571D02*
X217400333Y-82986571D01*
X217257476Y-83510380D02*
X217733666Y-83510380D01*
X217733666Y-82510380D01*
X217257476Y-82510380D01*
X216971761Y-82510380D02*
X216400333Y-82510380D01*
X216686047Y-83510380D02*
X216686047Y-82510380D01*
D12*
%TO.C,U2*%
X36468952Y-57839000D02*
X36516571Y-57803285D01*
X36588000Y-57803285D01*
X36659428Y-57839000D01*
X36707047Y-57910428D01*
X36730857Y-57981857D01*
X36754666Y-58124714D01*
X36754666Y-58231857D01*
X36730857Y-58374714D01*
X36707047Y-58446142D01*
X36659428Y-58517571D01*
X36588000Y-58553285D01*
X36540380Y-58553285D01*
X36468952Y-58517571D01*
X36445142Y-58481857D01*
X36445142Y-58231857D01*
X36540380Y-58231857D01*
X36230857Y-58553285D02*
X36230857Y-57803285D01*
X35945142Y-58553285D01*
X35945142Y-57803285D01*
X35707047Y-58553285D02*
X35707047Y-57803285D01*
X35588000Y-57803285D01*
X35516571Y-57839000D01*
X35468952Y-57910428D01*
X35445142Y-57981857D01*
X35421333Y-58124714D01*
X35421333Y-58231857D01*
X35445142Y-58374714D01*
X35468952Y-58446142D01*
X35516571Y-58517571D01*
X35588000Y-58553285D01*
X35707047Y-58553285D01*
X36448952Y-60419000D02*
X36496571Y-60383285D01*
X36568000Y-60383285D01*
X36639428Y-60419000D01*
X36687047Y-60490428D01*
X36710857Y-60561857D01*
X36734666Y-60704714D01*
X36734666Y-60811857D01*
X36710857Y-60954714D01*
X36687047Y-61026142D01*
X36639428Y-61097571D01*
X36568000Y-61133285D01*
X36520380Y-61133285D01*
X36448952Y-61097571D01*
X36425142Y-61061857D01*
X36425142Y-60811857D01*
X36520380Y-60811857D01*
X36210857Y-61133285D02*
X36210857Y-60383285D01*
X35925142Y-61133285D01*
X35925142Y-60383285D01*
X35687047Y-61133285D02*
X35687047Y-60383285D01*
X35568000Y-60383285D01*
X35496571Y-60419000D01*
X35448952Y-60490428D01*
X35425142Y-60561857D01*
X35401333Y-60704714D01*
X35401333Y-60811857D01*
X35425142Y-60954714D01*
X35448952Y-61026142D01*
X35496571Y-61097571D01*
X35568000Y-61133285D01*
X35687047Y-61133285D01*
X24936952Y-55309000D02*
X24984571Y-55273285D01*
X25056000Y-55273285D01*
X25127428Y-55309000D01*
X25175047Y-55380428D01*
X25198857Y-55451857D01*
X25222666Y-55594714D01*
X25222666Y-55701857D01*
X25198857Y-55844714D01*
X25175047Y-55916142D01*
X25127428Y-55987571D01*
X25056000Y-56023285D01*
X25008380Y-56023285D01*
X24936952Y-55987571D01*
X24913142Y-55951857D01*
X24913142Y-55701857D01*
X25008380Y-55701857D01*
X24698857Y-56023285D02*
X24698857Y-55273285D01*
X24413142Y-56023285D01*
X24413142Y-55273285D01*
X24175047Y-56023285D02*
X24175047Y-55273285D01*
X24056000Y-55273285D01*
X23984571Y-55309000D01*
X23936952Y-55380428D01*
X23913142Y-55451857D01*
X23889333Y-55594714D01*
X23889333Y-55701857D01*
X23913142Y-55844714D01*
X23936952Y-55916142D01*
X23984571Y-55987571D01*
X24056000Y-56023285D01*
X24175047Y-56023285D01*
X25031238Y-53383285D02*
X25197904Y-53026142D01*
X25316952Y-53383285D02*
X25316952Y-52633285D01*
X25126476Y-52633285D01*
X25078857Y-52669000D01*
X25055047Y-52704714D01*
X25031238Y-52776142D01*
X25031238Y-52883285D01*
X25055047Y-52954714D01*
X25078857Y-52990428D01*
X25126476Y-53026142D01*
X25316952Y-53026142D01*
X24840761Y-53169000D02*
X24602666Y-53169000D01*
X24888380Y-53383285D02*
X24721714Y-52633285D01*
X24555047Y-53383285D01*
X24436000Y-52633285D02*
X24316952Y-53383285D01*
X24221714Y-52847571D01*
X24126476Y-53383285D01*
X24007428Y-52633285D01*
D13*
%TO.C,J1*%
X31733904Y-85558380D02*
X31162476Y-85558380D01*
X31448190Y-86558380D02*
X31448190Y-85558380D01*
X30257714Y-86558380D02*
X30591047Y-86082190D01*
X30829142Y-86558380D02*
X30829142Y-85558380D01*
X30448190Y-85558380D01*
X30352952Y-85606000D01*
X30305333Y-85653619D01*
X30257714Y-85748857D01*
X30257714Y-85891714D01*
X30305333Y-85986952D01*
X30352952Y-86034571D01*
X30448190Y-86082190D01*
X30829142Y-86082190D01*
X29257714Y-86558380D02*
X29591047Y-86082190D01*
X29829142Y-86558380D02*
X29829142Y-85558380D01*
X29448190Y-85558380D01*
X29352952Y-85606000D01*
X29305333Y-85653619D01*
X29257714Y-85748857D01*
X29257714Y-85891714D01*
X29305333Y-85986952D01*
X29352952Y-86034571D01*
X29448190Y-86082190D01*
X29829142Y-86082190D01*
X28876761Y-86510761D02*
X28733904Y-86558380D01*
X28495809Y-86558380D01*
X28400571Y-86510761D01*
X28352952Y-86463142D01*
X28305333Y-86367904D01*
X28305333Y-86272666D01*
X28352952Y-86177428D01*
X28400571Y-86129809D01*
X28495809Y-86082190D01*
X28686285Y-86034571D01*
X28781523Y-85986952D01*
X28829142Y-85939333D01*
X28876761Y-85844095D01*
X28876761Y-85748857D01*
X28829142Y-85653619D01*
X28781523Y-85606000D01*
X28686285Y-85558380D01*
X28448190Y-85558380D01*
X28305333Y-85606000D01*
%TO.C,RSW2*%
X43743380Y-83256380D02*
X44076714Y-82780190D01*
X44314809Y-83256380D02*
X44314809Y-82256380D01*
X43933857Y-82256380D01*
X43838619Y-82304000D01*
X43791000Y-82351619D01*
X43743380Y-82446857D01*
X43743380Y-82589714D01*
X43791000Y-82684952D01*
X43838619Y-82732571D01*
X43933857Y-82780190D01*
X44314809Y-82780190D01*
X43314809Y-82732571D02*
X42981476Y-82732571D01*
X42838619Y-83256380D02*
X43314809Y-83256380D01*
X43314809Y-82256380D01*
X42838619Y-82256380D01*
X42457666Y-83208761D02*
X42314809Y-83256380D01*
X42076714Y-83256380D01*
X41981476Y-83208761D01*
X41933857Y-83161142D01*
X41886238Y-83065904D01*
X41886238Y-82970666D01*
X41933857Y-82875428D01*
X41981476Y-82827809D01*
X42076714Y-82780190D01*
X42267190Y-82732571D01*
X42362428Y-82684952D01*
X42410047Y-82637333D01*
X42457666Y-82542095D01*
X42457666Y-82446857D01*
X42410047Y-82351619D01*
X42362428Y-82304000D01*
X42267190Y-82256380D01*
X42029095Y-82256380D01*
X41886238Y-82304000D01*
X41457666Y-82732571D02*
X41124333Y-82732571D01*
X40981476Y-83256380D02*
X41457666Y-83256380D01*
X41457666Y-82256380D01*
X40981476Y-82256380D01*
X40695761Y-82256380D02*
X40124333Y-82256380D01*
X40410047Y-83256380D02*
X40410047Y-82256380D01*
D10*
%TO.C,POWER SW*%
X232366857Y-51198428D02*
X232366857Y-50598428D01*
X232138285Y-50598428D01*
X232081142Y-50627000D01*
X232052571Y-50655571D01*
X232024000Y-50712714D01*
X232024000Y-50798428D01*
X232052571Y-50855571D01*
X232081142Y-50884142D01*
X232138285Y-50912714D01*
X232366857Y-50912714D01*
X231652571Y-50598428D02*
X231538285Y-50598428D01*
X231481142Y-50627000D01*
X231424000Y-50684142D01*
X231395428Y-50798428D01*
X231395428Y-50998428D01*
X231424000Y-51112714D01*
X231481142Y-51169857D01*
X231538285Y-51198428D01*
X231652571Y-51198428D01*
X231709714Y-51169857D01*
X231766857Y-51112714D01*
X231795428Y-50998428D01*
X231795428Y-50798428D01*
X231766857Y-50684142D01*
X231709714Y-50627000D01*
X231652571Y-50598428D01*
X231195428Y-50598428D02*
X231052571Y-51198428D01*
X230938285Y-50769857D01*
X230824000Y-51198428D01*
X230681142Y-50598428D01*
X230452571Y-50884142D02*
X230252571Y-50884142D01*
X230166857Y-51198428D02*
X230452571Y-51198428D01*
X230452571Y-50598428D01*
X230166857Y-50598428D01*
X229566857Y-51198428D02*
X229766857Y-50912714D01*
X229909714Y-51198428D02*
X229909714Y-50598428D01*
X229681142Y-50598428D01*
X229624000Y-50627000D01*
X229595428Y-50655571D01*
X229566857Y-50712714D01*
X229566857Y-50798428D01*
X229595428Y-50855571D01*
X229624000Y-50884142D01*
X229681142Y-50912714D01*
X229909714Y-50912714D01*
X228881142Y-51169857D02*
X228795428Y-51198428D01*
X228652571Y-51198428D01*
X228595428Y-51169857D01*
X228566857Y-51141285D01*
X228538285Y-51084142D01*
X228538285Y-51027000D01*
X228566857Y-50969857D01*
X228595428Y-50941285D01*
X228652571Y-50912714D01*
X228766857Y-50884142D01*
X228824000Y-50855571D01*
X228852571Y-50827000D01*
X228881142Y-50769857D01*
X228881142Y-50712714D01*
X228852571Y-50655571D01*
X228824000Y-50627000D01*
X228766857Y-50598428D01*
X228624000Y-50598428D01*
X228538285Y-50627000D01*
X228338285Y-50598428D02*
X228195428Y-51198428D01*
X228081142Y-50769857D01*
X227966857Y-51198428D01*
X227824000Y-50598428D01*
X32722857Y-51198428D02*
X32722857Y-50598428D01*
X32494285Y-50598428D01*
X32437142Y-50627000D01*
X32408571Y-50655571D01*
X32380000Y-50712714D01*
X32380000Y-50798428D01*
X32408571Y-50855571D01*
X32437142Y-50884142D01*
X32494285Y-50912714D01*
X32722857Y-50912714D01*
X32008571Y-50598428D02*
X31894285Y-50598428D01*
X31837142Y-50627000D01*
X31780000Y-50684142D01*
X31751428Y-50798428D01*
X31751428Y-50998428D01*
X31780000Y-51112714D01*
X31837142Y-51169857D01*
X31894285Y-51198428D01*
X32008571Y-51198428D01*
X32065714Y-51169857D01*
X32122857Y-51112714D01*
X32151428Y-50998428D01*
X32151428Y-50798428D01*
X32122857Y-50684142D01*
X32065714Y-50627000D01*
X32008571Y-50598428D01*
X31551428Y-50598428D02*
X31408571Y-51198428D01*
X31294285Y-50769857D01*
X31180000Y-51198428D01*
X31037142Y-50598428D01*
X30808571Y-50884142D02*
X30608571Y-50884142D01*
X30522857Y-51198428D02*
X30808571Y-51198428D01*
X30808571Y-50598428D01*
X30522857Y-50598428D01*
X29922857Y-51198428D02*
X30122857Y-50912714D01*
X30265714Y-51198428D02*
X30265714Y-50598428D01*
X30037142Y-50598428D01*
X29980000Y-50627000D01*
X29951428Y-50655571D01*
X29922857Y-50712714D01*
X29922857Y-50798428D01*
X29951428Y-50855571D01*
X29980000Y-50884142D01*
X30037142Y-50912714D01*
X30265714Y-50912714D01*
X29237142Y-51169857D02*
X29151428Y-51198428D01*
X29008571Y-51198428D01*
X28951428Y-51169857D01*
X28922857Y-51141285D01*
X28894285Y-51084142D01*
X28894285Y-51027000D01*
X28922857Y-50969857D01*
X28951428Y-50941285D01*
X29008571Y-50912714D01*
X29122857Y-50884142D01*
X29180000Y-50855571D01*
X29208571Y-50827000D01*
X29237142Y-50769857D01*
X29237142Y-50712714D01*
X29208571Y-50655571D01*
X29180000Y-50627000D01*
X29122857Y-50598428D01*
X28980000Y-50598428D01*
X28894285Y-50627000D01*
X28694285Y-50598428D02*
X28551428Y-51198428D01*
X28437142Y-50769857D01*
X28322857Y-51198428D01*
X28180000Y-50598428D01*
D13*
%TO.C,B+*%
X234966000Y-49800000D02*
X236966000Y-49800000D01*
X236966000Y-51800000D02*
X234966000Y-51800000D01*
X234966000Y-51800000D02*
X234966000Y-49800000D01*
X236966000Y-49800000D02*
X236966000Y-51800000D01*
%TO.C,B-*%
X223282000Y-51800000D02*
X223282000Y-49800000D01*
X223282000Y-49800000D02*
X225282000Y-49800000D01*
X225282000Y-51800000D02*
X223282000Y-51800000D01*
X225282000Y-49800000D02*
X225282000Y-51800000D01*
X35068000Y-51800000D02*
X35068000Y-49800000D01*
X37068000Y-49800000D02*
X37068000Y-51800000D01*
X35068000Y-49800000D02*
X37068000Y-49800000D01*
X37068000Y-51800000D02*
X35068000Y-51800000D01*
%TO.C,B+*%
X25638000Y-51800000D02*
X23638000Y-51800000D01*
X23638000Y-51800000D02*
X23638000Y-49800000D01*
X23638000Y-49800000D02*
X25638000Y-49800000D01*
X25638000Y-49800000D02*
X25638000Y-51800000D01*
%TO.C,G\u002A\u002A\u002A*%
G36*
X57746180Y-64414787D02*
G01*
X57743705Y-64274416D01*
X57788482Y-63474399D01*
X57922322Y-63112483D01*
X58138815Y-63195039D01*
X58389259Y-63633046D01*
X58838908Y-64201607D01*
X59442504Y-64410829D01*
X60123345Y-64301467D01*
X60804729Y-63914279D01*
X61409952Y-63290020D01*
X61862311Y-62469446D01*
X62065223Y-61679823D01*
X62113581Y-60635899D01*
X61900161Y-59902154D01*
X61382595Y-59382399D01*
X60951954Y-59152454D01*
X60022393Y-58736277D01*
X60987189Y-58350242D01*
X62041416Y-58118769D01*
X63003454Y-58323009D01*
X63912987Y-58974290D01*
X64185645Y-59263210D01*
X64880250Y-60337305D01*
X65299470Y-61688493D01*
X65460208Y-63373185D01*
X65462407Y-63523962D01*
X65308968Y-65149566D01*
X64837623Y-66552465D01*
X64080307Y-67680176D01*
X63068959Y-68480217D01*
X62244177Y-68812549D01*
X61566075Y-68980393D01*
X61102146Y-69023834D01*
X60624985Y-68953697D01*
X60396904Y-68900488D01*
X59636161Y-68501633D01*
X58929743Y-67747322D01*
X58338624Y-66743868D01*
X57956107Y-65686914D01*
X61962018Y-65686914D01*
X62008734Y-65825718D01*
X62346147Y-66017658D01*
X62763272Y-65928605D01*
X62994698Y-65659992D01*
X62913195Y-65360986D01*
X62577676Y-65196828D01*
X62192223Y-65243869D01*
X62087139Y-65320454D01*
X61962018Y-65686914D01*
X57956107Y-65686914D01*
X57923778Y-65597585D01*
X57746180Y-64414787D01*
G37*
G36*
X70418650Y-67452014D02*
G01*
X70419382Y-67449416D01*
X70535473Y-67094241D01*
X70637765Y-67095501D01*
X70798610Y-67488565D01*
X70861068Y-67665331D01*
X71351095Y-68642976D01*
X71978591Y-69179845D01*
X72743294Y-69275822D01*
X73644940Y-68930788D01*
X73664974Y-68919030D01*
X74403594Y-68283402D01*
X75026882Y-67394194D01*
X75428731Y-66429470D01*
X75521449Y-65803591D01*
X75327219Y-64964119D01*
X74810342Y-64362052D01*
X74069537Y-64045780D01*
X73203524Y-64063695D01*
X72519631Y-64332143D01*
X71940796Y-64617627D01*
X71712678Y-64619047D01*
X71844655Y-64341904D01*
X72075290Y-64071475D01*
X73094811Y-63297934D01*
X74361542Y-62889928D01*
X75124468Y-62831234D01*
X75892268Y-62908804D01*
X76446450Y-63202756D01*
X76721887Y-63466234D01*
X77562416Y-64660722D01*
X78122275Y-66081355D01*
X78401065Y-67628565D01*
X78398387Y-69202780D01*
X78113843Y-70704431D01*
X77547032Y-72033948D01*
X76760240Y-73034272D01*
X75830536Y-73710249D01*
X74768511Y-74062008D01*
X73677138Y-74145780D01*
X72993757Y-74112830D01*
X72522478Y-73952589D01*
X72078143Y-73572967D01*
X71724240Y-73174502D01*
X70916035Y-71913839D01*
X70406615Y-70441501D01*
X70376776Y-70182489D01*
X74473331Y-70182489D01*
X74505232Y-70508312D01*
X74536753Y-70544114D01*
X74819414Y-70650111D01*
X75222320Y-70680113D01*
X75499488Y-70623762D01*
X75521449Y-70585574D01*
X75593282Y-70314145D01*
X75661609Y-70123756D01*
X75652078Y-69845790D01*
X75274882Y-69758958D01*
X75224495Y-69758507D01*
X74752801Y-69887186D01*
X74473331Y-70182489D01*
X70376776Y-70182489D01*
X70229610Y-68905042D01*
X70418650Y-67452014D01*
G37*
G36*
X42792548Y-53808218D02*
G01*
X43638855Y-52943088D01*
X44294556Y-52409067D01*
X44839444Y-52162887D01*
X45353310Y-52161274D01*
X45661212Y-52252557D01*
X46005897Y-52357069D01*
X46331625Y-52354484D01*
X46733060Y-52207398D01*
X47304867Y-51878407D01*
X48141711Y-51330107D01*
X48350551Y-51189940D01*
X49206627Y-50601789D01*
X49930340Y-50081197D01*
X50426579Y-49697871D01*
X50584124Y-49552929D01*
X50698685Y-49217144D01*
X50635632Y-48630852D01*
X50452329Y-47918507D01*
X50211353Y-46609670D01*
X50225370Y-45333556D01*
X50270893Y-45123435D01*
X52064178Y-45123435D01*
X52146920Y-45646628D01*
X52303416Y-46204037D01*
X52488191Y-46636474D01*
X52655766Y-46784754D01*
X52667862Y-46779089D01*
X52861117Y-46491780D01*
X52952637Y-46231121D01*
X52933293Y-45821360D01*
X52755254Y-45344983D01*
X52498538Y-44936998D01*
X52243163Y-44732414D01*
X52100665Y-44793646D01*
X52064178Y-45123435D01*
X50270893Y-45123435D01*
X50473104Y-44190091D01*
X50933282Y-43279206D01*
X51560431Y-42713497D01*
X52433238Y-42482836D01*
X53442812Y-42579863D01*
X54413599Y-42985618D01*
X55201449Y-43472536D01*
X55202737Y-40971431D01*
X55226727Y-39835244D01*
X55288681Y-38802034D01*
X58033998Y-38802034D01*
X58126827Y-39717502D01*
X58351150Y-40721689D01*
X58619919Y-41075836D01*
X59033266Y-41050638D01*
X59349964Y-40788874D01*
X59493687Y-40316294D01*
X59455900Y-39604121D01*
X59277334Y-38814035D01*
X58998721Y-38107719D01*
X58660793Y-37646854D01*
X58540310Y-37575064D01*
X58245710Y-37648130D01*
X58075283Y-38084682D01*
X58033998Y-38802034D01*
X55288681Y-38802034D01*
X55290368Y-38773897D01*
X55382901Y-37932417D01*
X55455415Y-37564885D01*
X55905822Y-36561350D01*
X56584946Y-35813565D01*
X57403962Y-35404607D01*
X57820256Y-35353053D01*
X58562859Y-35399182D01*
X59103079Y-35594367D01*
X59572759Y-36023806D01*
X60103743Y-36772695D01*
X60165272Y-36868407D01*
X60653294Y-37558912D01*
X61120505Y-38101454D01*
X61405298Y-38338442D01*
X61704686Y-38438804D01*
X61920458Y-38285270D01*
X62145579Y-37793478D01*
X62216069Y-37602675D01*
X62271964Y-37431234D01*
X64471887Y-37431234D01*
X65013410Y-37431234D01*
X65615499Y-37325116D01*
X66208646Y-37096674D01*
X66807342Y-36817291D01*
X67266449Y-36642102D01*
X67592255Y-36342914D01*
X67670540Y-36028633D01*
X67814544Y-35532289D01*
X68168962Y-34947452D01*
X68247813Y-34849124D01*
X68616921Y-34372400D01*
X68810605Y-34047786D01*
X68819361Y-34007609D01*
X68680932Y-33706693D01*
X68342717Y-33204012D01*
X67902839Y-32624802D01*
X67459419Y-32094297D01*
X67110579Y-31737735D01*
X66978846Y-31658507D01*
X66648703Y-31865945D01*
X66241973Y-32428027D01*
X65805594Y-33254406D01*
X65386502Y-34254733D01*
X65031636Y-35338661D01*
X64992329Y-35482271D01*
X64471887Y-37431234D01*
X62271964Y-37431234D01*
X62429435Y-36948237D01*
X62708950Y-36000398D01*
X63009776Y-34914037D01*
X63166360Y-34320220D01*
X63483074Y-33219844D01*
X63840187Y-32173659D01*
X64181902Y-31338146D01*
X64338648Y-31032608D01*
X64918339Y-30257699D01*
X65648868Y-29575542D01*
X66402935Y-29085775D01*
X67053246Y-28888034D01*
X67079117Y-28887598D01*
X67427477Y-29055320D01*
X68031266Y-29531403D01*
X68843450Y-30275220D01*
X69816994Y-31246146D01*
X69854152Y-31284507D01*
X70738506Y-32180984D01*
X71562857Y-32984855D01*
X72249504Y-33622556D01*
X72720748Y-34020521D01*
X72810206Y-34083243D01*
X73447144Y-34485070D01*
X74380585Y-32436789D01*
X74872399Y-31358235D01*
X75373762Y-30259819D01*
X75799461Y-29328193D01*
X75917235Y-29070776D01*
X76326788Y-28275260D01*
X76725446Y-27787374D01*
X77233751Y-27472032D01*
X77411074Y-27396685D01*
X78786351Y-27065602D01*
X80117432Y-27169529D01*
X81158435Y-27595031D01*
X81685440Y-27941688D01*
X82164548Y-28358504D01*
X82648269Y-28912925D01*
X83189113Y-29672396D01*
X83839589Y-30704364D01*
X84652208Y-32076274D01*
X84666746Y-32101238D01*
X85228957Y-33042970D01*
X85722946Y-33826381D01*
X86095987Y-34370787D01*
X86295356Y-34595505D01*
X86297159Y-34596168D01*
X86567041Y-34494666D01*
X87091635Y-34160097D01*
X87772608Y-33657116D01*
X88004590Y-33473485D01*
X89739879Y-32257334D01*
X91477731Y-31381723D01*
X93141679Y-30882309D01*
X93741762Y-30798308D01*
X95105011Y-30674693D01*
X95787573Y-31869814D01*
X96186852Y-32717486D01*
X96576040Y-33788281D01*
X96869279Y-34843994D01*
X97281360Y-36591199D01*
X97658083Y-37947540D01*
X98032473Y-38978883D01*
X98437559Y-39751090D01*
X98906367Y-40330025D01*
X99471924Y-40781552D01*
X99999677Y-41086737D01*
X100514570Y-41332206D01*
X100989228Y-41479564D01*
X101550027Y-41543687D01*
X102323342Y-41539453D01*
X103382319Y-41484924D01*
X104442602Y-41425670D01*
X105142649Y-41411305D01*
X105583195Y-41458717D01*
X105864973Y-41584798D01*
X106088715Y-41806436D01*
X106210955Y-41959198D01*
X106527708Y-42525460D01*
X106672629Y-43275427D01*
X106694177Y-43898965D01*
X106723655Y-45070793D01*
X106853355Y-45942721D01*
X107145172Y-46656234D01*
X107661005Y-47352819D01*
X108462749Y-48173960D01*
X108637773Y-48341689D01*
X109417210Y-49068437D01*
X109975084Y-49526791D01*
X110413678Y-49777601D01*
X110835274Y-49881716D01*
X111257698Y-49900325D01*
X111930372Y-49950188D01*
X112351508Y-50170322D01*
X112716930Y-50650780D01*
X112947523Y-51079266D01*
X113077774Y-51543411D01*
X113124428Y-52170877D01*
X113104229Y-53089329D01*
X113086309Y-53466957D01*
X113043807Y-54458452D01*
X113051304Y-55097991D01*
X113128155Y-55494417D01*
X113293710Y-55756574D01*
X113530358Y-55964380D01*
X113950746Y-56494251D01*
X114331146Y-57331582D01*
X114451304Y-57708657D01*
X114715336Y-58528429D01*
X114997939Y-59238397D01*
X115161600Y-59556346D01*
X115499768Y-60091458D01*
X116235455Y-59530322D01*
X117286699Y-58752937D01*
X118084963Y-58233598D01*
X118723901Y-57925192D01*
X119297167Y-57780609D01*
X119772098Y-57751234D01*
X120455315Y-57810604D01*
X121019140Y-58045975D01*
X121658962Y-58543241D01*
X121741845Y-58617143D01*
X122548217Y-59566809D01*
X123334316Y-60913750D01*
X124085971Y-62593461D01*
X124789010Y-64541440D01*
X125429262Y-66693184D01*
X125992556Y-68984189D01*
X126464721Y-71349951D01*
X126831585Y-73725968D01*
X127078977Y-76047736D01*
X127192725Y-78250752D01*
X127158660Y-80270511D01*
X126962608Y-82042512D01*
X126929016Y-82227598D01*
X126619623Y-83555542D01*
X126246939Y-84507640D01*
X125763938Y-85169579D01*
X125123594Y-85627043D01*
X125040173Y-85669226D01*
X124482273Y-85834222D01*
X123767661Y-85826253D01*
X122816686Y-85634265D01*
X121549693Y-85247201D01*
X121241449Y-85141978D01*
X120707367Y-85017294D01*
X119781327Y-84867203D01*
X118531926Y-84700435D01*
X117027761Y-84525720D01*
X115337431Y-84351786D01*
X114198722Y-84245726D01*
X108195086Y-83708993D01*
X107230707Y-85499731D01*
X106691256Y-86466804D01*
X106132407Y-87412792D01*
X105658607Y-88161974D01*
X105577921Y-88280397D01*
X104558527Y-89570229D01*
X103566601Y-90492692D01*
X102633285Y-91039362D01*
X101789720Y-91201813D01*
X101067048Y-90971619D01*
X100496410Y-90340355D01*
X100227366Y-89728035D01*
X99961293Y-89185564D01*
X99520738Y-88909874D01*
X99121855Y-88814351D01*
X98554990Y-88657020D01*
X97697730Y-88355845D01*
X96679913Y-87958504D01*
X95907978Y-87634184D01*
X94991514Y-87270901D01*
X93845107Y-86867306D01*
X92567725Y-86452625D01*
X91258338Y-86056083D01*
X90015915Y-85706908D01*
X88939423Y-85434324D01*
X88127832Y-85267559D01*
X87764671Y-85229416D01*
X87431465Y-85352148D01*
X86879713Y-85665104D01*
X86530593Y-85893961D01*
X85796068Y-86346710D01*
X84858131Y-86855210D01*
X84064443Y-87241651D01*
X83012394Y-87764167D01*
X82186892Y-88304680D01*
X81500061Y-88954542D01*
X80864024Y-89805105D01*
X80190903Y-90947721D01*
X79808283Y-91666088D01*
X78987827Y-93174120D01*
X78263645Y-94331041D01*
X77565182Y-95216371D01*
X76821884Y-95909632D01*
X75963197Y-96490345D01*
X75136109Y-96932090D01*
X74228221Y-97358949D01*
X73499228Y-97622375D01*
X72764837Y-97766459D01*
X71840752Y-97835290D01*
X71280855Y-97854399D01*
X70069446Y-97846913D01*
X68971686Y-97764755D01*
X68156807Y-97620865D01*
X68131044Y-97613592D01*
X67162271Y-97289608D01*
X66454357Y-96963289D01*
X66087495Y-96674504D01*
X66054177Y-96581045D01*
X66189375Y-96258597D01*
X66562203Y-95646847D01*
X67123513Y-94818477D01*
X67824157Y-93846170D01*
X68569649Y-92861053D01*
X69723299Y-91371780D01*
X68049216Y-90888925D01*
X66045769Y-90143870D01*
X64304775Y-89114893D01*
X63407160Y-88401247D01*
X62491963Y-87605909D01*
X63474977Y-86475390D01*
X64053553Y-85856885D01*
X64764982Y-85163629D01*
X65522592Y-84471698D01*
X66239710Y-83857163D01*
X66829664Y-83396098D01*
X67205781Y-83164578D01*
X67262281Y-83151234D01*
X67484306Y-83071066D01*
X67316254Y-82850557D01*
X66797308Y-82519702D01*
X65966648Y-82108497D01*
X65806728Y-82036941D01*
X63721286Y-81013291D01*
X61778228Y-79862107D01*
X60090249Y-78655116D01*
X59018190Y-77716158D01*
X57533744Y-76326212D01*
X56255226Y-75266238D01*
X55200709Y-74549330D01*
X54388267Y-74188584D01*
X54090261Y-74145780D01*
X53584489Y-74182442D01*
X53389397Y-74364904D01*
X53453791Y-74801875D01*
X53588581Y-75211096D01*
X53904720Y-75726953D01*
X54518704Y-76178344D01*
X55031762Y-76435673D01*
X56016674Y-77015980D01*
X57071956Y-77851032D01*
X58096024Y-78837121D01*
X58987294Y-79870541D01*
X59644182Y-80847582D01*
X59897191Y-81402823D01*
X60243437Y-82904210D01*
X60189738Y-84176771D01*
X59735396Y-85223796D01*
X58916542Y-86023359D01*
X58325440Y-86366384D01*
X57848374Y-86528865D01*
X57719618Y-86524567D01*
X57315440Y-86440023D01*
X56635657Y-86336576D01*
X56163933Y-86276673D01*
X55459083Y-86206054D01*
X55113232Y-86229152D01*
X55028059Y-86375391D01*
X55081471Y-86600618D01*
X55136325Y-87085481D01*
X55124885Y-87851817D01*
X55061071Y-88742910D01*
X54958803Y-89602040D01*
X54832003Y-90272489D01*
X54730168Y-90555638D01*
X54407844Y-90672239D01*
X53770494Y-90615951D01*
X52919461Y-90413661D01*
X51956093Y-90092253D01*
X50981734Y-89678613D01*
X50499266Y-89433222D01*
X49586064Y-88803283D01*
X48575789Y-87896562D01*
X47590939Y-86842560D01*
X46754011Y-85770779D01*
X46249299Y-84940265D01*
X45838769Y-83642013D01*
X45754341Y-82120607D01*
X45984963Y-80468492D01*
X46519581Y-78778116D01*
X47139501Y-77494313D01*
X47590068Y-76614638D01*
X47729210Y-76041507D01*
X47522501Y-75711941D01*
X46935520Y-75562964D01*
X46066481Y-75531234D01*
X45100336Y-75571112D01*
X44446520Y-75711730D01*
X43960769Y-75984565D01*
X43949912Y-75993053D01*
X43256618Y-76349943D01*
X42527223Y-76440399D01*
X41938011Y-76248876D01*
X41854904Y-76177780D01*
X41723322Y-75821911D01*
X41634917Y-75050466D01*
X41588348Y-73846826D01*
X41579895Y-72771871D01*
X41581976Y-69643053D01*
X40107276Y-68430963D01*
X40720075Y-65919735D01*
X41149000Y-64074755D01*
X41452927Y-62522669D01*
X41651034Y-61117634D01*
X41762500Y-59713807D01*
X41806503Y-58165347D01*
X41809440Y-57635780D01*
X41811898Y-56016970D01*
X43771627Y-56016970D01*
X44007934Y-57130455D01*
X44196718Y-58042024D01*
X44350039Y-59310309D01*
X44463925Y-60831280D01*
X44534401Y-62500908D01*
X44557496Y-64215165D01*
X44529234Y-65870023D01*
X44445644Y-67361452D01*
X44412660Y-67726785D01*
X44334465Y-68766657D01*
X44358743Y-69364820D01*
X44497030Y-69532344D01*
X44760861Y-69280297D01*
X45161772Y-68619747D01*
X45224088Y-68505325D01*
X45361434Y-68187378D01*
X45459420Y-67773486D01*
X45489326Y-67498364D01*
X47148794Y-67498364D01*
X47266308Y-69118589D01*
X47556230Y-70804735D01*
X48019427Y-72656017D01*
X48513374Y-74316354D01*
X49432688Y-77263053D01*
X48969502Y-77840325D01*
X47982014Y-79385602D01*
X47451928Y-80977760D01*
X47379492Y-82598227D01*
X47764952Y-84228432D01*
X48608553Y-85849803D01*
X48858476Y-86207333D01*
X49903298Y-87361585D01*
X51073464Y-88181176D01*
X52282832Y-88607467D01*
X52414029Y-88627759D01*
X52819867Y-88680771D01*
X53101478Y-88672237D01*
X53265090Y-88539940D01*
X53316928Y-88221660D01*
X53263218Y-87655178D01*
X53110187Y-86778274D01*
X52864061Y-85528730D01*
X52770912Y-85061406D01*
X52559890Y-83936462D01*
X52401208Y-82962983D01*
X52308766Y-82236651D01*
X52296463Y-81853148D01*
X52301847Y-81832469D01*
X52634848Y-81564430D01*
X53298156Y-81578751D01*
X54261882Y-81868768D01*
X55496137Y-82427816D01*
X55886206Y-82631689D01*
X56761320Y-83076615D01*
X57485614Y-83399376D01*
X57965054Y-83560645D01*
X58102601Y-83558641D01*
X58131550Y-83266940D01*
X58045392Y-82661619D01*
X57862729Y-81871097D01*
X57852833Y-81834314D01*
X57223736Y-80294259D01*
X56267536Y-79059442D01*
X55014948Y-78161753D01*
X53898319Y-77728590D01*
X52950748Y-77454496D01*
X52328367Y-77206780D01*
X51907636Y-76902647D01*
X51565014Y-76459307D01*
X51277308Y-75972067D01*
X51029291Y-75494561D01*
X50864398Y-75032248D01*
X50765879Y-74475189D01*
X50716986Y-73713445D01*
X50700967Y-72637077D01*
X50700035Y-72183053D01*
X50717894Y-70797914D01*
X50767055Y-69297734D01*
X50839111Y-67900709D01*
X50893655Y-67158086D01*
X51088589Y-64904028D01*
X50242672Y-64550581D01*
X49731142Y-64265640D01*
X49489369Y-63986967D01*
X49489334Y-63918275D01*
X49817645Y-63571815D01*
X50405724Y-63377176D01*
X51064094Y-63379163D01*
X51372010Y-63473090D01*
X51874906Y-63883360D01*
X52437029Y-64630240D01*
X52993927Y-65605388D01*
X53481147Y-66700467D01*
X53736678Y-67447887D01*
X53886781Y-67951666D01*
X54032904Y-68339663D01*
X54235389Y-68671254D01*
X54554577Y-69005818D01*
X55050810Y-69402731D01*
X55784428Y-69921371D01*
X56815774Y-70621115D01*
X57279631Y-70934242D01*
X60938547Y-73152026D01*
X64887499Y-75077130D01*
X69034073Y-76675731D01*
X73285854Y-77914006D01*
X77550425Y-78758131D01*
X79264621Y-78980637D01*
X80704995Y-79128628D01*
X81748007Y-79208096D01*
X82453391Y-79216406D01*
X82880878Y-79150919D01*
X83090203Y-79008998D01*
X83141449Y-78809451D01*
X83263399Y-78400715D01*
X83569105Y-77850878D01*
X83968355Y-77282633D01*
X84370933Y-76818677D01*
X84686628Y-76581703D01*
X84778437Y-76583072D01*
X84956143Y-76933063D01*
X84969307Y-77550774D01*
X84829589Y-78277044D01*
X84613604Y-78833156D01*
X84075487Y-79703743D01*
X83252849Y-80794894D01*
X82214458Y-82029744D01*
X81029079Y-83331428D01*
X79765480Y-84623083D01*
X78492428Y-85827843D01*
X77846638Y-86396941D01*
X75900008Y-88063348D01*
X75482367Y-87547583D01*
X75139841Y-86981589D01*
X74833410Y-86250954D01*
X74790472Y-86116442D01*
X74308801Y-85253235D01*
X73500038Y-84605512D01*
X72924861Y-84370298D01*
X75363393Y-84370298D01*
X75452981Y-84636860D01*
X75521449Y-84767598D01*
X75833058Y-85077372D01*
X76244690Y-85225583D01*
X76580227Y-85177880D01*
X76675995Y-84992792D01*
X76484570Y-84746206D01*
X76083690Y-84530974D01*
X75548378Y-84345630D01*
X75363393Y-84370298D01*
X72924861Y-84370298D01*
X72446234Y-84174567D01*
X71229441Y-83961695D01*
X69931708Y-83968188D01*
X68635088Y-84195341D01*
X67421631Y-84644446D01*
X66373389Y-85316797D01*
X65740841Y-85973771D01*
X65365145Y-86517913D01*
X65150173Y-86929202D01*
X65130540Y-87015685D01*
X65347093Y-87294437D01*
X65940638Y-87572091D01*
X66827010Y-87822915D01*
X67922042Y-88021173D01*
X68709631Y-88109992D01*
X70179198Y-88269118D01*
X71257548Y-88465868D01*
X72014829Y-88717389D01*
X72521188Y-89040826D01*
X72522401Y-89041923D01*
X72678949Y-89218137D01*
X72727282Y-89431923D01*
X72638884Y-89757110D01*
X72385239Y-90267526D01*
X71937829Y-91037000D01*
X71425551Y-91881632D01*
X70804783Y-92891159D01*
X70231142Y-93810548D01*
X69768781Y-94537823D01*
X69483442Y-94968751D01*
X69203514Y-95395622D01*
X69207797Y-95588397D01*
X69513434Y-95689745D01*
X69571618Y-95702635D01*
X70228394Y-95764806D01*
X71175031Y-95757546D01*
X72246750Y-95692531D01*
X73278774Y-95581440D01*
X74106322Y-95435952D01*
X74366904Y-95362785D01*
X75151717Y-95016314D01*
X75966708Y-94536101D01*
X76678836Y-94013672D01*
X77155061Y-93540556D01*
X77253388Y-93376984D01*
X77356588Y-92956328D01*
X77472695Y-92221738D01*
X77579132Y-91319737D01*
X77594194Y-91165034D01*
X77742805Y-90113834D01*
X78009059Y-89299249D01*
X78462097Y-88638772D01*
X79171059Y-88049896D01*
X80205087Y-87450113D01*
X81063268Y-87025348D01*
X82135493Y-86482250D01*
X83235503Y-85874504D01*
X84164496Y-85313120D01*
X84356457Y-85186444D01*
X85877811Y-84042252D01*
X86155821Y-83793559D01*
X92839631Y-83793559D01*
X93171888Y-83923129D01*
X93838531Y-84197910D01*
X94749796Y-84580438D01*
X95815919Y-85033244D01*
X96072358Y-85142862D01*
X97148841Y-85596487D01*
X98080169Y-85975646D01*
X98780749Y-86246473D01*
X99164992Y-86375100D01*
X99201616Y-86381069D01*
X99328580Y-86160531D01*
X99339291Y-85497578D01*
X99288159Y-84873384D01*
X99186387Y-84077920D01*
X99073332Y-83476505D01*
X98979227Y-83210224D01*
X98639311Y-83106999D01*
X97958231Y-83055489D01*
X97053342Y-83052296D01*
X96041997Y-83094019D01*
X95041551Y-83177258D01*
X94169357Y-83298615D01*
X93878722Y-83357985D01*
X93220107Y-83538301D01*
X92848671Y-83696278D01*
X92839631Y-83793559D01*
X86155821Y-83793559D01*
X87346129Y-82728772D01*
X88687572Y-81327943D01*
X89828303Y-79921705D01*
X90694483Y-78591998D01*
X91127723Y-77672279D01*
X91370587Y-77029776D01*
X91543622Y-76595634D01*
X91590824Y-76493890D01*
X91833317Y-76485738D01*
X92227048Y-76763120D01*
X92665223Y-77228561D01*
X93041045Y-77784586D01*
X93074479Y-77848046D01*
X93541720Y-78534997D01*
X94006286Y-78763962D01*
X94832407Y-78595384D01*
X95869019Y-78118927D01*
X97027414Y-77378504D01*
X97457813Y-77055284D01*
X98181814Y-76508388D01*
X98832550Y-76048930D01*
X99247358Y-75789057D01*
X99686128Y-75324993D01*
X99766762Y-74888110D01*
X99841139Y-74313881D01*
X100040698Y-73498294D01*
X100329798Y-72540235D01*
X100672796Y-71538593D01*
X101034050Y-70592256D01*
X101377917Y-69800112D01*
X101668754Y-69261048D01*
X101862562Y-69073432D01*
X102367094Y-69272898D01*
X102889616Y-69824970D01*
X103352071Y-70630530D01*
X103591182Y-71268468D01*
X103776975Y-72229449D01*
X103885003Y-73559899D01*
X103916337Y-75174251D01*
X103872044Y-76986932D01*
X103753195Y-78912375D01*
X103560859Y-80865009D01*
X103461449Y-81650325D01*
X103291815Y-83016955D01*
X103150205Y-84374861D01*
X103049281Y-85586097D01*
X103001706Y-86512717D01*
X102999631Y-86681759D01*
X102999631Y-88302810D01*
X103486020Y-87862931D01*
X103996043Y-87253460D01*
X104522521Y-86315327D01*
X105090333Y-85000016D01*
X105459153Y-84015329D01*
X105736696Y-83290491D01*
X106162898Y-82236911D01*
X106698881Y-80947872D01*
X107163541Y-79852070D01*
X110031862Y-79852070D01*
X110039886Y-79877550D01*
X110301094Y-79979040D01*
X110903545Y-80156556D01*
X111738416Y-80382603D01*
X112696885Y-80629688D01*
X113670127Y-80870314D01*
X114549322Y-81076989D01*
X115225645Y-81222215D01*
X115584177Y-81278344D01*
X115627290Y-81176220D01*
X115315843Y-80878735D01*
X114693684Y-80424083D01*
X114314033Y-80171910D01*
X113414967Y-79611579D01*
X112550789Y-79111149D01*
X111872668Y-78757114D01*
X111728338Y-78692476D01*
X110874605Y-78335763D01*
X110413933Y-79063344D01*
X110136787Y-79554379D01*
X110031862Y-79852070D01*
X107163541Y-79852070D01*
X107305767Y-79516661D01*
X107944681Y-78036560D01*
X108080765Y-77724871D01*
X109113550Y-75316913D01*
X109943862Y-73268544D01*
X109949012Y-73254642D01*
X115588748Y-73254642D01*
X115690464Y-73567463D01*
X115955656Y-73988656D01*
X116426178Y-74577180D01*
X117143884Y-75391994D01*
X117903496Y-76223962D01*
X118941990Y-77367644D01*
X120048965Y-78612379D01*
X121103535Y-79820734D01*
X121984813Y-80855282D01*
X122118106Y-81015325D01*
X122828330Y-81844977D01*
X123452652Y-82524293D01*
X123923549Y-82983103D01*
X124173309Y-83151234D01*
X124489289Y-82968544D01*
X124729708Y-82643408D01*
X124838304Y-82180357D01*
X124902208Y-81337250D01*
X124924516Y-80193373D01*
X124908328Y-78828009D01*
X124856740Y-77320442D01*
X124772849Y-75749957D01*
X124659753Y-74195836D01*
X124520549Y-72737365D01*
X124358335Y-71453827D01*
X124271437Y-70913053D01*
X123911919Y-69107144D01*
X123472982Y-67284614D01*
X122978857Y-65518646D01*
X122453771Y-63882428D01*
X121921955Y-62449146D01*
X121407638Y-61291984D01*
X120935049Y-60484130D01*
X120742715Y-60254318D01*
X120111919Y-59926833D01*
X119230935Y-59870239D01*
X118209061Y-60065520D01*
X117155594Y-60493658D01*
X116320431Y-61023775D01*
X116109919Y-61222119D01*
X116058157Y-61458210D01*
X116184917Y-61846100D01*
X116509970Y-62499838D01*
X116609068Y-62688786D01*
X116975629Y-63443472D01*
X117231145Y-64080048D01*
X117315995Y-64429070D01*
X117181798Y-64834819D01*
X116840414Y-65421851D01*
X116605496Y-65749906D01*
X116309002Y-66153463D01*
X116106701Y-66519408D01*
X115977842Y-66948799D01*
X115901675Y-67542698D01*
X115857449Y-68402165D01*
X115826418Y-69544154D01*
X115788062Y-70702967D01*
X115734270Y-71738801D01*
X115672168Y-72538861D01*
X115608881Y-72990353D01*
X115608654Y-72991234D01*
X115588748Y-73254642D01*
X109949012Y-73254642D01*
X110587124Y-71532175D01*
X111058762Y-70060213D01*
X111374202Y-68805069D01*
X111548867Y-67719150D01*
X111598337Y-66872143D01*
X111499985Y-65447310D01*
X111197660Y-64318983D01*
X110709872Y-63541291D01*
X110371161Y-63283654D01*
X109769217Y-63128837D01*
X108802146Y-63087655D01*
X108189961Y-63112881D01*
X107049286Y-63258555D01*
X105929220Y-63568696D01*
X104753184Y-64079489D01*
X103444599Y-64827123D01*
X101926887Y-65847785D01*
X101036904Y-66493053D01*
X99942688Y-67260648D01*
X98849742Y-67955904D01*
X97830681Y-68540081D01*
X96958120Y-68974442D01*
X96304674Y-69220247D01*
X95942958Y-69238757D01*
X95920992Y-69222292D01*
X96003921Y-69007870D01*
X96305650Y-68522525D01*
X96765235Y-67862784D01*
X96868913Y-67720873D01*
X97889972Y-66542799D01*
X99309290Y-65230089D01*
X101093113Y-63811327D01*
X103207689Y-62315095D01*
X103421077Y-62172277D01*
X104288824Y-61580701D01*
X104809844Y-61183051D01*
X105031517Y-60932514D01*
X105001226Y-60782277D01*
X104887887Y-60723024D01*
X104833976Y-60696724D01*
X108342771Y-60696724D01*
X108567553Y-60748201D01*
X108646648Y-60749517D01*
X109124009Y-60847188D01*
X109810393Y-61098616D01*
X110597787Y-61449335D01*
X111378178Y-61844879D01*
X112043553Y-62230781D01*
X112485898Y-62552576D01*
X112603236Y-62744640D01*
X112695218Y-63038485D01*
X112940505Y-63181338D01*
X113307402Y-63388806D01*
X113390540Y-63539522D01*
X113485064Y-63718313D01*
X113833060Y-63673345D01*
X114180122Y-63548712D01*
X114357332Y-63427092D01*
X114318498Y-63231539D01*
X114017633Y-62898686D01*
X113408752Y-62365169D01*
X113185916Y-62178776D01*
X112411350Y-61560325D01*
X111682624Y-61022970D01*
X111139987Y-60669402D01*
X111080073Y-60636886D01*
X110289759Y-60375178D01*
X109429233Y-60305855D01*
X108705932Y-60438295D01*
X108541449Y-60522143D01*
X108342771Y-60696724D01*
X104833976Y-60696724D01*
X104499502Y-60533555D01*
X104269190Y-60236693D01*
X104109068Y-59688508D01*
X104064653Y-59464221D01*
X112069195Y-59464221D01*
X112120540Y-59598507D01*
X112412940Y-59825728D01*
X112645631Y-59655114D01*
X112697813Y-59367598D01*
X112606763Y-58992290D01*
X112480531Y-58905780D01*
X112158672Y-59088394D01*
X112069195Y-59464221D01*
X104064653Y-59464221D01*
X104038443Y-59331865D01*
X103880784Y-58491468D01*
X105551632Y-57613462D01*
X106821214Y-56818118D01*
X108103970Y-55792900D01*
X109275821Y-54653176D01*
X110212689Y-53514311D01*
X110576724Y-52941175D01*
X111111089Y-51978346D01*
X110503964Y-51747517D01*
X109736769Y-51557370D01*
X108822159Y-51546900D01*
X107633829Y-51717056D01*
X107360693Y-51771107D01*
X106530857Y-51908472D01*
X105444343Y-52044845D01*
X104305669Y-52155287D01*
X104046881Y-52175198D01*
X103056989Y-52254506D01*
X102416682Y-52344416D01*
X102014581Y-52483598D01*
X101739308Y-52710724D01*
X101479483Y-53064462D01*
X101477619Y-53067233D01*
X101140568Y-53531043D01*
X100918678Y-53652421D01*
X100681818Y-53480226D01*
X100603551Y-53395415D01*
X100301461Y-52831884D01*
X100228722Y-52420619D01*
X100163422Y-51788635D01*
X100017383Y-51123106D01*
X99929733Y-50491600D01*
X100137389Y-50115395D01*
X100684694Y-49965217D01*
X101615989Y-50011788D01*
X101687435Y-50020498D01*
X102939658Y-50176953D01*
X103035104Y-49669416D01*
X106463268Y-49669416D01*
X106525398Y-50164489D01*
X106789507Y-50345600D01*
X107040540Y-50362143D01*
X107474936Y-50319732D01*
X107617813Y-50238565D01*
X107488829Y-49918255D01*
X107193130Y-49480628D01*
X106867593Y-49107460D01*
X106667620Y-48976689D01*
X106524105Y-49177452D01*
X106463282Y-49661133D01*
X106463268Y-49669416D01*
X103035104Y-49669416D01*
X103085086Y-49403639D01*
X103261174Y-48789305D01*
X103575694Y-47956157D01*
X103915551Y-47182700D01*
X104556090Y-45675958D01*
X104924773Y-44446931D01*
X105012453Y-43529238D01*
X104975209Y-43288408D01*
X104817986Y-42937290D01*
X104486677Y-42778634D01*
X103856500Y-42742143D01*
X102829326Y-42845863D01*
X101503071Y-43137444D01*
X99986194Y-43587521D01*
X98387152Y-44166729D01*
X97966215Y-44336965D01*
X96280981Y-45034232D01*
X94245590Y-43137733D01*
X93392640Y-42309160D01*
X92759860Y-41624993D01*
X92394615Y-41139745D01*
X92327343Y-40930102D01*
X92595955Y-40660006D01*
X93142048Y-40332436D01*
X93456072Y-40185354D01*
X94073109Y-39883028D01*
X94342569Y-39613407D01*
X94358803Y-39275118D01*
X94348530Y-39226486D01*
X94275494Y-38775894D01*
X94176690Y-37994730D01*
X94067798Y-37012379D01*
X94006340Y-36402884D01*
X93815870Y-34969191D01*
X93552270Y-33952824D01*
X93195040Y-33312300D01*
X92723678Y-33006136D01*
X92309298Y-32968928D01*
X91518624Y-33159972D01*
X90487397Y-33608741D01*
X89316416Y-34261908D01*
X88106485Y-35066148D01*
X87537367Y-35493403D01*
X85918642Y-36759968D01*
X84472318Y-36500434D01*
X83278987Y-36230275D01*
X82299097Y-35901427D01*
X81576205Y-35544287D01*
X81153868Y-35189250D01*
X81075640Y-34866713D01*
X81385080Y-34607073D01*
X81640540Y-34524238D01*
X82070641Y-34365985D01*
X82213929Y-34231202D01*
X82130879Y-33964975D01*
X81911619Y-33375642D01*
X81595471Y-32567256D01*
X81416143Y-32120325D01*
X80847852Y-30808141D01*
X80340914Y-29878297D01*
X79841689Y-29265862D01*
X79296538Y-28905905D01*
X78651823Y-28733493D01*
X78614158Y-28728388D01*
X78034397Y-28676320D01*
X77689371Y-28779973D01*
X77422858Y-29136126D01*
X77187671Y-29612097D01*
X76857840Y-30372282D01*
X76477215Y-31344518D01*
X76173144Y-32189643D01*
X75636904Y-33759870D01*
X76198869Y-34185360D01*
X76760833Y-34610851D01*
X75275232Y-35361769D01*
X74457391Y-35762514D01*
X73366936Y-36279387D01*
X72153754Y-36842056D01*
X71102311Y-37319842D01*
X69887657Y-37906063D01*
X68387429Y-38693491D01*
X66699406Y-39625809D01*
X64921366Y-40646704D01*
X63151088Y-41699858D01*
X61486349Y-42728957D01*
X60024929Y-43677685D01*
X59800533Y-43829104D01*
X59053156Y-44423173D01*
X58086298Y-45322539D01*
X56957793Y-46463212D01*
X55725475Y-47781202D01*
X54447179Y-49212519D01*
X53180737Y-50693173D01*
X51983985Y-52159175D01*
X50914755Y-53546534D01*
X50484273Y-54137022D01*
X50088146Y-54715398D01*
X49769028Y-55259758D01*
X49493924Y-55857441D01*
X49229837Y-56595785D01*
X48943770Y-57562130D01*
X48602728Y-58843813D01*
X48385460Y-59692396D01*
X47822021Y-62041077D01*
X47427518Y-64058823D01*
X47202820Y-65844847D01*
X47148794Y-67498364D01*
X45489326Y-67498364D01*
X45522549Y-67192735D01*
X45555323Y-66374212D01*
X45562245Y-65247002D01*
X45547815Y-63740193D01*
X45543945Y-63467309D01*
X45527723Y-61764804D01*
X45547774Y-60439277D01*
X45623056Y-59406212D01*
X45772528Y-58581092D01*
X46015149Y-57879403D01*
X46369878Y-57216628D01*
X46855674Y-56508252D01*
X47211156Y-56035076D01*
X47672537Y-55408526D01*
X47880066Y-55022623D01*
X47869823Y-54758553D01*
X47678033Y-54497655D01*
X46873967Y-53924111D01*
X45921075Y-53727268D01*
X44967070Y-53937257D01*
X44956090Y-53942430D01*
X44214769Y-54444328D01*
X43826159Y-55114959D01*
X43771627Y-56016970D01*
X41811898Y-56016970D01*
X41813647Y-54864871D01*
X42792548Y-53808218D01*
G37*
%TD*%
%LPC*%
D14*
%TO.C,U1*%
X237789400Y-53086000D03*
X237789400Y-55626000D03*
X237789400Y-58166000D03*
X237789400Y-60706000D03*
X237789400Y-63246000D03*
X237789400Y-65786000D03*
X237789400Y-68326000D03*
X237789400Y-70866000D03*
X237789400Y-73406000D03*
X237789400Y-75946000D03*
X237789400Y-78486000D03*
X237789400Y-81026000D03*
X222569400Y-81026000D03*
X222569400Y-78486000D03*
X222569400Y-75946000D03*
X222569400Y-73406000D03*
X222569400Y-70866000D03*
X222569400Y-68326000D03*
X222569400Y-65786000D03*
X222569400Y-63246000D03*
X222569400Y-60706000D03*
X222569400Y-58166000D03*
X222569400Y-55626000D03*
X222569400Y-53086000D03*
%TD*%
D15*
%TO.C,J2*%
X234874000Y-86052000D03*
X227874000Y-86052000D03*
D16*
X230274000Y-88352000D03*
X233274000Y-88352000D03*
X225174000Y-83752000D03*
X226274000Y-88352000D03*
%TD*%
D17*
%TO.C,SW16*%
X170636000Y-60316000D03*
D18*
X181356000Y-64516000D03*
X170356000Y-64516000D03*
D17*
X181076000Y-60316000D03*
D19*
X175856000Y-64516000D03*
D20*
X175856000Y-70416000D03*
X170856000Y-68316000D03*
%TD*%
D18*
%TO.C,SW20*%
X227149140Y-100832000D03*
X217622860Y-95332000D03*
D19*
X222386000Y-98082000D03*
D17*
X215765347Y-99109307D03*
X224806653Y-104329307D03*
D20*
X225336000Y-92972450D03*
X228616127Y-97291103D03*
%TD*%
D17*
%TO.C,SW15*%
X152636000Y-67174000D03*
X163076000Y-67174000D03*
D19*
X157856000Y-71374000D03*
D18*
X152356000Y-71374000D03*
X163356000Y-71374000D03*
D20*
X157856000Y-77274000D03*
X152856000Y-75174000D03*
%TD*%
D17*
%TO.C,SW21*%
X197696827Y-92787853D03*
D18*
X209138592Y-91505505D03*
X198513408Y-88658495D03*
D19*
X203826000Y-90082000D03*
D17*
X207781093Y-95489924D03*
D20*
X205353032Y-84383038D03*
X209639142Y-87705577D03*
%TD*%
D19*
%TO.C,SW17*%
X193856000Y-69850000D03*
D18*
X188356000Y-69850000D03*
D17*
X199076000Y-65650000D03*
X188636000Y-65650000D03*
D18*
X199356000Y-69850000D03*
D20*
X193856000Y-75750000D03*
X188856000Y-73650000D03*
%TD*%
D17*
%TO.C,SW18*%
X206616000Y-68190000D03*
D18*
X206336000Y-72390000D03*
X217336000Y-72390000D03*
D19*
X211836000Y-72390000D03*
D17*
X217056000Y-68190000D03*
D20*
X211836000Y-78290000D03*
X206836000Y-76190000D03*
%TD*%
D17*
%TO.C,SW4*%
X170636000Y-26182000D03*
D18*
X181356000Y-30382000D03*
D19*
X175856000Y-30382000D03*
D17*
X181076000Y-26182000D03*
D18*
X170356000Y-30382000D03*
D20*
X175856000Y-36282000D03*
X170856000Y-34182000D03*
%TD*%
D18*
%TO.C,SW3*%
X163356000Y-37382000D03*
D19*
X157856000Y-37382000D03*
D17*
X163076000Y-33182000D03*
X152636000Y-33182000D03*
D18*
X152356000Y-37382000D03*
D20*
X157856000Y-43282000D03*
X152856000Y-41182000D03*
%TD*%
D18*
%TO.C,SW9*%
X163356000Y-54356000D03*
D19*
X157856000Y-54356000D03*
D17*
X163076000Y-50156000D03*
X152636000Y-50156000D03*
D18*
X152356000Y-54356000D03*
D20*
X157856000Y-60256000D03*
X152856000Y-58156000D03*
%TD*%
D19*
%TO.C,SW14*%
X139856000Y-83382000D03*
D18*
X134356000Y-83382000D03*
D17*
X145076000Y-79182000D03*
D18*
X145356000Y-83382000D03*
D17*
X134636000Y-79182000D03*
D20*
X139856000Y-89282000D03*
X134856000Y-87182000D03*
%TD*%
D19*
%TO.C,SW12*%
X211836000Y-55372000D03*
D18*
X206336000Y-55372000D03*
D17*
X206616000Y-51172000D03*
X217056000Y-51172000D03*
D18*
X217336000Y-55372000D03*
D20*
X211836000Y-61272000D03*
X206836000Y-59172000D03*
%TD*%
D19*
%TO.C,SW11*%
X193856000Y-52832000D03*
D17*
X188636000Y-48632000D03*
X199076000Y-48632000D03*
D18*
X199356000Y-52832000D03*
X188356000Y-52832000D03*
D20*
X193856000Y-58732000D03*
X188856000Y-56632000D03*
%TD*%
D19*
%TO.C,SW8*%
X139856000Y-66382000D03*
D18*
X145356000Y-66382000D03*
D17*
X134636000Y-62182000D03*
D18*
X134356000Y-66382000D03*
D17*
X145076000Y-62182000D03*
D20*
X139856000Y-72282000D03*
X134856000Y-70182000D03*
%TD*%
D19*
%TO.C,SW6*%
X211856000Y-38382000D03*
D18*
X206356000Y-38382000D03*
D17*
X217076000Y-34182000D03*
X206636000Y-34182000D03*
D18*
X217356000Y-38382000D03*
D20*
X211856000Y-44282000D03*
X206856000Y-42182000D03*
%TD*%
D18*
%TO.C,SW5*%
X188356000Y-35882000D03*
D17*
X188636000Y-31682000D03*
D18*
X199356000Y-35882000D03*
D19*
X193856000Y-35882000D03*
D17*
X199076000Y-31682000D03*
D20*
X193856000Y-41782000D03*
X188856000Y-39682000D03*
%TD*%
D19*
%TO.C,SW2*%
X139856000Y-49382000D03*
D18*
X145356000Y-49382000D03*
X134356000Y-49382000D03*
D17*
X145076000Y-45182000D03*
X134636000Y-45182000D03*
D20*
X139856000Y-55282000D03*
X134856000Y-53182000D03*
%TD*%
D21*
%TO.C,mouse-bite-2mm-slot*%
X129286000Y-53340000D03*
X129286000Y-50292000D03*
X129286000Y-51308000D03*
X131318000Y-50292000D03*
X131318000Y-51308000D03*
X129286000Y-52324000D03*
X131318000Y-52324000D03*
X131318000Y-53340000D03*
X131318000Y-49276000D03*
X129286000Y-49276000D03*
%TD*%
%TO.C,mouse-bite-2mm-slot*%
X131318000Y-77216000D03*
X131318000Y-74168000D03*
X129286000Y-74168000D03*
X129286000Y-77216000D03*
X129286000Y-75184000D03*
X131318000Y-75184000D03*
X131318000Y-76200000D03*
X129286000Y-73152000D03*
X129286000Y-76200000D03*
X131318000Y-73152000D03*
%TD*%
D18*
%TO.C,SW10*%
X170356000Y-47498000D03*
X181356000Y-47498000D03*
D17*
X181076000Y-43298000D03*
X170636000Y-43298000D03*
D19*
X175856000Y-47498000D03*
D20*
X175856000Y-53398000D03*
X170856000Y-51298000D03*
%TD*%
D22*
%TO.C,B+*%
X235966000Y-50800000D03*
%TD*%
%TO.C,B-*%
X224282000Y-50800000D03*
%TD*%
D14*
%TO.C,U2*%
X37937400Y-53086000D03*
X37937400Y-55626000D03*
X37937400Y-58166000D03*
X37937400Y-60706000D03*
X37937400Y-63246000D03*
X37937400Y-65786000D03*
X37937400Y-68326000D03*
X37937400Y-70866000D03*
X37937400Y-73406000D03*
X37937400Y-75946000D03*
X37937400Y-78486000D03*
X37937400Y-81026000D03*
X22717400Y-81026000D03*
X22717400Y-78486000D03*
X22717400Y-75946000D03*
X22717400Y-73406000D03*
X22717400Y-70866000D03*
X22717400Y-68326000D03*
X22717400Y-65786000D03*
X22717400Y-63246000D03*
X22717400Y-60706000D03*
X22717400Y-58166000D03*
X22717400Y-55626000D03*
X22717400Y-53086000D03*
%TD*%
D15*
%TO.C,J1*%
X32476000Y-86052000D03*
X25476000Y-86052000D03*
D16*
X30076000Y-83752000D03*
X27076000Y-83752000D03*
X35176000Y-88352000D03*
X34076000Y-83752000D03*
%TD*%
D18*
%TO.C,SW17_r1*%
X43186000Y-72390000D03*
D17*
X53906000Y-68190000D03*
X43466000Y-68190000D03*
D18*
X54186000Y-72390000D03*
D19*
X48686000Y-72390000D03*
D20*
X48686000Y-78290000D03*
X43686000Y-76190000D03*
%TD*%
D17*
%TO.C,SW11_r1*%
X61480000Y-48632000D03*
D18*
X72200000Y-52832000D03*
D19*
X66700000Y-52832000D03*
D17*
X71920000Y-48632000D03*
D18*
X61200000Y-52832000D03*
D20*
X66700000Y-58732000D03*
X61700000Y-56632000D03*
%TD*%
D19*
%TO.C,SW15_r1*%
X84688000Y-64516000D03*
D17*
X79468000Y-60316000D03*
X89908000Y-60316000D03*
D18*
X90188000Y-64516000D03*
X79188000Y-64516000D03*
D20*
X84688000Y-70416000D03*
X79688000Y-68316000D03*
%TD*%
D17*
%TO.C,SW18_r1*%
X107934000Y-67174000D03*
X97494000Y-67174000D03*
D18*
X108214000Y-71374000D03*
X97214000Y-71374000D03*
D19*
X102714000Y-71374000D03*
D20*
X102714000Y-77274000D03*
X97714000Y-75174000D03*
%TD*%
D18*
%TO.C,SW6_r1*%
X54186000Y-38382000D03*
D17*
X43466000Y-34182000D03*
X53906000Y-34182000D03*
D18*
X43186000Y-38382000D03*
D19*
X48686000Y-38382000D03*
D20*
X48686000Y-44282000D03*
X43686000Y-42182000D03*
%TD*%
D18*
%TO.C,SW5_r1*%
X61200000Y-35882000D03*
D17*
X61480000Y-31682000D03*
D19*
X66700000Y-35882000D03*
D17*
X71920000Y-31682000D03*
D18*
X72200000Y-35882000D03*
D20*
X66700000Y-41782000D03*
X61700000Y-39682000D03*
%TD*%
D18*
%TO.C,SW2_r1*%
X126232000Y-49382000D03*
D17*
X115512000Y-45182000D03*
X125952000Y-45182000D03*
D18*
X115232000Y-49382000D03*
D19*
X120732000Y-49382000D03*
D20*
X120732000Y-55282000D03*
X115732000Y-53182000D03*
%TD*%
D19*
%TO.C,SW16_r1*%
X66700000Y-69850000D03*
D18*
X61200000Y-69850000D03*
X72200000Y-69850000D03*
D17*
X71920000Y-65650000D03*
X61480000Y-65650000D03*
D20*
X66700000Y-75750000D03*
X61700000Y-73650000D03*
%TD*%
D17*
%TO.C,SW4_r1*%
X89908000Y-26182000D03*
D19*
X84688000Y-30382000D03*
D18*
X90188000Y-30382000D03*
D17*
X79468000Y-26182000D03*
D18*
X79188000Y-30382000D03*
D20*
X84688000Y-36282000D03*
X79688000Y-34182000D03*
%TD*%
D17*
%TO.C,SW13_r1*%
X115512000Y-79182000D03*
D18*
X126232000Y-83382000D03*
X115232000Y-83382000D03*
D19*
X120732000Y-83382000D03*
D17*
X125952000Y-79182000D03*
D20*
X120732000Y-89282000D03*
X115732000Y-87182000D03*
%TD*%
D19*
%TO.C,SW12_r1*%
X48686000Y-55372000D03*
D18*
X54186000Y-55372000D03*
X43186000Y-55372000D03*
D17*
X53906000Y-51172000D03*
X43466000Y-51172000D03*
D20*
X48686000Y-61272000D03*
X43686000Y-59172000D03*
%TD*%
D18*
%TO.C,SW3_r1*%
X108214000Y-37382000D03*
X97214000Y-37382000D03*
D19*
X102714000Y-37382000D03*
D17*
X107934000Y-33182000D03*
X97494000Y-33182000D03*
D20*
X102714000Y-43282000D03*
X97714000Y-41182000D03*
%TD*%
D17*
%TO.C,SW8_r1*%
X107934000Y-50156000D03*
D19*
X102714000Y-54356000D03*
D17*
X97494000Y-50156000D03*
D18*
X97214000Y-54356000D03*
X108214000Y-54356000D03*
D20*
X102714000Y-60256000D03*
X97714000Y-58156000D03*
%TD*%
D19*
%TO.C,SW21_r1*%
X56778000Y-90082000D03*
D18*
X51465408Y-91505505D03*
X62090592Y-88658495D03*
D17*
X52822907Y-95489924D03*
X62907173Y-92787853D03*
D20*
X55250968Y-84383038D03*
X60624117Y-85117387D03*
%TD*%
D17*
%TO.C,SW9_r1*%
X79468000Y-43298000D03*
D18*
X79188000Y-47498000D03*
D17*
X89908000Y-43298000D03*
D19*
X84688000Y-47498000D03*
D18*
X90188000Y-47498000D03*
D20*
X84688000Y-53398000D03*
X79688000Y-51298000D03*
%TD*%
D17*
%TO.C,SW20_r1*%
X35797347Y-104329307D03*
D18*
X33454860Y-100832000D03*
D17*
X44838653Y-99109307D03*
D19*
X38218000Y-98082000D03*
D18*
X42981140Y-95332000D03*
D20*
X35268000Y-92972450D03*
X40648127Y-92291103D03*
%TD*%
D19*
%TO.C,SW7_r1*%
X120732000Y-66382000D03*
D18*
X126232000Y-66382000D03*
X115232000Y-66382000D03*
D17*
X125952000Y-62182000D03*
X115512000Y-62182000D03*
D20*
X120732000Y-72282000D03*
X115732000Y-70182000D03*
%TD*%
D22*
%TO.C,B-*%
X36068000Y-50800000D03*
%TD*%
%TO.C,B+*%
X24638000Y-50800000D03*
%TD*%
D23*
%TO.C,POWER SW*%
X231624000Y-51816000D03*
X228624000Y-51816000D03*
D24*
X233824000Y-52916000D03*
X226424000Y-52916000D03*
X226424000Y-50716000D03*
X233824000Y-50716000D03*
D25*
X227874000Y-53891000D03*
X230874000Y-53891000D03*
X232374000Y-53891000D03*
%TD*%
D23*
%TO.C,POWER SW*%
X28980000Y-51816000D03*
X31980000Y-51816000D03*
D24*
X26780000Y-52916000D03*
X26780000Y-50716000D03*
X34180000Y-50716000D03*
X34180000Y-52916000D03*
D25*
X28230000Y-53891000D03*
X31230000Y-53891000D03*
X32730000Y-53891000D03*
%TD*%
M02*
