%TF.GenerationSoftware,KiCad,Pcbnew,(6.0.7-1)-1*%
%TF.CreationDate,2022-08-06T17:31:22-07:00*%
%TF.ProjectId,sweepv2,73776565-7076-4322-9e6b-696361645f70,rev?*%
%TF.SameCoordinates,Original*%
%TF.FileFunction,Profile,NP*%
%FSLAX46Y46*%
G04 Gerber Fmt 4.6, Leading zero omitted, Abs format (unit mm)*
G04 Created by KiCad (PCBNEW (6.0.7-1)-1) date 2022-08-06 17:31:22*
%MOMM*%
%LPD*%
G01*
G04 APERTURE LIST*
%TA.AperFunction,Profile*%
%ADD10C,0.050000*%
%TD*%
G04 APERTURE END LIST*
D10*
X131508500Y-77724000D02*
X131506254Y-89547024D01*
X219998045Y-47763999D02*
X219998298Y-31095523D01*
X223714000Y-108050000D02*
G75*
G03*
X226446000Y-107451265I1070000J1650000D01*
G01*
X219998002Y-47763999D02*
G75*
G03*
X222033002Y-49694917I1999998J69999D01*
G01*
X238688000Y-50442000D02*
G75*
G03*
X237938000Y-49692000I-750000J0D01*
G01*
X131506294Y-89547021D02*
G75*
G03*
X133544000Y-91383119I1978006J146421D01*
G01*
X223714000Y-108050000D02*
G75*
G03*
X202185134Y-98863946I-44316000J-74040000D01*
G01*
X222033002Y-49694917D02*
X237938000Y-49692000D01*
X202185136Y-98863939D02*
G75*
G03*
X133544000Y-91383119I-69219136J-316475461D01*
G01*
X238688000Y-58420000D02*
X238688000Y-66548000D01*
X236953304Y-88858150D02*
X226446000Y-107451265D01*
X236953327Y-88858162D02*
G75*
G03*
X238700000Y-81534000I-15027227J7454062D01*
G01*
X238688000Y-50442000D02*
X238688000Y-58420000D01*
X131580700Y-41910310D02*
X131572000Y-48700000D01*
X238688000Y-66548000D02*
X238688000Y-75438000D01*
X238688000Y-75438000D02*
X238700000Y-81534000D01*
X129349500Y-72644000D02*
X128960000Y-72644000D01*
X129349500Y-53848000D02*
X128960000Y-53848000D01*
X129349500Y-77724000D02*
X128960000Y-77724000D01*
X131572000Y-53848000D02*
X131572000Y-72644000D01*
X21792000Y-50442000D02*
X21792000Y-58420000D01*
X128960000Y-77724000D02*
X128975507Y-89545022D01*
X126936000Y-91383122D02*
G75*
G03*
X128975507Y-89545022I59500J1984522D01*
G01*
X40481999Y-47763999D02*
X40481692Y-31125519D01*
X21792000Y-66548000D02*
X21792000Y-73914000D01*
X23526696Y-88858150D02*
X34034000Y-107451265D01*
X38446998Y-49694918D02*
G75*
G03*
X40481999Y-47763999I35002J2000918D01*
G01*
X126936000Y-91383119D02*
G75*
G03*
X58294866Y-98863946I578050J-323956411D01*
G01*
X21779999Y-81534000D02*
G75*
G03*
X23526696Y-88858150I16773851J129950D01*
G01*
X22542000Y-49692000D02*
G75*
G03*
X21792000Y-50442000I0J-750000D01*
G01*
X38446998Y-49694917D02*
X22542000Y-49692000D01*
X21792000Y-58420000D02*
X21792000Y-66548000D01*
X34034000Y-107451265D02*
G75*
G03*
X36766000Y-108050000I1662000J1051265D01*
G01*
X58294866Y-98863946D02*
G75*
G03*
X36766000Y-108050000I22787134J-83226054D01*
G01*
X21792000Y-73914000D02*
X21780000Y-81534000D01*
X128960000Y-53848000D02*
X128960000Y-72644000D01*
X129013945Y-41927157D02*
X129013945Y-48768000D01*
X149954645Y-28890000D02*
X165694645Y-28890000D01*
X58721692Y-27372366D02*
X74341692Y-27372366D01*
X185953778Y-27353070D02*
X186090000Y-27351907D01*
X93722738Y-27810461D02*
G75*
G03*
X94796191Y-28910000I1080662J-18739D01*
G01*
X76830000Y-21870757D02*
X92580000Y-21870757D01*
X184854293Y-26279571D02*
G75*
G03*
X185953778Y-27353070I1080807J7171D01*
G01*
X183850000Y-21845762D02*
X183740000Y-21846519D01*
X203943778Y-30083070D02*
X218998298Y-30082370D01*
X131571999Y-48768000D02*
X131400000Y-48768000D01*
X166852367Y-22847453D02*
X166851955Y-22915762D01*
X202844293Y-29009571D02*
G75*
G03*
X203943778Y-30083070I1080807J7171D01*
G01*
X132573852Y-40889974D02*
G75*
G03*
X131580700Y-41910310I27648J-1020426D01*
G01*
X110640000Y-28906847D02*
X110706847Y-28910000D01*
X131572000Y-48700000D02*
X131572000Y-48768000D01*
X75720000Y-22960000D02*
X75720000Y-22880000D01*
X75720000Y-26220000D02*
X75720000Y-22960000D01*
X184850000Y-22855762D02*
X184850000Y-22935762D01*
X41481692Y-30112310D02*
G75*
G03*
X40481692Y-31125519I308J-1000390D01*
G01*
X165694645Y-28890000D02*
X165773809Y-28885762D01*
X93718045Y-27720000D02*
X93722692Y-27810460D01*
X111726491Y-39807307D02*
G75*
G03*
X112800000Y-40906847I1080709J-18693D01*
G01*
X111718045Y-39600000D02*
X111726501Y-39807307D01*
X129014023Y-41927157D02*
G75*
G03*
X128020792Y-40906847I-1020723J-43D01*
G01*
X219998248Y-31095522D02*
G75*
G03*
X218998298Y-30082370I-1000248J12822D01*
G01*
X129013945Y-48768000D02*
X129349501Y-48767999D01*
X93718045Y-22940000D02*
X93718045Y-27720000D01*
X165773809Y-28885745D02*
G75*
G03*
X166847308Y-27786222I-7209J1080845D01*
G01*
X167990000Y-21846519D02*
X183740000Y-21846519D01*
X111719981Y-29910000D02*
G75*
G03*
X110706847Y-28910000I-1000381J-300D01*
G01*
X129349501Y-72643999D02*
G75*
G03*
X131254499Y-72644000I952499J380999D01*
G01*
X56626222Y-30107325D02*
G75*
G03*
X57725762Y-29033809I18678J1080725D01*
G01*
X131572000Y-53848000D02*
X131254500Y-53848000D01*
X184849960Y-22855761D02*
G75*
G03*
X183850000Y-21845762I-997160J12761D01*
G01*
X149887798Y-28893153D02*
X149954645Y-28890000D01*
X58721692Y-27372310D02*
G75*
G03*
X57721692Y-28385519I308J-1000390D01*
G01*
X186228308Y-27348128D02*
X201848308Y-27348128D01*
X131254499Y-77724001D02*
G75*
G03*
X129349501Y-77724000I-952499J-380999D01*
G01*
X111718045Y-30100000D02*
X111718045Y-39600000D01*
X75720000Y-26220000D02*
X75715762Y-26303809D01*
X76720000Y-21869922D02*
G75*
G03*
X75720000Y-22880000I-2800J-997278D01*
G01*
X184850000Y-22935762D02*
X184850000Y-26195762D01*
X76830000Y-21870757D02*
X76720000Y-21870000D01*
X132573853Y-40890000D02*
X147794645Y-40890000D01*
X92580000Y-21870757D02*
X92704480Y-21871691D01*
X112800000Y-40906847D02*
X128020792Y-40906847D01*
X94900000Y-28906847D02*
X110640000Y-28906847D01*
X166847308Y-27786222D02*
X166851955Y-27695762D01*
X111718045Y-30100000D02*
X111720000Y-29910000D01*
X93717691Y-22871691D02*
G75*
G03*
X92704480Y-21871691I-1000391J-309D01*
G01*
X167865520Y-21847453D02*
X167990000Y-21846519D01*
X202848308Y-28361281D02*
X202844238Y-29009571D01*
X166851955Y-27695762D02*
X166851955Y-22915762D01*
X202848290Y-28361281D02*
G75*
G03*
X201848308Y-27348128I-1000290J12781D01*
G01*
X149887798Y-28893127D02*
G75*
G03*
X148874645Y-29893153I-12798J-1000273D01*
G01*
X41481692Y-30112366D02*
X56626222Y-30107308D01*
X74616222Y-27377325D02*
G75*
G03*
X75715762Y-26303809I18678J1080725D01*
G01*
X94900000Y-28906847D02*
X94796191Y-28910000D01*
X57725762Y-29033809D02*
X57721692Y-28385519D01*
X93718045Y-22940000D02*
X93717633Y-22871691D01*
X186090000Y-27351907D02*
X186228308Y-27348128D01*
X131572000Y-72644000D02*
X131254500Y-72644000D01*
X131400000Y-48768000D02*
X131254499Y-48768000D01*
X129349501Y-48767999D02*
G75*
G03*
X131254499Y-48768000I952499J380999D01*
G01*
X184854238Y-26279571D02*
X184850000Y-26195762D01*
X167865520Y-21847449D02*
G75*
G03*
X166852367Y-22847453I-12820J-1000251D01*
G01*
X131508500Y-77724000D02*
X131254500Y-77724000D01*
X148874645Y-29893153D02*
X148876600Y-30083153D01*
X131254499Y-53848001D02*
G75*
G03*
X129349501Y-53848000I-952499J-380999D01*
G01*
X148868144Y-39790460D02*
X148876600Y-39583153D01*
X74480000Y-27376145D02*
X74616222Y-27377308D01*
X148876600Y-39583153D02*
X148876600Y-30083153D01*
X147794645Y-40889982D02*
G75*
G03*
X148868144Y-39790460I-7145J1080782D01*
G01*
X74341692Y-27372366D02*
X74480000Y-27376145D01*
M02*
